<svg xmlns="http://www.w3.org/2000/svg" viewBox="0 0 363.08 93.26"><defs><style>.cls-1{fill:#fff;}</style></defs><title>abide_logo</title><g id="Layer_2" data-name="Layer 2"><g id="Layer_1-2" data-name="Layer 1"><path class="cls-1" d="M26.35,73.51,19.16,93.26H0L33,9.48H52.06L85,93.26H65.85L58.66,73.51ZM42.53,30.45,32.31,58H52.7Z"/><path class="cls-1" d="M96.94,93.26V9.48h35.93q11.39,0,18.84,6.66t7.45,15.48a21.23,21.23,0,0,1-.94,6.34,16.78,16.78,0,0,1-2.4,5,29.77,29.77,0,0,1-2.89,3.42,14.67,14.67,0,0,1-2.37,2l-1,.58q.58.23,1.49.67a28.23,28.23,0,0,1,3.3,2.16,25.42,25.42,0,0,1,4.21,3.77,20.28,20.28,0,0,1,3.3,5.58,19.28,19.28,0,0,1,1.49,7.57q0,10-8,17.29t-20.45,7.24Zm18-68.83v18h16.71a9.73,9.73,0,0,0,7-2.45,8.62,8.62,0,0,0,2.57-6.54,8.62,8.62,0,0,0-2.57-6.54,9.73,9.73,0,0,0-7-2.45ZM134,78.3a11.33,11.33,0,0,0,8.15-3.1,10.69,10.69,0,0,0,0-15.34A11.28,11.28,0,0,0,134,56.74H114.93V78.3Z"/><path class="cls-1" d="M180.09,9.48h18V93.26h-18Z"/><path class="cls-1" d="M250.67,9.48q18.29,0,30.67,12.15a40.06,40.06,0,0,1,12.39,29.74,40.06,40.06,0,0,1-12.39,29.74Q269,93.26,250.67,93.26H219.53V9.48ZM237.53,25.66V77.13h13.15a24,24,0,0,0,17.76-7.48,25,25,0,0,0,7.36-18.26,25.36,25.36,0,0,0-7.19-18.26,23.85,23.85,0,0,0-17.94-7.48Z"/><path class="cls-1" d="M345.08,67.66V49.08H311V33h34.06V16.18H301.44V0h61.64V83.78H300.21V67.66Z"/></g></g></svg>