<svg xmlns="http://www.w3.org/2000/svg" viewBox="0 0 369.85 99.67"><defs><style>.cls-1{fill:#fff;}</style></defs><title>amidst_logo</title><g id="Layer_2" data-name="Layer 2"><g id="Layer_1-2" data-name="Layer 1"><path class="cls-1" d="M27.57,36.47q7.77,0,11.17,3.75t3.39,12.09V85a7.75,7.75,0,0,0,1.56,4.95,5.1,5.1,0,0,0,4.24,2,9.6,9.6,0,0,0,4.95-2c.38,0,.57.38.57,1.13a5.54,5.54,0,0,1-.71,3q-5.8,5-9.9,4.95a9.19,9.19,0,0,1-6.22-2.69,14.89,14.89,0,0,1-4.1-5.65,4.39,4.39,0,0,0-1.06.92A26.05,26.05,0,0,1,29,93.66a43.69,43.69,0,0,1-3.61,2.47,20.54,20.54,0,0,1-4.81,2.12A18.89,18.89,0,0,1,15,99.1,16.42,16.42,0,0,1,4.24,95.64Q0,92.18,0,85.25a11.74,11.74,0,0,1,1.56-5.87,16.12,16.12,0,0,1,3.68-4.52A30.33,30.33,0,0,1,11,71.25a56.78,56.78,0,0,1,6.29-2.76q2.62-.92,6.86-2.33T30.11,64a2,2,0,0,0,1.27-2.12V51.32a8.8,8.8,0,0,0-2.83-7,10,10,0,0,0-6.79-2.47,9.48,9.48,0,0,0-7.07,2.9,10.36,10.36,0,0,0-2.83,7.56q0,5-5.8,4.95-4,0-5.51-2.69,0-6.08,8.91-12.09T27.57,36.47ZM14.28,89a9.25,9.25,0,0,0,6.22,2,13.16,13.16,0,0,0,7.35-2.33q3.53-2.33,3.53-4.74V69.41a52.41,52.41,0,0,1-5.51,2Q21.49,72.81,19,73.87a14.68,14.68,0,0,0-4.81,3.53,8.09,8.09,0,0,0-2.33,5.73A7.28,7.28,0,0,0,14.28,89Z"/><path class="cls-1" d="M99.53,36.19a14.44,14.44,0,0,1,9.4,3,15.92,15.92,0,0,1,5.16,7q10.6-10,21.91-10,17.81,0,17.81,27.14V79a53.26,53.26,0,0,0,1.13,12.58q.28,1,3.68,1.91a21.46,21.46,0,0,0,4.81.92q.42,0,.57,1.7a5.88,5.88,0,0,1-.14,2.4q-14.14-.71-15.13-.71t-15.41.71a3.41,3.41,0,0,1-.57-2.33q0-1.77.57-1.77a20.65,20.65,0,0,0,5-.92q3.32-.92,3.61-1.91a38.66,38.66,0,0,0,1-9v-16q0-21.77-14.28-21.77a14.08,14.08,0,0,0-9,3q-3.82,3-3.82,5l.14.57v.71a69.26,69.26,0,0,1,.57,10.18v16a46.39,46.39,0,0,0,1.13,11.31q.28,1,3.68,1.91a21.46,21.46,0,0,0,4.81.92q.42,0,.57,1.7a5.88,5.88,0,0,1-.14,2.4q-14.14-.71-15.13-.71T96,98.54a3.41,3.41,0,0,1-.57-2.33q0-1.77.57-1.77a20.65,20.65,0,0,0,5-.92q3.32-.92,3.61-1.91a42.84,42.84,0,0,0,1-9.9V67.29q0-22.48-13.57-22.48A14.4,14.4,0,0,0,83.48,48q-4.31,3.18-4.31,6.15V79A53.26,53.26,0,0,0,80.3,91.61q.28,1,3.68,1.91a21.46,21.46,0,0,0,4.81.92q.42,0,.57,1.7a5.88,5.88,0,0,1-.14,2.4q-14.14-.71-15.13-.71t-15.41.71a3.41,3.41,0,0,1-.57-2.33q0-1.77.57-1.77a20.65,20.65,0,0,0,5-.92q3.32-.92,3.61-1.91a42.84,42.84,0,0,0,1-9.9V55q0-5.51-2-7.63A7.22,7.22,0,0,0,62.84,45a11.93,11.93,0,0,0-3.39-.64c-.9,0-1.34-.09-1.34-.28q0-3.39.85-3.53,15-2.26,19.51-3.68a4.29,4.29,0,0,0,.71-.14c.38,0,.61.4.71,1.2a5.49,5.49,0,0,1,0,1.77,45.91,45.91,0,0,0-.57,5.65c0,.38.09.57.28.57s.23-.09.42-.28a36,36,0,0,1,8.84-6.43A22.36,22.36,0,0,1,99.53,36.19Z"/><path class="cls-1" d="M193,79a53.26,53.26,0,0,0,1.13,12.58q.28,1,3.68,1.91a21.46,21.46,0,0,0,4.81.92q.42,0,.57,1.7a5.88,5.88,0,0,1-.14,2.4q-14.14-.71-15.13-.71t-15.41.71a3.41,3.41,0,0,1-.57-2.33q0-1.77.57-1.77a20.65,20.65,0,0,0,5-.92q3.32-.92,3.61-1.91a42.84,42.84,0,0,0,1-9.9V55q0-5.51-2-7.63A7.22,7.22,0,0,0,176.65,45a11.93,11.93,0,0,0-3.39-.64c-.9,0-1.34-.09-1.34-.28q0-3.39.85-3.53,15-2.26,19.51-3.68l.28-.14H193c.38,0,.61.4.71,1.2a5.49,5.49,0,0,1,0,1.77A82.46,82.46,0,0,0,193,49.9ZM181.45,19.3a6.82,6.82,0,0,1-2-5,7.07,7.07,0,1,1,14.14,0,7.1,7.1,0,0,1-12.09,5Z"/><path class="cls-1" d="M242.31,35.91a22.29,22.29,0,0,1,10.6,2.4c.66,0,1-.85,1-2.54V20.5a46.11,46.11,0,0,0-.85-9q-.71-2.26-7.21-2.26h-1.27c-.57,0-.85-.52-.85-1.56,0-1.51.28-2.26.85-2.26q4.24-.42,7.85-1.13a44,44,0,0,0,5.65-1.41q2-.71,3.46-1.34A22.19,22.19,0,0,0,263.66.42l.57-.42h.28a1.52,1.52,0,0,1,1.13.78,3.89,3.89,0,0,1,.71,1.48,39,39,0,0,0-1.56,12.3V78.18a53.61,53.61,0,0,0,.85,10.74,2.52,2.52,0,0,0,1.56,1.56,8.56,8.56,0,0,0,2.62.71,25,25,0,0,0,2.62.14l1.27.14q.42.14.42,1.7,0,2.12-.85,2.12-2.12.14-4.74.57t-4.95.92q-2.33.5-4.31,1t-3.25.92l-1.27.28q-.85,0-.85-2.4v-1.7c0-.57-.19-.75-.57-.57q-7.92,4.38-15,4.38a26,26,0,0,1-19.65-8.34,27.94,27.94,0,0,1-7.92-19.93,34.28,34.28,0,0,1,9.68-24.1Q230.15,35.91,242.31,35.91Zm-1.84,5.94q-8.2,0-12.86,7.35a31.24,31.24,0,0,0-4.67,17.11,29.53,29.53,0,0,0,5.51,17.88q5.51,7.56,15.27,7.56,4.8,0,7.49-2.19a7.19,7.19,0,0,0,2.69-5.87V50q0-3-3.18-5.58T240.48,41.85Z"/><path class="cls-1" d="M302.68,36.33a50.45,50.45,0,0,1,7.85.78l6.57,1.06a82.19,82.19,0,0,1,1.7,14.42c0,.47-.61.71-1.84.71s-2-.33-2.12-1a14.76,14.76,0,0,0-4-7.49,10.15,10.15,0,0,0-7.56-3.53q-10.18,0-10.18,8.34a11.38,11.38,0,0,0,.57,3.75,7.7,7.7,0,0,0,2.19,3.11q1.62,1.48,2.47,2.12A41.61,41.61,0,0,0,302,60.86q2.9,1.63,3.61,2T309,64.82q2.76,1.63,3.89,2.33t3.32,2.4a16.65,16.65,0,0,1,3.18,3A18.88,18.88,0,0,1,321.27,76a10.1,10.1,0,0,1,.92,4.17,17.62,17.62,0,0,1-6.5,13.93,22.69,22.69,0,0,1-15.27,5.58,38.91,38.91,0,0,1-5.44-.35,59.33,59.33,0,0,1-5.87-1.2q-3.39-.85-5.23-1.13a39.82,39.82,0,0,1-1.63-7.07,50.5,50.5,0,0,1-.78-7.63,3.43,3.43,0,0,1,1.7-.85q2.12,0,2.26.85.85,4.24,5.3,8.27a14.17,14.17,0,0,0,9.68,4,11,11,0,0,0,7.42-2.47,8.87,8.87,0,0,0,2.9-7.14,10.76,10.76,0,0,0-.92-4.45,9.92,9.92,0,0,0-3-3.68A36.54,36.54,0,0,0,303,74.15q-1.77-1.06-5-2.76t-4.81-2.69q-11-6.36-11-15.13a15.08,15.08,0,0,1,6.15-12.44A22.64,22.64,0,0,1,302.68,36.33Z"/><path class="cls-1" d="M337.74,45.24h-8.2q-.71,0-.71-3a1.88,1.88,0,0,1,.14-1q4.1-1.83,8.91-7.49a38,38,0,0,0,3-4.17q1.48-2.33,2.47-4a13.39,13.39,0,0,0,1-1.84q4.24,0,4.24.71v14q3.68,0,11.17.07l7.92.07q1.13,0,1.13,1.27a12.06,12.06,0,0,1-1.41,5.37h-18.8V79.88q0,5.65,2.9,9a9.47,9.47,0,0,0,7.56,3.39,17.17,17.17,0,0,0,8.77-2.69q.42-.28,1.27,1.2c.57,1,.8,1.53.71,1.63a23.13,23.13,0,0,1-6.5,4.45,20,20,0,0,1-9,2.19,16.15,16.15,0,0,1-11.8-4.67q-4.74-4.67-4.74-13.29Z"/></g></g></svg>