<svg xmlns="http://www.w3.org/2000/svg" viewBox="0 0 1461 2806"><defs><style>.cls-1,.cls-13,.cls-18,.cls-19,.cls-2,.cls-20,.cls-3,.cls-7,.cls-9{isolation:isolate;}.cls-2{font-size:6.39px;letter-spacing:-0.05em;}.cls-13,.cls-18,.cls-19,.cls-2,.cls-20,.cls-3,.cls-31,.cls-36,.cls-7{font-family:SFProDisplay-Regular, SF Pro Display;}.cls-13,.cls-18,.cls-19,.cls-3,.cls-7{font-size:9.3px;}.cls-3,.cls-8{letter-spacing:-0.01em;}.cls-4{letter-spacing:-0.02em;}.cls-5,.cls-7{letter-spacing:-0.01em;}.cls-6{letter-spacing:-0.02em;}.cls-9{font-size:18.91px;letter-spacing:0.01em;}.cls-28,.cls-9{font-family:SFProDisplay-Semibold, SF Pro Display;}.cls-28,.cls-33,.cls-37,.cls-38,.cls-9{font-weight:700;}.cls-10{letter-spacing:0.01em;}.cls-11{letter-spacing:-0.03em;}.cls-12,.cls-18{letter-spacing:-0.01em;}.cls-14{letter-spacing:-0.01em;}.cls-15,.cls-19{letter-spacing:-0.02em;}.cls-16{letter-spacing:-0.02em;}.cls-17{letter-spacing:0em;}.cls-20{font-size:16.28px;}.cls-21{letter-spacing:0em;}.cls-22{letter-spacing:-0.01em;}.cls-23{letter-spacing:0.01em;}.cls-24{fill:#181818;}.cls-25{fill:#fd4d4d;}.cls-26,.cls-37{font-size:36px;}.cls-26,.cls-56{font-family:Barlow-Light, Barlow;}.cls-27{letter-spacing:0em;}.cls-28{font-size:72px;}.cls-29{letter-spacing:-0.02em;}.cls-30{letter-spacing:0em;}.cls-31{font-size:48px;}.cls-32{letter-spacing:-0.02em;}.cls-33,.cls-36{font-size:60px;}.cls-33,.cls-37,.cls-38{font-family:SFProDisplay-Bold, SF Pro Display;}.cls-34{letter-spacing:-0.02em;}.cls-35{letter-spacing:0em;}.cls-38,.cls-40,.cls-54{font-size:24px;}.cls-39{letter-spacing:-0.01em;}.cls-40{font-family:SFProDisplay-Medium, SF Pro Display;}.cls-41{letter-spacing:-0.02em;}.cls-42{letter-spacing:-0.02em;}.cls-43{font-size:21px;font-family:SFProDisplay-Light, SF Pro Display;}.cls-44{letter-spacing:0.01em;}.cls-45{letter-spacing:-0.03em;}.cls-46{letter-spacing:0em;}.cls-47{letter-spacing:0em;}.cls-48{letter-spacing:-0.03em;}.cls-49{letter-spacing:0em;}.cls-50{letter-spacing:-0.01em;}.cls-51{fill:none;}.cls-52{fill:#f2f2f2;}.cls-53{fill:#ca3d3d;}.cls-54{font-family:Barlow-Medium, Barlow;}.cls-55{letter-spacing:-0.01em;}.cls-57{letter-spacing:-0.03em;}.cls-58{letter-spacing:-0.03em;}.cls-59{letter-spacing:-0.01em;}.cls-60{letter-spacing:-0.03em;}.cls-61{letter-spacing:0em;}.cls-62{letter-spacing:0em;}.cls-63{letter-spacing:-0.04em;}.cls-64{letter-spacing:-0.02em;}.cls-65{letter-spacing:0em;}.cls-66{letter-spacing:0em;}.cls-67{letter-spacing:-0.02em;}.cls-68{letter-spacing:0em;}.cls-69{letter-spacing:0em;}.cls-70{letter-spacing:0em;}.cls-71{letter-spacing:0.02em;}.cls-72{letter-spacing:-0.01em;}.cls-73{letter-spacing:0em;}.cls-74{letter-spacing:0em;}</style></defs><title>Design_Page</title><g id="Layer_2" data-name="Layer 2"><g id="Layer_1-2" data-name="Layer 1"><g id="Group_1" data-name="Group 1"><g id="Header_and_Footer" data-name="Header and Footer"><g id="Copyright_2016-201" data-name="Copyright 2016-201" class="cls-1"><text class="cls-2" transform="translate(146.4 2677.79)">.</text></g></g><g id="Labels"><g id="_87px_87px_29pt_" data-name=" 87px 87px 29pt " class="cls-1"><text class="cls-3" transform="translate(1283.46 1817.48)">87<tspan class="cls-4" x="10.55" y="0">p</tspan><tspan class="cls-5" x="15.51" y="0">x × 87</tspan><tspan class="cls-4" x="39.64" y="0">p</tspan><tspan class="cls-5" x="44.6" y="0">x</tspan></text><text class="cls-3" transform="translate(1283.46 1828.52)">(29pt × 29pt @3x)</text></g><g id="_60px_60px_20pt_" data-name=" 60px 60px 20pt " class="cls-1"><text class="cls-3" transform="translate(1376.47 1817.48)">60<tspan class="cls-6" x="11.1" y="0">p</tspan><tspan x="16.06" y="0">x × 60</tspan><tspan class="cls-6" x="40.74" y="0">p</tspan><tspan x="45.7" y="0">x</tspan></text><text class="cls-3" transform="translate(1376.47 1828.52)">(20pt × 20pt @3x)</text></g><g id="_120px_120px_40pt" data-name=" 120px 120px 40pt" class="cls-1"><text class="cls-7" transform="translate(1178.83 1817.48)">120<tspan class="cls-6" x="14.86" y="0">p</tspan><tspan class="cls-8" x="19.82" y="0">x × 120</tspan><tspan class="cls-4" x="48.26" y="0">p</tspan><tspan x="53.23" y="0">x</tspan></text><text class="cls-3" transform="translate(1178.83 1828.52)">(40pt × 40pt @3x)</text></g><g id="_180px_180px_60pt" data-name=" 180px 180px 60pt" class="cls-1"><text class="cls-7" transform="translate(1039.32 1817.48)">180<tspan class="cls-6" x="15.17" y="0">p</tspan><tspan class="cls-8" x="20.13" y="0">x × 180</tspan><tspan class="cls-6" x="48.88" y="0">p</tspan><tspan class="cls-8" x="53.84" y="0">x</tspan></text><text class="cls-3" transform="translate(1039.32 1828.52)">(60pt × 60pt @3x)</text></g><g id="_3x" data-name=" 3x" class="cls-1"><text class="cls-9" transform="translate(1039.9 1777.95)">@<tspan class="cls-10" x="16.8" y="0">3</tspan><tspan x="28.54" y="0">x</tspan></text></g><g id="_10241024_px" data-name=" 10241024 px" class="cls-1"><text class="cls-3" transform="translate(5.2 2026.74)">1<tspan class="cls-4" x="4.07" y="0">0</tspan><tspan class="cls-11" x="9.56" y="0">2</tspan><tspan class="cls-12" x="14.54" y="0">4 x 1</tspan><tspan class="cls-4" x="32.19" y="0">0</tspan><tspan class="cls-12" x="37.69" y="0">2</tspan></text><text class="cls-13" transform="translate(53.38 2026.74)">4 <tspan class="cls-14" x="7.53" y="0">p</tspan><tspan x="12.55" y="0">x</tspan></text></g><g id="_58px_58px_29pt_" data-name=" 58px 58px 29pt " class="cls-1"><text class="cls-3" transform="translate(824.82 1817.48)">58<tspan class="cls-6" x="10.9" y="0">p</tspan><tspan x="15.86" y="0">x × 58</tspan><tspan class="cls-6" x="40.35" y="0">p</tspan><tspan x="45.31" y="0">x</tspan></text><text class="cls-3" transform="translate(824.82 1828.52)">(29pt × 29pt @2x)</text></g><g id="_40px_40px_20pt_" data-name=" 40px 40px 20pt " class="cls-1"><text class="cls-3" transform="translate(917.83 1817.48)">40<tspan class="cls-4" x="11.16" y="0">p</tspan><tspan x="16.12" y="0">x × 40</tspan><tspan class="cls-4" x="40.86" y="0">p</tspan><tspan x="45.82" y="0">x</tspan></text><text class="cls-3" transform="translate(917.83 1828.52)">(20pt × 20pt @2x)</text></g><g id="_80px_80px_40pt_" data-name=" 80px 80px 40pt " class="cls-1"><text class="cls-3" transform="translate(731.82 1817.48)">80<tspan class="cls-4" x="11.1" y="0">p</tspan><tspan x="16.06" y="0">x × 80</tspan><tspan class="cls-6" x="40.75" y="0">p</tspan><tspan x="45.71" y="0">x</tspan></text><text class="cls-3" transform="translate(731.82 1828.52)">(40pt × 40pt @2x)</text></g><g id="_120px_120px_60pt" data-name=" 120px 120px 60pt" class="cls-1"><text class="cls-3" transform="translate(627.18 1817.48)">120<tspan class="cls-4" x="14.86" y="0">p</tspan><tspan x="19.82" y="0">x × 120</tspan><tspan class="cls-4" x="48.26" y="0">p</tspan><tspan x="53.23" y="0">x</tspan></text><text class="cls-3" transform="translate(627.18 1828.52)">(60pt × 60pt @2x)</text></g><g id="_152px_152px_76pt" data-name=" 152px 152px 76pt" class="cls-1"><text class="cls-3" transform="translate(499.3 1817.48)">152<tspan class="cls-4" x="14.66" y="0">p</tspan><tspan x="19.62" y="0">x × 152</tspan><tspan class="cls-4" x="47.87" y="0">p</tspan><tspan x="52.83" y="0">x</tspan></text><text class="cls-3" transform="translate(499.3 1828.52)">(<tspan class="cls-4" x="2.94" y="0">7</tspan><tspan class="cls-12" x="7.88" y="0">6pt × </tspan><tspan class="cls-15" x="30.47" y="0">7</tspan><tspan class="cls-12" x="35.41" y="0">6pt @2x)</tspan></text></g><g id="_167px_167px_83.5p" data-name=" 167px 167px 83.5p" class="cls-1"><text class="cls-3" transform="translate(365.6 1817.48)">167<tspan class="cls-4" x="14.61" y="0">p</tspan><tspan class="cls-12" x="19.57" y="0">x × 167</tspan><tspan class="cls-4" x="47.77" y="0">p</tspan><tspan x="52.73" y="0">x</tspan></text><text class="cls-3" transform="translate(365.6 1828.52)">(8<tspan class="cls-16" x="8.46" y="0">3</tspan><tspan class="cls-17" x="13.77" y="0">.</tspan><tspan x="16.17" y="0">5pt × 8</tspan><tspan class="cls-16" x="44.14" y="0">3</tspan><tspan class="cls-17" x="49.45" y="0">.</tspan><tspan x="51.85" y="0">5pt @2x)</tspan></text></g><g id="_2x" data-name=" 2x" class="cls-1"><text class="cls-9" transform="translate(365.6 1777.95)">@2x</text></g><g id="_2929_pt_2929_p" data-name=" 2929 pt 2929 p" class="cls-1"><text class="cls-18" transform="translate(220.28 1817.48)">29 x 2</text><text class="cls-13" transform="translate(247.68 1817.48)">9 pt</text><text class="cls-13" transform="translate(220.28 1828.52)">29 x 29 <tspan class="cls-14" x="31.75" y="0">p</tspan><tspan x="36.77" y="0">x</tspan></text></g><g id="_2020_pt_2020_p" data-name=" 2020 pt 2020 p" class="cls-1"><text class="cls-18" transform="translate(278.41 1817.48)">20 x 2</text><text class="cls-13" transform="translate(305.77 1817.48)">0 pt</text><text class="cls-13" transform="translate(278.41 1828.52)">20 x 20 <tspan class="cls-14" x="31.89" y="0">p</tspan><tspan x="36.91" y="0">x</tspan></text></g><g id="_4040_pt_4040_p" data-name=" 4040 pt 4040 p" class="cls-1"><text class="cls-18" transform="translate(156.33 1817.48)">40 x 4</text><text class="cls-13" transform="translate(184.47 1817.48)">0 pt</text><text class="cls-13" transform="translate(156.33 1828.52)">40 x 40 <tspan class="cls-14" x="32.62" y="0">p</tspan><tspan x="37.64" y="0">x</tspan></text></g><g id="_6060_pt_6060_p" data-name=" 6060 pt 6060 p" class="cls-1"><text class="cls-18" transform="translate(86.58 1817.48)">60 x 6</text><text class="cls-13" transform="translate(114.61 1817.48)">0 pt</text><text class="cls-13" transform="translate(86.58 1828.52)">60 x 60 <tspan class="cls-14" x="32.5" y="0">p</tspan><tspan x="37.52" y="0">x</tspan></text></g><g id="_7676_pt_7676_p" data-name=" 7676 pt 7676 p" class="cls-1"><text class="cls-19" transform="translate(5.2 1817.48)">7<tspan class="cls-8" x="4.94" y="0">6 x </tspan><tspan x="18.46" y="0">7</tspan><tspan class="cls-12" x="23.4" y="0">6 pt</tspan></text><text class="cls-19" transform="translate(5.2 1828.52)">7<tspan class="cls-8" x="4.94" y="0">6 x 7</tspan></text><text class="cls-13" transform="translate(31.81 1828.52)">6 <tspan class="cls-14" x="7.48" y="0">p</tspan><tspan x="12.49" y="0">x</tspan></text></g><g id="_1x" data-name=" 1x" class="cls-1"><text class="cls-9" transform="translate(5.2 1777.95)">@1</text><text class="cls-20" transform="translate(28.02 1777.95)">x</text></g><g id="App_Store" data-name="App Store" class="cls-1"><text class="cls-9" transform="translate(5.2 1987.21)">App S<tspan class="cls-21" x="50.69" y="0">t</tspan><tspan x="57" y="0">o</tspan><tspan class="cls-22" x="67.7" y="0">r</tspan><tspan class="cls-23" x="73.98" y="0">e</tspan></text></g></g></g><rect class="cls-24" x="5" y="2041.45" width="595.42" height="595.42" rx="175.82" ry="175.82"/><path class="cls-25" d="M409.89,2334.34c2.27-13.91-19.5-29.5-19.5-29.5l.07-88.24a32.16,32.16,0,0,0-32.14-32.14,31.65,31.65,0,0,0-13.42,3v.38a30.41,30.41,0,0,0-60.69-2.89,29.87,29.87,0,0,0-12.84-2.89,30.47,30.47,0,0,0-30.44,30.44v15.38a31.3,31.3,0,0,0-13.36-2.91,32.16,32.16,0,0,0-32.14,32.14l-.06,156.65a1.79,1.79,0,0,0,.06.58v.13a107.07,107.07,0,0,0,214.13.06,8.72,8.72,0,0,0,.32-2.27Zm-19.5,80.21a87.7,87.7,0,1,1-175.4,0,1.77,1.77,0,0,0-.06-.58l.07-157.49a13,13,0,0,1,17.13-12.35c5.41,1.7,8.8,7.11,8.8,12.79v60a9.78,9.78,0,0,0,12.21,9.51c4.41-1.09,7.29-5.39,7.29-9.94V2213.4c0-5.69,3.39-11.13,8.81-12.86a13,13,0,0,1,17.18,12.33V2307a9.81,9.81,0,0,0,13.68,9,9.43,9.43,0,0,0,5.82-8.89v-119.3s2.92-12.87,10-12.87,9.49,12.87,9.49,12.87v119.3a9.43,9.43,0,0,0,5.82,8.89,9.81,9.81,0,0,0,13.68-9v-90.52c0-5.7,3.39-11.14,8.81-12.86a13,13,0,0,1,17.18,12.27v80.2a29.11,29.11,0,0,1-4.84,16.07l-11,16.68a21.7,21.7,0,0,0-3.61,12v70a2.4,2.4,0,0,0,.07.71,13.85,13.85,0,0,1-13.75,13.77,9.82,9.82,0,0,0-9.64,8.45,9.65,9.65,0,0,0,9.54,10.83,33,33,0,0,0,33.06-31.79.22.22,0,0,0,0-.28,7,7,0,0,0,.21-1.7v-76.57s3.38-12.87,10.46-12.87,9,12.93,9,12.93l.38,77.71A7.72,7.72,0,0,0,390.39,2414.55Z"/><rect class="cls-24" x="365.64" y="1843.35" width="96.35" height="96.35" rx="28.45" ry="28.45"/><path class="cls-25" d="M431.16,1890.75c.37-2.25-3.15-4.77-3.15-4.77V1871.7a5.2,5.2,0,0,0-5.2-5.2,5.12,5.12,0,0,0-2.17.48v.06a4.92,4.92,0,0,0-9.82-.47,4.83,4.83,0,0,0-2.08-.47,4.93,4.93,0,0,0-4.93,4.93v2.49a5.07,5.07,0,0,0-2.16-.47,5.2,5.2,0,0,0-5.2,5.2v25.35a.29.29,0,0,0,0,.09v0a17.33,17.33,0,0,0,34.65,0,1.41,1.41,0,0,0,.05-.37Zm-3.15,13a14.19,14.19,0,1,1-28.38,0,.29.29,0,0,0,0-.09v-25.48a2.11,2.11,0,0,1,2.77-2,2.14,2.14,0,0,1,1.42,2.07v9.71a1.58,1.58,0,0,0,2,1.54,1.63,1.63,0,0,0,1.18-1.61v-16.68a2.15,2.15,0,0,1,1.43-2.08,2.11,2.11,0,0,1,2.78,2v15.24a1.59,1.59,0,0,0,2.21,1.46,1.53,1.53,0,0,0,.94-1.44V1867s.47-2.08,1.62-2.08,1.54,2.08,1.54,2.08v19.3a1.53,1.53,0,0,0,.94,1.44,1.59,1.59,0,0,0,2.21-1.46v-14.65a2.16,2.16,0,0,1,1.43-2.08,2.11,2.11,0,0,1,2.78,2v13a4.71,4.71,0,0,1-.78,2.6l-1.79,2.7a3.51,3.51,0,0,0-.58,1.94v11.33a.39.39,0,0,0,0,.11,2.24,2.24,0,0,1-2.22,2.23,1.59,1.59,0,0,0-1.56,1.37,1.56,1.56,0,0,0,1.54,1.75,5.35,5.35,0,0,0,5.35-5.14,0,0,0,0,0,0,0,1.13,1.13,0,0,0,0-.27v-12.39s.55-2.08,1.69-2.08,1.46,2.09,1.46,2.09l.06,12.58A1.25,1.25,0,0,0,428,1903.73Z"/><rect class="cls-24" x="1038.95" y="1843.35" width="105.36" height="105.36" rx="31.11" ry="31.11"/><path class="cls-25" d="M1110.59,1895.18c.4-2.46-3.45-5.22-3.45-5.22v-15.61a5.69,5.69,0,0,0-5.69-5.69,5.6,5.6,0,0,0-2.38.53v.07a5.38,5.38,0,0,0-10.74-.51,5.29,5.29,0,0,0-2.27-.51,5.39,5.39,0,0,0-5.39,5.39v2.72a5.54,5.54,0,0,0-2.36-.52,5.69,5.69,0,0,0-5.69,5.69v27.72a.32.32,0,0,0,0,.1v0a18.95,18.95,0,0,0,37.89,0,1.54,1.54,0,0,0,.06-.4Zm-3.45,14.19a15.52,15.52,0,1,1-31,0,.31.31,0,0,0,0-.1V1881.4a2.31,2.31,0,0,1,3-2.19,2.34,2.34,0,0,1,1.56,2.26v10.62a1.73,1.73,0,0,0,2.16,1.68,1.78,1.78,0,0,0,1.29-1.76v-18.24a2.36,2.36,0,0,1,1.56-2.28,2.31,2.31,0,0,1,3,2.18v16.66a1.74,1.74,0,0,0,2.42,1.59,1.67,1.67,0,0,0,1-1.57v-21.11s.52-2.28,1.77-2.28,1.68,2.28,1.68,2.28v21.11a1.67,1.67,0,0,0,1,1.57,1.74,1.74,0,0,0,2.42-1.59v-16a2.36,2.36,0,0,1,1.56-2.28,2.31,2.31,0,0,1,3,2.17v14.19a5.15,5.15,0,0,1-.86,2.84l-2,3a3.84,3.84,0,0,0-.64,2.12v12.39a.42.42,0,0,0,0,.12,2.45,2.45,0,0,1-2.43,2.44,1.74,1.74,0,0,0-1.71,1.5,1.71,1.71,0,0,0,1.69,1.92,5.85,5.85,0,0,0,5.85-5.62,0,0,0,0,0,0-.05,1.23,1.23,0,0,0,0-.3v-13.55s.6-2.28,1.85-2.28,1.6,2.29,1.6,2.29l.07,13.75A1.37,1.37,0,0,0,1107.14,1909.37Z"/><rect class="cls-24" x="1179.42" y="1843.35" width="70.24" height="70.24" rx="20.74" ry="20.74"/><path class="cls-25" d="M1227.19,1877.9c.27-1.64-2.3-3.48-2.3-3.48V1864a3.79,3.79,0,0,0-3.79-3.79,3.73,3.73,0,0,0-1.58.35v0a3.59,3.59,0,0,0-7.16-.34,3.52,3.52,0,0,0-1.52-.34,3.59,3.59,0,0,0-3.59,3.59v1.81a3.69,3.69,0,0,0-1.58-.34,3.79,3.79,0,0,0-3.79,3.79v18.48a.21.21,0,0,0,0,.07v0a12.63,12.63,0,0,0,25.26,0,1,1,0,0,0,0-.27Zm-2.3,9.46a10.35,10.35,0,1,1-20.69,0,.21.21,0,0,0,0-.07v-18.58a1.54,1.54,0,0,1,2-1.46,1.56,1.56,0,0,1,1,1.51v7.08a1.15,1.15,0,0,0,1.44,1.12,1.19,1.19,0,0,0,.86-1.17v-12.16a1.57,1.57,0,0,1,1-1.52,1.54,1.54,0,0,1,2,1.46v11.11a1.16,1.16,0,0,0,1.61,1.06,1.11,1.11,0,0,0,.69-1v-14.07s.34-1.52,1.18-1.52,1.12,1.52,1.12,1.52v14.07a1.11,1.11,0,0,0,.69,1,1.16,1.16,0,0,0,1.61-1.06V1864a1.57,1.57,0,0,1,1-1.52,1.54,1.54,0,0,1,2,1.45v9.46a3.43,3.43,0,0,1-.57,1.9l-1.3,2a2.56,2.56,0,0,0-.43,1.41v8.26a.28.28,0,0,0,0,.08,1.63,1.63,0,0,1-1.62,1.62,1.16,1.16,0,0,0-1.14,1,1.14,1.14,0,0,0,1.13,1.28,3.9,3.9,0,0,0,3.9-3.75,0,0,0,0,0,0,0,.82.82,0,0,0,0-.2v-9s.4-1.52,1.23-1.52,1.07,1.53,1.07,1.53l0,9.17A.91.91,0,0,0,1224.89,1887.36Z"/><rect class="cls-24" x="1283.88" y="1843.35" width="50.43" height="50.43" rx="14.89" ry="14.89"/><path class="cls-25" d="M1318.17,1868.16c.19-1.18-1.65-2.5-1.65-2.5v-7.47a2.72,2.72,0,0,0-2.72-2.72,2.68,2.68,0,0,0-1.14.25v0a2.58,2.58,0,0,0-5.14-.24,2.53,2.53,0,0,0-1.09-.24,2.58,2.58,0,0,0-2.58,2.58v1.3a2.65,2.65,0,0,0-1.13-.25,2.72,2.72,0,0,0-2.72,2.72v13.27a.15.15,0,0,0,0,0h0a9.07,9.07,0,0,0,18.14,0,.74.74,0,0,0,0-.19Zm-1.65,6.79a7.43,7.43,0,1,1-14.86,0,.15.15,0,0,0,0,0v-13.34a1.1,1.1,0,0,1,1.45-1,1.12,1.12,0,0,1,.75,1.08v5.08a.83.83,0,0,0,1,.81.85.85,0,0,0,.62-.84v-8.73a1.13,1.13,0,0,1,.75-1.09,1.1,1.1,0,0,1,1.46,1v8a.83.83,0,0,0,1.16.76.8.8,0,0,0,.49-.75v-10.1s.25-1.09.85-1.09.8,1.09.8,1.09v10.1a.8.8,0,0,0,.49.75.83.83,0,0,0,1.16-.76v-7.67a1.13,1.13,0,0,1,.75-1.09,1.1,1.1,0,0,1,1.46,1v6.79a2.47,2.47,0,0,1-.41,1.36l-.94,1.41a1.84,1.84,0,0,0-.31,1v5.93a.2.2,0,0,0,0,.06,1.17,1.17,0,0,1-1.16,1.17.83.83,0,0,0-.82.72.82.82,0,0,0,.81.92,2.8,2.8,0,0,0,2.8-2.69,0,0,0,0,0,0,0,.59.59,0,0,0,0-.14v-6.48s.29-1.09.89-1.09.77,1.1.77,1.1l0,6.58A.65.65,0,0,0,1316.52,1875Z"/><rect class="cls-24" x="1376.63" y="1843.35" width="35.12" height="35.12" rx="10.37" ry="10.37"/><path class="cls-25" d="M1400.51,1860.63c.13-.82-1.15-1.74-1.15-1.74v-5.2a1.9,1.9,0,0,0-1.9-1.9,1.87,1.87,0,0,0-.79.18v0a1.79,1.79,0,0,0-3.58-.17,1.76,1.76,0,0,0-.76-.17,1.8,1.8,0,0,0-1.8,1.8v.91a1.85,1.85,0,0,0-.79-.17,1.9,1.9,0,0,0-1.9,1.9v9.24a.11.11,0,0,0,0,0h0a6.32,6.32,0,0,0,12.63,0,.51.51,0,0,0,0-.13Zm-1.15,4.73a5.17,5.17,0,1,1-10.35,0,.1.1,0,0,0,0,0V1856a.77.77,0,0,1,1-.73.78.78,0,0,1,.52.75v3.54a.58.58,0,0,0,.72.56.59.59,0,0,0,.43-.59v-6.08a.79.79,0,0,1,.52-.76.77.77,0,0,1,1,.73V1859a.58.58,0,0,0,.81.53.56.56,0,0,0,.34-.52v-7s.17-.76.59-.76.56.76.56.76v7a.56.56,0,0,0,.34.52.58.58,0,0,0,.81-.53v-5.34a.79.79,0,0,1,.52-.76.77.77,0,0,1,1,.72v4.73a1.72,1.72,0,0,1-.29.95l-.65,1a1.28,1.28,0,0,0-.21.71v4.13a.14.14,0,0,0,0,0,.82.82,0,0,1-.81.81.58.58,0,0,0-.57.5.57.57,0,0,0,.56.64,2,2,0,0,0,1.95-1.87,0,0,0,0,0,0,0,.41.41,0,0,0,0-.1v-4.52s.2-.76.62-.76.53.76.53.76l0,4.58A.46.46,0,0,0,1399.36,1865.36Z"/><rect class="cls-24" x="499.36" y="1843.35" width="88.25" height="88.25" rx="26.06" ry="26.06"/><path class="cls-25" d="M559.37,1886.76c.34-2.06-2.89-4.37-2.89-4.37v-13.08a4.77,4.77,0,0,0-4.76-4.76,4.69,4.69,0,0,0-2,.44v.06a4.51,4.51,0,0,0-9-.43,4.43,4.43,0,0,0-1.9-.43,4.52,4.52,0,0,0-4.51,4.51V1871a4.64,4.64,0,0,0-2-.43,4.77,4.77,0,0,0-4.76,4.76v23.22a.27.27,0,0,0,0,.09v0a15.87,15.87,0,0,0,31.74,0,1.29,1.29,0,0,0,0-.34Zm-2.89,11.89a13,13,0,1,1-26,0,.26.26,0,0,0,0-.09v-23.34a1.93,1.93,0,0,1,2.54-1.83,2,2,0,0,1,1.3,1.9v8.89a1.45,1.45,0,0,0,1.81,1.41,1.5,1.5,0,0,0,1.08-1.47v-15.28a2,2,0,0,1,1.31-1.91,1.93,1.93,0,0,1,2.55,1.83v14a1.45,1.45,0,0,0,2,1.33,1.4,1.4,0,0,0,.86-1.32v-17.68s.43-1.91,1.48-1.91,1.41,1.91,1.41,1.91v17.68a1.4,1.4,0,0,0,.86,1.32,1.45,1.45,0,0,0,2-1.33V1869.3a2,2,0,0,1,1.31-1.91,1.93,1.93,0,0,1,2.55,1.82v11.89a4.32,4.32,0,0,1-.72,2.38l-1.64,2.47a3.22,3.22,0,0,0-.53,1.78v10.38a.36.36,0,0,0,0,.1,2.05,2.05,0,0,1-2,2,1.46,1.46,0,0,0-1.43,1.25,1.43,1.43,0,0,0,1.41,1.61,4.9,4.9,0,0,0,4.9-4.71,0,0,0,0,0,0,0,1,1,0,0,0,0-.25v-11.35s.5-1.91,1.55-1.91,1.34,1.92,1.34,1.92l.06,11.52A1.14,1.14,0,0,0,556.48,1898.65Z"/><rect class="cls-24" x="627.23" y="1843.35" width="69.54" height="69.54" rx="20.53" ry="20.53"/><path class="cls-25" d="M674.51,1877.56c.27-1.62-2.28-3.45-2.28-3.45v-10.3a3.76,3.76,0,0,0-3.75-3.75,3.7,3.7,0,0,0-1.57.35v0a3.55,3.55,0,0,0-7.09-.34,3.49,3.49,0,0,0-1.5-.34,3.56,3.56,0,0,0-3.56,3.56v1.8a3.66,3.66,0,0,0-1.56-.34,3.76,3.76,0,0,0-3.75,3.75v18.29a.21.21,0,0,0,0,.07v0a12.5,12.5,0,0,0,25,0,1,1,0,0,0,0-.27Zm-2.28,9.37a10.24,10.24,0,1,1-20.48,0,.21.21,0,0,0,0-.07v-18.39a1.52,1.52,0,0,1,2-1.44,1.54,1.54,0,0,1,1,1.49v7a1.14,1.14,0,0,0,1.43,1.11,1.18,1.18,0,0,0,.85-1.16v-12a1.55,1.55,0,0,1,1-1.5,1.52,1.52,0,0,1,2,1.44v11a1.15,1.15,0,0,0,1.6,1.05,1.1,1.1,0,0,0,.68-1v-13.93s.34-1.5,1.17-1.5,1.11,1.5,1.11,1.5v13.93a1.1,1.1,0,0,0,.68,1,1.15,1.15,0,0,0,1.6-1.05V1863.8a1.56,1.56,0,0,1,1-1.5,1.52,1.52,0,0,1,2,1.43v9.37a3.4,3.4,0,0,1-.57,1.88l-1.29,1.95a2.53,2.53,0,0,0-.42,1.4v8.18a.28.28,0,0,0,0,.08,1.62,1.62,0,0,1-1.61,1.61,1.15,1.15,0,0,0-1.13,1,1.13,1.13,0,0,0,1.11,1.27,3.86,3.86,0,0,0,3.86-3.71,0,0,0,0,0,0,0,.81.81,0,0,0,0-.2v-8.94s.39-1.5,1.22-1.5,1.05,1.51,1.05,1.51l0,9.08A.9.9,0,0,0,672.24,1886.93Z"/><rect class="cls-24" x="731.68" y="1843.35" width="46.82" height="46.82" rx="13.83" ry="13.83"/><path class="cls-25" d="M763.53,1866.39c.18-1.09-1.53-2.32-1.53-2.32v-6.94a2.53,2.53,0,0,0-2.53-2.53,2.49,2.49,0,0,0-1.06.23v0a2.39,2.39,0,0,0-4.77-.23,2.35,2.35,0,0,0-1-.23,2.4,2.4,0,0,0-2.39,2.39V1858a2.46,2.46,0,0,0-1.05-.23,2.53,2.53,0,0,0-2.53,2.53v12.32a.14.14,0,0,0,0,0h0a8.42,8.42,0,0,0,16.84,0,.69.69,0,0,0,0-.18Zm-1.53,6.31a6.9,6.9,0,1,1-13.79,0,.14.14,0,0,0,0,0v-12.39a1,1,0,0,1,1.35-1,1,1,0,0,1,.69,1V1865a.77.77,0,0,0,1,.75.79.79,0,0,0,.57-.78v-8.11a1,1,0,0,1,.69-1,1,1,0,0,1,1.35,1v7.41a.77.77,0,0,0,1.08.71.74.74,0,0,0,.46-.7v-9.38s.23-1,.79-1,.75,1,.75,1v9.38a.74.74,0,0,0,.46.7.77.77,0,0,0,1.08-.71v-7.12a1,1,0,0,1,.69-1,1,1,0,0,1,1.35,1v6.31a2.29,2.29,0,0,1-.38,1.26l-.87,1.31a1.71,1.71,0,0,0-.28.94v5.51a.19.19,0,0,0,0,.06,1.09,1.09,0,0,1-1.08,1.08.77.77,0,0,0-.76.66.76.76,0,0,0,.75.85,2.6,2.6,0,0,0,2.6-2.5,0,0,0,0,0,0,0,.55.55,0,0,0,0-.13v-6s.27-1,.82-1,.71,1,.71,1l0,6.11A.61.61,0,0,0,762,1872.69Z"/><rect class="cls-24" x="824.43" y="1843.35" width="34.42" height="34.42" rx="10.16" ry="10.16"/><path class="cls-25" d="M847.84,1860.28c.13-.8-1.13-1.71-1.13-1.71v-5.1a1.86,1.86,0,0,0-1.86-1.86,1.83,1.83,0,0,0-.78.17v0a1.76,1.76,0,0,0-3.51-.17,1.73,1.73,0,0,0-.74-.17,1.76,1.76,0,0,0-1.76,1.76v.89a1.81,1.81,0,0,0-.77-.17,1.86,1.86,0,0,0-1.86,1.86v9.06a.1.1,0,0,0,0,0h0a6.19,6.19,0,0,0,12.38,0,.5.5,0,0,0,0-.13Zm-1.13,4.64a5.07,5.07,0,1,1-10.14,0,.1.1,0,0,0,0,0v-9.1a.75.75,0,0,1,1-.71.76.76,0,0,1,.51.74v3.47a.57.57,0,0,0,.71.55.58.58,0,0,0,.42-.57v-6a.77.77,0,0,1,.51-.74.75.75,0,0,1,1,.71v5.44a.57.57,0,0,0,.79.52.55.55,0,0,0,.34-.51v-6.9s.17-.74.58-.74.55.74.55.74v6.9a.55.55,0,0,0,.34.51.57.57,0,0,0,.79-.52v-5.23a.77.77,0,0,1,.51-.74.75.75,0,0,1,1,.71v4.64a1.68,1.68,0,0,1-.28.93l-.64,1a1.25,1.25,0,0,0-.21.69v4a.14.14,0,0,0,0,0,.8.8,0,0,1-.79.8.57.57,0,0,0-.56.49.56.56,0,0,0,.55.63,1.91,1.91,0,0,0,1.91-1.84,0,0,0,0,0,0,0,.4.4,0,0,0,0-.1v-4.43s.2-.74.6-.74.52.75.52.75l0,4.49A.45.45,0,0,0,846.71,1864.92Z"/><rect class="cls-24" x="918.26" y="1843.35" width="23.25" height="23.25" rx="6.87" ry="6.87"/><path class="cls-25" d="M934.08,1854.79c.09-.54-.76-1.15-.76-1.15v-3.45a1.26,1.26,0,0,0-1.25-1.25,1.24,1.24,0,0,0-.52.12h0a1.19,1.19,0,0,0-2.37-.11,1.17,1.17,0,0,0-.5-.11,1.19,1.19,0,0,0-1.19,1.19v.6a1.22,1.22,0,0,0-.52-.11,1.26,1.26,0,0,0-1.25,1.25v6.12a.07.07,0,0,0,0,0h0a4.18,4.18,0,0,0,8.36,0,.34.34,0,0,0,0-.09Zm-.76,3.13a3.42,3.42,0,1,1-6.85,0,.07.07,0,0,0,0,0v-6.15a.51.51,0,0,1,.67-.48.52.52,0,0,1,.34.5v2.34a.38.38,0,0,0,.48.37.39.39,0,0,0,.28-.39v-4a.52.52,0,0,1,.34-.5.51.51,0,0,1,.67.48v3.68a.38.38,0,0,0,.53.35.37.37,0,0,0,.23-.35v-4.66s.11-.5.39-.5.37.5.37.5v4.66a.37.37,0,0,0,.23.35.38.38,0,0,0,.53-.35v-3.53a.52.52,0,0,1,.34-.5.51.51,0,0,1,.67.48v3.13a1.14,1.14,0,0,1-.19.63l-.43.65a.85.85,0,0,0-.14.47v2.73a.09.09,0,0,0,0,0,.54.54,0,0,1-.54.54.38.38,0,0,0-.38.33.38.38,0,0,0,.37.42,1.29,1.29,0,0,0,1.29-1.24h0a.27.27,0,0,0,0-.07v-3s.13-.5.41-.5.35.51.35.51v3A.3.3,0,0,0,933.31,1857.92Z"/><rect class="cls-24" x="5.35" y="1843.35" width="44.33" height="44.33" rx="13.09" ry="13.09"/><path class="cls-25" d="M35.49,1865.16c.17-1-1.45-2.2-1.45-2.2v-6.57a2.39,2.39,0,0,0-2.39-2.39,2.36,2.36,0,0,0-1,.22v0a2.26,2.26,0,0,0-4.52-.22,2.22,2.22,0,0,0-1-.22,2.27,2.27,0,0,0-2.27,2.27v1.14a2.33,2.33,0,0,0-1-.22,2.39,2.39,0,0,0-2.39,2.39v11.66a.13.13,0,0,0,0,0h0a8,8,0,0,0,15.94,0,.65.65,0,0,0,0-.17Zm-1.45,6a6.53,6.53,0,1,1-13.06,0,.13.13,0,0,0,0,0v-11.72a1,1,0,0,1,1.28-.92,1,1,0,0,1,.65,1v4.47a.73.73,0,0,0,.91.71.75.75,0,0,0,.54-.74v-7.67a1,1,0,0,1,.66-1,1,1,0,0,1,1.28.92v7a.73.73,0,0,0,1,.67.7.7,0,0,0,.43-.66v-8.88s.22-1,.75-1,.71,1,.71,1v8.88a.7.7,0,0,0,.43.66.73.73,0,0,0,1-.67v-6.74a1,1,0,0,1,.66-1,1,1,0,0,1,1.28.91v6a2.17,2.17,0,0,1-.36,1.2l-.82,1.24a1.62,1.62,0,0,0-.27.89v5.21a.18.18,0,0,0,0,.05,1,1,0,0,1-1,1,.73.73,0,0,0-.72.63.72.72,0,0,0,.71.81,2.46,2.46,0,0,0,2.46-2.37,0,0,0,0,0,0,0,.52.52,0,0,0,0-.13v-5.7s.25-1,.78-1,.67,1,.67,1l0,5.79A.57.57,0,0,0,34,1871.13Z"/><rect class="cls-24" x="86.39" y="1843.35" width="34.97" height="34.97" rx="10.33" ry="10.33"/><path class="cls-25" d="M110.17,1860.55c.13-.82-1.14-1.73-1.14-1.73v-5.18a1.89,1.89,0,0,0-1.89-1.89,1.86,1.86,0,0,0-.79.18v0a1.79,1.79,0,0,0-3.56-.17,1.75,1.75,0,0,0-.75-.17,1.79,1.79,0,0,0-1.79,1.79v.9a1.84,1.84,0,0,0-.78-.17,1.89,1.89,0,0,0-1.89,1.89v9.2a.11.11,0,0,0,0,0h0a6.29,6.29,0,0,0,12.58,0,.51.51,0,0,0,0-.13Zm-1.14,4.71a5.15,5.15,0,1,1-10.3,0,.1.1,0,0,0,0,0V1856a.77.77,0,0,1,1-.73.78.78,0,0,1,.52.75v3.52a.57.57,0,0,0,.72.56.59.59,0,0,0,.43-.58v-6.05a.78.78,0,0,1,.52-.76.77.77,0,0,1,1,.72V1859a.58.58,0,0,0,.8.53.55.55,0,0,0,.34-.52v-7s.17-.76.59-.76.56.76.56.76v7a.55.55,0,0,0,.34.52.58.58,0,0,0,.8-.53v-5.32a.78.78,0,0,1,.52-.76.77.77,0,0,1,1,.72v4.71a1.71,1.71,0,0,1-.28.94l-.65,1a1.27,1.27,0,0,0-.21.7v4.11a.14.14,0,0,0,0,0,.81.81,0,0,1-.81.81.58.58,0,0,0-.57.5.57.57,0,0,0,.56.64,1.94,1.94,0,0,0,1.94-1.87,0,0,0,0,0,0,0,.41.41,0,0,0,0-.1v-4.5s.2-.76.61-.76.53.76.53.76l0,4.56A.45.45,0,0,0,109,1865.26Z"/><rect class="cls-24" x="156.63" y="1843.35" width="23.26" height="23.26" rx="6.87" ry="6.87"/><path class="cls-25" d="M172.45,1854.8c.09-.54-.76-1.15-.76-1.15v-3.45a1.26,1.26,0,0,0-1.26-1.26,1.24,1.24,0,0,0-.52.12h0a1.19,1.19,0,0,0-2.37-.11,1.17,1.17,0,0,0-.5-.11,1.19,1.19,0,0,0-1.19,1.19v.6a1.22,1.22,0,0,0-.52-.11,1.26,1.26,0,0,0-1.26,1.26v6.12a.07.07,0,0,0,0,0h0a4.18,4.18,0,0,0,8.37,0,.34.34,0,0,0,0-.09Zm-.76,3.13a3.43,3.43,0,1,1-6.85,0,.07.07,0,0,0,0,0v-6.15a.51.51,0,0,1,.67-.48.52.52,0,0,1,.34.5v2.34a.38.38,0,0,0,.48.37.39.39,0,0,0,.28-.39v-4a.52.52,0,0,1,.34-.5.51.51,0,0,1,.67.48v3.68a.38.38,0,0,0,.53.35.37.37,0,0,0,.23-.35v-4.66s.11-.5.39-.5.37.5.37.5v4.66a.37.37,0,0,0,.23.35.38.38,0,0,0,.53-.35v-3.54a.52.52,0,0,1,.34-.5.51.51,0,0,1,.67.48v3.13a1.14,1.14,0,0,1-.19.63l-.43.65a.85.85,0,0,0-.14.47v2.74a.09.09,0,0,0,0,0,.54.54,0,0,1-.54.54.38.38,0,0,0-.38.33.38.38,0,0,0,.37.42,1.29,1.29,0,0,0,1.29-1.24h0a.27.27,0,0,0,0-.07v-3s.13-.5.41-.5.35.51.35.51v3A.3.3,0,0,0,171.69,1857.93Z"/><rect class="cls-24" x="220.56" y="1843.35" width="16.96" height="16.96" rx="5.01" ry="5.01"/><path class="cls-25" d="M232.1,1851.69c.06-.4-.56-.84-.56-.84v-2.51a.92.92,0,0,0-.92-.92.9.9,0,0,0-.38.08h0a.87.87,0,0,0-1.73-.08.85.85,0,0,0-.37-.08.87.87,0,0,0-.87.87v.44a.89.89,0,0,0-.38-.08.92.92,0,0,0-.92.92V1854a.05.05,0,0,0,0,0h0a3,3,0,0,0,6.1,0,.25.25,0,0,0,0-.06Zm-.56,2.28a2.5,2.5,0,1,1-5,0v-4.5a.37.37,0,0,1,.49-.35.38.38,0,0,1,.25.36v1.71a.28.28,0,0,0,.35.27.29.29,0,0,0,.21-.28v-2.94a.38.38,0,0,1,.25-.37.37.37,0,0,1,.49.35v2.68a.28.28,0,0,0,.39.26.27.27,0,0,0,.17-.25v-3.4s.08-.37.29-.37.27.37.27.37v3.4a.27.27,0,0,0,.17.25.28.28,0,0,0,.39-.26v-2.58a.38.38,0,0,1,.25-.37.37.37,0,0,1,.49.35v2.28a.83.83,0,0,1-.14.46l-.31.48a.62.62,0,0,0-.1.34v2a.07.07,0,0,0,0,0,.39.39,0,0,1-.39.39.28.28,0,0,0-.27.24.27.27,0,0,0,.27.31.94.94,0,0,0,.94-.91h0a.2.2,0,0,0,0,0v-2.18s.1-.37.3-.37.26.37.26.37v2.21A.22.22,0,0,0,231.54,1854Z"/><rect class="cls-24" x="278.19" y="1843.35" width="11.56" height="11.56" rx="3.41" ry="3.41"/><path class="cls-25" d="M286.05,1849c0-.27-.38-.57-.38-.57v-1.71a.62.62,0,0,0-.62-.62.61.61,0,0,0-.26.06h0a.59.59,0,0,0-1.18-.06.58.58,0,0,0-.25-.06.59.59,0,0,0-.59.59v.3a.61.61,0,0,0-.26-.06.62.62,0,0,0-.62.62v3h0a2.08,2.08,0,0,0,4.16,0,.17.17,0,0,0,0,0Zm-.38,1.56a1.7,1.7,0,1,1-3.4,0h0v-3.06a.25.25,0,0,1,.33-.24.26.26,0,0,1,.17.25v1.16a.19.19,0,0,0,.24.18.2.2,0,0,0,.14-.19v-2a.26.26,0,0,1,.17-.25.25.25,0,0,1,.33.24v1.83a.19.19,0,0,0,.27.17.18.18,0,0,0,.11-.17v-2.32s.06-.25.19-.25.18.25.18.25v2.32a.18.18,0,0,0,.11.17.19.19,0,0,0,.27-.17v-1.76a.26.26,0,0,1,.17-.25.25.25,0,0,1,.33.24v1.56a.56.56,0,0,1-.09.31l-.21.32a.42.42,0,0,0-.07.23v1.36h0a.27.27,0,0,1-.27.27.19.19,0,0,0-.19.16.19.19,0,0,0,.19.21.64.64,0,0,0,.64-.62h0a.14.14,0,0,0,0,0V1849s.07-.25.2-.25.18.25.18.25v1.51A.15.15,0,0,0,285.67,1850.59Z"/><text class="cls-26" transform="translate(5 1696)">App I<tspan class="cls-27" x="76.97" y="0">c</tspan><tspan x="95.47" y="0">ons</tspan></text><text class="cls-28" transform="translate(0 1086)">SF P<tspan class="cls-29" x="141.22" y="0">r</tspan><tspan x="164.57" y="0">o Displ</tspan><tspan class="cls-30" x="379.05" y="0">a</tspan><tspan x="417.16" y="0">y Semibold 72pt</tspan></text><text class="cls-31" transform="translate(0 1313.75)">SF P<tspan class="cls-32" x="91.41" y="0">r</tspan><tspan x="105.02" y="0">o Display Regular 48pt</tspan></text><text class="cls-33" transform="translate(0 1161.32)">SF P<tspan class="cls-34" x="119.71" y="0">r</tspan><tspan x="140.51" y="0">o Displ</tspan><tspan class="cls-35" x="324.14" y="0">a</tspan><tspan x="356.84" y="0">y Bold 60pt</tspan></text><text class="cls-36" transform="translate(0 1237.32)">SF P<tspan class="cls-32" x="114.26" y="0">r</tspan><tspan x="131.28" y="0">o Display Regular 60pt</tspan></text><text class="cls-37" transform="translate(0 1377.39)">SF P<tspan class="cls-34" x="71.82" y="0">r</tspan><tspan x="84.3" y="0">o Displ</tspan><tspan class="cls-35" x="194.48" y="0">a</tspan><tspan x="214.1" y="0">y Bold </tspan><tspan class="cls-35" x="321.7" y="0">3</tspan><tspan x="344.29" y="0">6pt</tspan></text><text class="cls-38" transform="translate(0 1417.75)">SF P<tspan class="cls-34" x="47.88" y="0">r</tspan><tspan x="56.2" y="0">o Displ</tspan><tspan class="cls-35" x="129.66" y="0">a</tspan><tspan x="142.73" y="0">y Bold </tspan><tspan class="cls-39" x="214.46" y="0">2</tspan><tspan x="228.64" y="0">4pt</tspan></text><text class="cls-40" transform="translate(0 1461.29)">SF P<tspan class="cls-41" x="46.49" y="0">r</tspan><tspan x="53.84" y="0">o Display Medium </tspan><tspan class="cls-42" x="242.78" y="0">2</tspan><tspan x="256.2" y="0">4pt</tspan></text><text class="cls-43" transform="translate(0 1501)">SF <tspan class="cls-44" x="27.3" y="0">P</tspan><tspan class="cls-45" x="39.21" y="0">r</tspan><tspan x="44.91" y="0">o </tspan><tspan class="cls-46" x="60.2" y="0">D</tspan><tspan class="cls-47" x="74.27" y="0">isplay Light 21pt</tspan></text><text class="cls-26" transform="translate(0 969)"><tspan class="cls-48">T</tspan><tspan x="19.3" y="0">ypog</tspan><tspan class="cls-49" x="93.56" y="0">r</tspan><tspan x="106.45" y="0">ap</tspan><tspan class="cls-50" x="144.29" y="0">h</tspan><tspan x="163.4" y="0">y</tspan></text><rect class="cls-51" width="1461" height="2806"/><text class="cls-26" transform="translate(0 84)">Colou<tspan class="cls-27" x="88.09" y="0">r</tspan><tspan x="100.94" y="0">s</tspan></text><rect class="cls-24" y="122" width="166" height="166"/><rect class="cls-52" x="208.69" y="122" width="166" height="166"/><rect class="cls-25" x="417.37" y="122" width="166" height="166"/><rect class="cls-53" x="626" y="122" width="166" height="166"/><text class="cls-54" transform="translate(0 318.47)">Ne<tspan class="cls-55" x="28.94" y="0">r</tspan><tspan x="37.66" y="0">o</tspan><tspan class="cls-56"><tspan x="0" y="28.8">#1</tspan><tspan class="cls-57" x="23.95" y="28.8">8</tspan><tspan x="35.5" y="28.8">1</tspan><tspan class="cls-58" x="43.8" y="28.8">8</tspan><tspan x="55.34" y="28.8">18</tspan><tspan x="0" y="57.6">24, 24, 24</tspan></tspan></text><text class="cls-54" transform="translate(208.69 318.47)">Whi<tspan class="cls-59" x="39.89" y="0">t</tspan><tspan x="48.46" y="0">e Smo</tspan><tspan class="cls-60" x="113.42" y="0">k</tspan><tspan x="125.01" y="0">e</tspan><tspan class="cls-56"><tspan x="0" y="28.8">#F2F2F2</tspan><tspan x="0" y="57.6">242, 242, 242</tspan></tspan></text><text class="cls-54" transform="translate(417.37 318.47)">Suns<tspan class="cls-55" x="51.74" y="0">e</tspan><tspan x="64.46" y="0">t O</tspan><tspan class="cls-61" x="93.05" y="0">r</tspan><tspan class="cls-62" x="101.85" y="0">ange</tspan><tspan class="cls-56"><tspan x="0" y="28.8">#FD4D4D</tspan><tspan x="0" y="57.6">253, 7</tspan><tspan class="cls-63" x="59.47" y="57.6">7</tspan><tspan x="69.74" y="57.6">, 77</tspan></tspan></text><text class="cls-54" transform="translate(626 318.47)"><tspan class="cls-64">P</tspan><tspan x="13.7" y="0">e</tspan><tspan class="cls-65" x="26.62" y="0">r</tspan><tspan x="35.4" y="0">sian </tspan><tspan class="cls-61" x="83.35" y="0">R</tspan><tspan x="97.97" y="0">ed</tspan><tspan class="cls-56"><tspan x="0" y="28.8">#</tspan><tspan class="cls-66" x="15.65" y="28.8">C</tspan><tspan x="30.29" y="28.8">A3D3D</tspan><tspan x="0" y="57.6">202, </tspan><tspan class="cls-67" x="50.09" y="57.6">6</tspan><tspan x="61.8" y="57.6">1, </tspan><tspan class="cls-67" x="81.24" y="57.6">6</tspan><tspan x="92.95" y="57.6">1</tspan></tspan></text><text class="cls-26" transform="translate(0 575)">I<tspan class="cls-68" x="9.29" y="0">c</tspan><tspan class="cls-69" x="27.79" y="0">onog</tspan><tspan class="cls-70" x="105.01" y="0">r</tspan><tspan class="cls-69" x="117.9" y="0">ap</tspan><tspan class="cls-50" x="155.73" y="0">h</tspan><tspan x="174.85" y="0">y</tspan></text><path d="M28.92,686.44h-.17v-1.77A9.25,9.25,0,0,1,28.92,686.44Z"/><path d="M28.76,629.45a1.81,1.81,0,0,0,0,.25v-.25Z"/><path d="M71,615.21a2.07,2.07,0,0,0-.14-.84,2.12,2.12,0,0,0-2.74-1.22l-38,14.59a2.11,2.11,0,0,0-1.34,1.72,1.81,1.81,0,0,0,0,.25v46.73A13.52,13.52,0,1,0,33,684.29V641.51l33.75-13v33.8A13.56,13.56,0,1,0,71,672.19v-57ZM19.59,695.77a9.33,9.33,0,1,1,9.33-9.33A9.34,9.34,0,0,1,19.59,695.77Zm37.82-14.25a9.33,9.33,0,1,1,9.33-9.33A9.34,9.34,0,0,1,57.41,681.52ZM66.74,624,33,637v-5.8l33.75-13Z"/><text class="cls-54" transform="translate(0 770.58)">Lib<tspan class="cls-61" x="32.83" y="0">r</tspan><tspan x="41.64" y="0">a</tspan><tspan class="cls-71" x="54.05" y="0">r</tspan><tspan x="63.48" y="0">y</tspan></text><path d="M205.73,675.94a2,2,0,0,1-2-2V639.08a2,2,0,0,1,3.12-1.7l26.93,17.42a2,2,0,0,1,0,3.39l-26.93,17.42A2,2,0,0,1,205.73,675.94Zm2-33.15v27.41l21.18-13.7Z"/><path d="M215.92,700a43.5,43.5,0,1,1,30.76-12.74A43.22,43.22,0,0,1,215.92,700Zm0-83a39.46,39.46,0,1,0,39.46,39.46A39.51,39.51,0,0,0,215.92,617Z"/><text class="cls-54" transform="translate(183.06 770.58)">Pl<tspan class="cls-72" x="19.94" y="0">a</tspan><tspan class="cls-41" x="32.14" y="0">y</tspan><tspan x="43.03" y="0">er</tspan></text><path d="M419,655.31c.54-3.32-4.66-7.05-4.66-7.05l0-21.1a7.69,7.69,0,0,0-7.68-7.68,7.57,7.57,0,0,0-3.21.71v.09a7.27,7.27,0,0,0-14.51-.69,7.14,7.14,0,0,0-3.07-.69,7.28,7.28,0,0,0-7.28,7.28v3.68a7.48,7.48,0,0,0-3.19-.7,7.69,7.69,0,0,0-7.68,7.68l0,37.45a.43.43,0,0,0,0,.14v0a25.6,25.6,0,0,0,51.2,0,2.09,2.09,0,0,0,.08-.54Zm-4.66,19.18a21,21,0,1,1-41.94,0,.42.42,0,0,0,0-.14l0-37.65a3.12,3.12,0,0,1,4.14-2.94,3.16,3.16,0,0,1,2.06,3v14.34a2.33,2.33,0,1,0,4.66,0V626.39a3.18,3.18,0,0,1,2.06-3.06,3.12,3.12,0,0,1,4.16,2.93v22.51a2.35,2.35,0,0,0,3.35,2.12,2.25,2.25,0,0,0,1.31-2.09V620.29s.7-3.08,2.39-3.08,2.27,3.08,2.27,3.08v28.52a2.25,2.25,0,0,0,1.31,2.09,2.35,2.35,0,0,0,3.35-2.12V627.14a3.18,3.18,0,0,1,2.06-3.06,3.12,3.12,0,0,1,4.16,2.92v21.27l-4.66,7v18.31a.57.57,0,0,0,0,.17,3.31,3.31,0,0,1-3.31,3.29,2.31,2.31,0,0,0,0,4.61,7.9,7.9,0,0,0,7.9-7.6.05.05,0,0,0,0-.07,1.67,1.67,0,0,0,.05-.41V655.31s.81-3.08,2.5-3.08,2.16,3.09,2.16,3.09l.09,18.58A1.84,1.84,0,0,0,414.31,674.48Z"/><text class="cls-54" transform="translate(346.05 770.58)">In<tspan class="cls-59" x="19.25" y="0">t</tspan><tspan x="27.82" y="0">erp</tspan><tspan class="cls-55" x="62.88" y="0">re</tspan><tspan x="84.31" y="0">t</tspan></text><path class="cls-24" d="M610,687.17l-25-25a30.6,30.6,0,1,0-5.54,5.54l25,25a3.92,3.92,0,1,0,5.54-5.54Zm-71.88-43.61a22.72,22.72,0,1,1,22.72,22.72A22.75,22.75,0,0,1,538.17,643.56Z"/><text class="cls-54" transform="translate(533.24 770.58)">Sea<tspan class="cls-55" x="39.43" y="0">r</tspan><tspan x="48.14" y="0">ch</tspan></text><path d="M789.18,622l-23.31-8.83a2.06,2.06,0,0,0-2.65,1.17,2,2,0,0,0-.13.77h0l.13,58.36a15.85,15.85,0,1,0,4.18,10.68,15.5,15.5,0,0,0-.11-1.86h.06L767.16,618l20.55,7.79a2.06,2.06,0,0,0,2.65-1.17A2,2,0,0,0,789.18,622Zm-37.92,74a11.84,11.84,0,1,1,12-11.84A11.93,11.93,0,0,1,751.26,696Z"/><path d="M749.57,623.48H707.92a2,2,0,1,1,0-4.05h41.65a2,2,0,1,1,0,4.05Z"/><path d="M749.57,645.55H707.92a2,2,0,1,1,0-4.05h41.65a2,2,0,1,1,0,4.05Z"/><path d="M721.56,667.57H707.92a2,2,0,1,1,0-4.05h13.64a2,2,0,1,1,0,4.05Z"/><text class="cls-54" transform="translate(704.37 770.58)">Pl<tspan class="cls-72" x="19.94" y="0">a</tspan><tspan class="cls-73" x="32.14" y="0">y</tspan><tspan x="43.58" y="0">li</tspan><tspan class="cls-74" x="55.32" y="0">s</tspan><tspan x="67.01" y="0">ts</tspan></text></g></g></svg>