<svg xmlns="http://www.w3.org/2000/svg" viewBox="0 0 373.67 224.54"><defs><style>.cls-1{fill:#fff;}.cls-2{fill:none;stroke:#fff;stroke-miterlimit:10;stroke-width:4px;}</style></defs><title>dtrh_logo</title><g id="Layer_2" data-name="Layer 2"><g id="Layer_1-2" data-name="Layer 1"><path class="cls-1" d="M56.25,151.68c4,0,2.57-9.26,2.21-11.45a16.18,16.18,0,0,0-2-5.88c-1.12-1.83-2.94-2.93-4.28-4.56-3-3.59,7.08-5.46,9-5.84a25.09,25.09,0,0,1,8.17-.32c2,.28,3.13,1,3.76,3a22.77,22.77,0,0,1,.68,6.31c.11,3.64.14,7.28.17,10.92.09,11.19,0,22.38.15,33.56,0,3.28.09,6.56.25,9.84.13,2.69.38,5.38,1.73,7.78,1.06,1.88,3.11,2.49,4.42,4.14,1.08,1.36.41,3-.86,4-3.21,2.41-8.25,2.45-12.05,2.55-2.8.07-5,0-6.83-2.35-.29-.36-.87-1.45-1.33-1.6-.69-.22-2,.56-2.57.83A41.21,41.21,0,0,1,49,205.8a23.38,23.38,0,0,1-5.74.52c-11.22-.13-19.12-9.45-21-19.87-1.72-9.39.43-20.07,6.79-27.35,6-6.9,14.65-8.1,23.35-7.76C53.65,151.38,54.95,151.68,56.25,151.68ZM48.19,198c3.4,0,6.73-.82,8.54-4,1.58-2.77,1.49-6.69,1.55-9.76A128.7,128.7,0,0,0,58,168.13c-.32-3-.81-6.64-3.4-8.55s-7.18-2.12-10.15-.77c-7.31,3.31-8.38,12.74-8.38,19.72,0,4.09.3,8.22,2.17,11.94S43.6,198,48.19,198Z"/><path class="cls-1" d="M90.7,158.74c-1.16-.79-2.83-2.16-2.36-3.78s2.66-2.46,4-3.23a7.21,7.21,0,0,0,2.88-2.41,28.06,28.06,0,0,0,1.79-4.2c1.15-3.06,2.62-7.6,5.94-9a5,5,0,0,1,6.9,3.08c.93,2.81,1,7,3.41,9.05s5.72,2.2,8.35,3.7a4.12,4.12,0,0,1,1.93,3.85c-.28,1.14-1.77,1.73-2.73,2.11-3.06,1.21-6.91,1.53-8.91,4.51-1.23,1.83-1.33,4.43-1.5,6.55a105.26,105.26,0,0,0-.2,12.25c.18,5,.19,14,7.23,14,2.32,0,5.67-1.16,7.64.37,2.71,2.09-.72,5.78-2.64,6.83-7,3.81-17.4,5-23.09-1.64-4.2-4.9-4-12.25-4-18.33,0-6.51.06-13.21-1.56-19.56A7.09,7.09,0,0,0,90.7,158.74Z"/><path class="cls-1" d="M171.23,151.9c3.89,0,7.33,1.41,7.79,5.73.36,3.39-1.59,8.41-5.7,7.81-3.46-.5-7.22-3.87-10.79-2.49s-5.38,5.2-5.92,8.88a66.17,66.17,0,0,0-.41,12.8c.15,3.08.51,5.62,2.35,8.15,1.3,1.79,2.9,3.31,4.25,5,.84,1.08,2.17,2.83,2,4.32-.21,1.73-3.08,2-4.39,2.2-5.14.77-10.45.49-15.63.37-1.52,0-3-.11-4.57-.12s-3.66.05-5.09-.86c-3.5-2.24,2.16-6.75,3.56-8.29,1.81-2,2.18-3.82,2.34-6.38.24-3.94.23-7.89.22-11.84,0-3.62,0-7.27-.35-10.87a7.78,7.78,0,0,0-3.81-6.46c-1.36-.86-3.12-2-3.05-3.8.06-1.61,1.42-2.57,2.79-3.12A32.59,32.59,0,0,1,150,151.11c1.39.07,3.29.12,4.49,1s1.42,2.84,2.17,4.11c1,1.71,2.19,1.06,3.6.17a37.52,37.52,0,0,1,6-3.33A13.59,13.59,0,0,1,171.23,151.9Z"/><path class="cls-1" d="M249,201.31c0,3.16-4.08,3.58-6.43,3.85a70.3,70.3,0,0,1-11.82.28c-2.22-.12-6.08-.1-6.94-2.74a4.57,4.57,0,0,1,.66-3.43,52.74,52.74,0,0,0,2.42-5.19,19.09,19.09,0,0,0,.65-5.61c.14-3.86.18-7.74.08-11.61a49.62,49.62,0,0,0-1-9.74c-.56-2.43-1.57-4.79-3.9-6a11.22,11.22,0,0,0-9.52.13,9.75,9.75,0,0,0-5,6.31c-2,6.76-1,14.48,0,21.34a41.46,41.46,0,0,0,2.66,9.74,4.91,4.91,0,0,1,.68,2.74c-.32,1.6-1.77,2.24-3.22,2.55a53.12,53.12,0,0,1-9.81.85c-3.28.07-7.18.43-10.31-.82-2.42-1-1.75-3-.72-5,1.6-3,4.14-5.47,4.55-9a104.93,104.93,0,0,0,.28-11.18q.1-11.74,0-23.49c0-5.41,0-10.85-.42-16.24a12.6,12.6,0,0,0-1-4.56,12.33,12.33,0,0,0-3.19-3.75c-.68-.63-2.09-1.59-2.42-2.51-.4-1.15.73-2.49,1.62-3a15.44,15.44,0,0,1,4.64-1.6,36.66,36.66,0,0,1,5.16-.76,23.15,23.15,0,0,1,6.15,0,4.65,4.65,0,0,1,3.87,4.33,72.94,72.94,0,0,1,.38,8.18c.06,4,0,7.94.06,11.91a35.32,35.32,0,0,0,.16,5.61c.61,3.46,4,1.72,6,.84a30.19,30.19,0,0,1,11.42-2.88c6.4-.13,12.24,2.65,15,8.64s2.64,13.44,2.66,19.95c0,3.45,0,6.91.23,10.36.09,1.58.06,3.37.83,4.8a17.55,17.55,0,0,0,3.37,4C247.49,199.19,249,200.37,249,201.31Z"/><path class="cls-1" d="M268.21,188.7h.89a8.94,8.94,0,0,1,6,2.42,7.76,7.76,0,0,1,2.75,6.09v.56a8.24,8.24,0,0,1-2.64,6,8.74,8.74,0,0,1-6.42,2.64h-.61l-.33-.06a8.49,8.49,0,0,1-6.25-2.53,8,8,0,0,1-2.53-5.86v-.61a8.24,8.24,0,0,1,2.67-5.95A8.78,8.78,0,0,1,268.21,188.7Z"/><rect class="cls-2" x="2" y="2" width="369.67" height="220.54"/></g></g></svg>