<svg xmlns="http://www.w3.org/2000/svg" viewBox="0 0 126.76 214.65"><defs><style>.cls-1{fill:#fff;}</style></defs><title>enact_logo</title><g id="Layer_2" data-name="Layer 2"><g id="Layer_1-2" data-name="Layer 1"><path class="cls-1" d="M126.66,104.48c1.34-8.21-11.51-17.42-11.51-17.42l0-52.1a19,19,0,0,0-19-19,18.69,18.69,0,0,0-7.93,1.76V18a18,18,0,0,0-35.83-1.71,17.64,17.64,0,0,0-7.58-1.71,18,18,0,0,0-18,18v9.08A18.48,18.48,0,0,0,19,39.89a19,19,0,0,0-19,19l0,92.49a1.06,1.06,0,0,0,0,.34v.08a63.22,63.22,0,0,0,126.43,0,5.15,5.15,0,0,0,.19-1.34Zm-11.51,47.36a51.78,51.78,0,1,1-103.56,0,1,1,0,0,0,0-.34l0-93a7.7,7.7,0,0,1,10.23-7.25,7.8,7.8,0,0,1,5.08,7.51V94.2a5.76,5.76,0,1,0,11.51,0V33.08a7.86,7.86,0,0,1,5.08-7.55,7.7,7.7,0,0,1,10.27,7.24v55.6A5.8,5.8,0,0,0,62,93.6a5.55,5.55,0,0,0,3.25-5.17V18s1.73-7.6,5.91-7.6,5.6,7.6,5.6,7.6V88.43A5.55,5.55,0,0,0,80,93.6a5.8,5.8,0,0,0,8.27-5.24V34.92a7.86,7.86,0,0,1,5.08-7.56,7.7,7.7,0,0,1,10.26,7.21V87.1L92.13,104.48v45.21a1.42,1.42,0,0,0,0,.42A8.18,8.18,0,0,1,84,158.24a5.69,5.69,0,0,0,0,11.39,19.51,19.51,0,0,0,19.52-18.77.13.13,0,0,0,0-.17,4.11,4.11,0,0,0,.13-1V104.48s2-7.6,6.18-7.6,5.33,7.64,5.33,7.64l.23,45.88A4.56,4.56,0,0,0,115.15,151.84Z"/></g></g></svg>