<svg xmlns="http://www.w3.org/2000/svg" viewBox="0 0 1920 1080"><defs><style>.cls-1{fill:#252324;}.cls-2{fill:#f2f2f2;}.cls-3{fill:#d08ed2;}.cls-4{fill:#7eabe2;}.cls-5{fill:#87d639;}.cls-6{fill:#4296f3;}.cls-7{fill:none;}</style></defs><title>Recollection_Gameplay_Page</title><g id="Layer_2" data-name="Layer 2"><g id="Layer_1-2" data-name="Layer 1"><path d="M18,8.62a6.78,6.78,0,0,1,1.87,5,6.63,6.63,0,0,1-1.89,4.93,6.78,6.78,0,0,1-5,1.87H5.47a.13.13,0,0,0-.14.14v11A.43.43,0,0,1,4.9,32h-1a.43.43,0,0,1-.43-.43V7.16a.43.43,0,0,1,.43-.43H13A6.63,6.63,0,0,1,18,8.62Zm-1.42,8.75a5.11,5.11,0,0,0,1.39-3.73,5.16,5.16,0,0,0-1.39-3.76,4.87,4.87,0,0,0-3.65-1.42H5.47a.13.13,0,0,0-.14.14v10a.13.13,0,0,0,.14.14h7.42A4.87,4.87,0,0,0,16.54,17.37Z"/><path d="M28,31.35a7,7,0,0,1-2.9-2.75,8,8,0,0,1-1-4.09V14.25a7.85,7.85,0,0,1,1-4A7,7,0,0,1,28,7.48a9.23,9.23,0,0,1,4.32-1,9.31,9.31,0,0,1,4.28,1,7,7,0,0,1,2.9,2.68,7.67,7.67,0,0,1,1,4,.43.43,0,0,1-.43.43l-1,0q-.43,0-.43-.22v-.22A5.7,5.7,0,0,0,36.9,9.84,6.37,6.37,0,0,0,32.33,8.2a6.42,6.42,0,0,0-4.61,1.64A5.7,5.7,0,0,0,26,14.18V24.62A5.72,5.72,0,0,0,27.74,29a6.39,6.39,0,0,0,4.59,1.66A6.33,6.33,0,0,0,36.9,29a5.76,5.76,0,0,0,1.73-4.36c0-.26.14-.4.43-.4l1,0q.43,0,.43.18v.18a7.77,7.77,0,0,1-1,4,7,7,0,0,1-2.9,2.72,9.16,9.16,0,0,1-4.28,1A9.23,9.23,0,0,1,28,31.35Z"/><path d="M44.42,31.86a.37.37,0,0,1,0-.36L52,7.16a.45.45,0,0,1,.47-.36h1a.38.38,0,0,1,.32.14.37.37,0,0,1,0,.36l-7.6,24.34a.45.45,0,0,1-.47.36h-1A.38.38,0,0,1,44.42,31.86Z"/><path d="M66.19,31.87a.41.41,0,0,1-.13-.31V7.23a.43.43,0,0,1,.43-.43h1.12a.57.57,0,0,1,.5.29l6.95,11a.15.15,0,0,0,.11,0,.15.15,0,0,0,.11,0l7-11a.56.56,0,0,1,.5-.29h1.12a.43.43,0,0,1,.43.43V31.57a.43.43,0,0,1-.43.43h-1a.43.43,0,0,1-.43-.43V10.51c0-.07,0-.11-.07-.13s-.08,0-.11.09L76,20.34a.52.52,0,0,1-.5.29h-.58a.56.56,0,0,1-.5-.29l-6.26-9.86c0-.07-.06-.1-.11-.09s-.07.05-.07.13V31.57a.43.43,0,0,1-.43.43h-1A.42.42,0,0,1,66.19,31.87Z"/><path d="M102,15.21a5.93,5.93,0,0,1,1.66,4.41v12a.43.43,0,0,1-.43.43h-1a.43.43,0,0,1-.43-.43V30a.12.12,0,0,0-.05-.11s-.08,0-.13,0a5.8,5.8,0,0,1-2.48,1.75,9.17,9.17,0,0,1-3.31.59A6.92,6.92,0,0,1,91.55,31a4.48,4.48,0,0,1-1.69-3.87,5.06,5.06,0,0,1,2-4.21,8.62,8.62,0,0,1,5.44-1.55h4.32a.13.13,0,0,0,.14-.14V19.65a4.48,4.48,0,0,0-1.12-3.22,4.63,4.63,0,0,0-3.49-1.17,5.65,5.65,0,0,0-3,.74,3.11,3.11,0,0,0-1.48,2q-.11.43-.5.36L91,18.21q-.47-.07-.4-.4a4.63,4.63,0,0,1,2.12-3.08,7.84,7.84,0,0,1,4.43-1.17A6.58,6.58,0,0,1,102,15.21Zm-1.93,14.31a3.52,3.52,0,0,0,1.67-3.1V23.14a.13.13,0,0,0-.14-.14h-4.1a7.2,7.2,0,0,0-4.16,1.08,3.43,3.43,0,0,0-1.57,3A3.1,3.1,0,0,0,93,29.73a5.15,5.15,0,0,0,3.13.9A6.94,6.94,0,0,0,100.06,29.52Z"/><path d="M111.62,31a6.44,6.44,0,0,1-2.39-3.56,17.7,17.7,0,0,1-.47-4.5,18.06,18.06,0,0,1,.47-4.46,6.23,6.23,0,0,1,2.38-3.53A7.12,7.12,0,0,1,116,13.57a7.5,7.5,0,0,1,4.41,1.3,5.63,5.63,0,0,1,2.36,3.24,5.42,5.42,0,0,1,.22.94v.07q0,.32-.4.4l-1,.14h-.07q-.32,0-.43-.4a2,2,0,0,0-.07-.43,4.23,4.23,0,0,0-1.69-2.54,5.36,5.36,0,0,0-3.31-1,5.13,5.13,0,0,0-3.29,1A4.63,4.63,0,0,0,111,19.08a17.66,17.66,0,0,0-.32,3.85,16.85,16.85,0,0,0,.32,3.82,4.64,4.64,0,0,0,1.67,2.81,5.13,5.13,0,0,0,3.29,1,5.44,5.44,0,0,0,3.33-1A4.06,4.06,0,0,0,121,27l0-.14a.4.4,0,0,1,.18-.27.43.43,0,0,1,.32-.05l1,.11a.59.59,0,0,1,.31.16.37.37,0,0,1,.09.34l-.14.58A5.56,5.56,0,0,1,120.36,31,7.57,7.57,0,0,1,116,32.29,7,7,0,0,1,111.62,31Z"/><path d="M138.78,31.35a7,7,0,0,1-2.9-2.75,8,8,0,0,1-1-4.09V14.25a7.85,7.85,0,0,1,1-4,7,7,0,0,1,2.9-2.72,10.09,10.09,0,0,1,8.6,0,7,7,0,0,1,2.9,2.68,7.67,7.67,0,0,1,1,4,.43.43,0,0,1-.43.43l-1,0q-.43,0-.43-.22v-.22a5.7,5.7,0,0,0-1.73-4.34,7.25,7.25,0,0,0-9.18,0,5.7,5.7,0,0,0-1.73,4.34V24.62A5.72,5.72,0,0,0,138.51,29a7.16,7.16,0,0,0,9.16,0,5.76,5.76,0,0,0,1.73-4.36c0-.26.14-.4.43-.4l1,0q.43,0,.43.18v.18a7.77,7.77,0,0,1-1,4,7,7,0,0,1-2.9,2.72,10,10,0,0,1-8.6,0Z"/><path d="M159.24,31a6.62,6.62,0,0,1-2.43-3.56,17,17,0,0,1-.43-4.5,19.41,19.41,0,0,1,.4-4.46,6.5,6.5,0,0,1,2.45-3.55,7.8,7.8,0,0,1,8.69,0,6.38,6.38,0,0,1,2.43,3.53,18.3,18.3,0,0,1,.4,4.46,18.49,18.49,0,0,1-.4,4.5A6.37,6.37,0,0,1,167.92,31a7.14,7.14,0,0,1-4.34,1.33A7,7,0,0,1,159.24,31Zm7.6-1.4a4.74,4.74,0,0,0,1.75-2.81,21.81,21.81,0,0,0,.22-3.82,21.05,21.05,0,0,0-.22-3.82,4.75,4.75,0,0,0-1.75-2.81,5.23,5.23,0,0,0-3.29-1,5.15,5.15,0,0,0-3.28,1,4.77,4.77,0,0,0-1.73,2.81,21,21,0,0,0-.22,3.82,21,21,0,0,0,.22,3.82,4.77,4.77,0,0,0,1.73,2.81,5.69,5.69,0,0,0,6.57,0Z"/><path d="M188,15.3a6,6,0,0,1,1.69,4.46V31.57a.43.43,0,0,1-.43.43h-1a.43.43,0,0,1-.43-.43V20.12a4.81,4.81,0,0,0-1.3-3.47,4.43,4.43,0,0,0-3.35-1.35,4.81,4.81,0,0,0-3.53,1.31A4.61,4.61,0,0,0,178.31,20V31.57a.43.43,0,0,1-.43.43h-1a.43.43,0,0,1-.43-.43V14.29a.43.43,0,0,1,.43-.43h1a.43.43,0,0,1,.43.43V16q0,.11.05.13s.07,0,.09-.05a5.16,5.16,0,0,1,2.11-1.82,6.87,6.87,0,0,1,3-.63A6,6,0,0,1,188,15.3Z"/><path d="M203.16,15.35a.41.41,0,0,1-.31.13h-4.14a.13.13,0,0,0-.14.14V27a3.33,3.33,0,0,0,.83,2.57,4,4,0,0,0,2.66.74h.76a.43.43,0,0,1,.43.43v.83a.38.38,0,0,1-.43.43l-1,0A6.23,6.23,0,0,1,198,31q-1.3-1-1.33-3.56V15.62a.13.13,0,0,0-.14-.14h-2.09A.43.43,0,0,1,194,15v-.76a.43.43,0,0,1,.43-.43h2.09a.13.13,0,0,0,.14-.14v-4a.43.43,0,0,1,.43-.43h1a.43.43,0,0,1,.43.43v4a.13.13,0,0,0,.14.14h4.14a.43.43,0,0,1,.43.43V15A.41.41,0,0,1,203.16,15.35Z"/><path d="M217.55,14.11a.4.4,0,0,1,.22.54l-.29,1q-.11.43-.54.25a5,5,0,0,0-1.73-.22,4.36,4.36,0,0,0-3.33,1.53,5.34,5.34,0,0,0-1.31,3.65V31.57a.43.43,0,0,1-.43.43h-1a.43.43,0,0,1-.43-.43V14.29a.43.43,0,0,1,.43-.43h1a.43.43,0,0,1,.43.43v2.38q0,.11.05.13s.07,0,.09-.09a5.92,5.92,0,0,1,2-2.2,5,5,0,0,1,2.83-.79A5.2,5.2,0,0,1,217.55,14.11Z"/><path d="M223.72,31a6.62,6.62,0,0,1-2.43-3.56,17,17,0,0,1-.43-4.5,19.41,19.41,0,0,1,.4-4.46,6.5,6.5,0,0,1,2.45-3.55,7.8,7.8,0,0,1,8.69,0,6.38,6.38,0,0,1,2.43,3.53,18.3,18.3,0,0,1,.4,4.46,18.49,18.49,0,0,1-.4,4.5A6.37,6.37,0,0,1,232.4,31a7.14,7.14,0,0,1-4.34,1.33A7,7,0,0,1,223.72,31Zm7.6-1.4a4.74,4.74,0,0,0,1.75-2.81,21.81,21.81,0,0,0,.22-3.82,21.05,21.05,0,0,0-.22-3.82,4.75,4.75,0,0,0-1.75-2.81,5.23,5.23,0,0,0-3.29-1,5.15,5.15,0,0,0-3.28,1A4.77,4.77,0,0,0,223,19.11a21,21,0,0,0-.22,3.82,21,21,0,0,0,.22,3.82,4.77,4.77,0,0,0,1.73,2.81,5.69,5.69,0,0,0,6.57,0Z"/><path d="M241,31.87a.42.42,0,0,1-.13-.31V7.23a.43.43,0,0,1,.43-.43h1a.43.43,0,0,1,.43.43V31.57a.43.43,0,0,1-.43.43h-1A.42.42,0,0,1,241,31.87Z"/><path d="M251.26,31.55a5.56,5.56,0,0,1-2.32-1.71,3.81,3.81,0,0,1-.83-2.38v-.4a.43.43,0,0,1,.43-.43h1a.45.45,0,0,1,.31.11A.32.32,0,0,1,250,27v.4a2.8,2.8,0,0,0,1.31,2.27,5.52,5.52,0,0,0,3.37,1,5.3,5.3,0,0,0,3.29-1,2.93,2.93,0,0,0,1.28-2.41,2.24,2.24,0,0,0-.65-1.66,4.35,4.35,0,0,0-1.55-1q-.9-.34-2.66-.88a29.5,29.5,0,0,1-3.24-1.15A5.72,5.72,0,0,1,249.06,21a3.72,3.72,0,0,1-.85-2.5A4.17,4.17,0,0,1,250,15a7.44,7.44,0,0,1,4.59-1.31,8.44,8.44,0,0,1,3.37.63,5.47,5.47,0,0,1,2.27,1.71A4,4,0,0,1,261,18.5v0a.43.43,0,0,1-.43.43h-1a.61.61,0,0,1-.31-.07.21.21,0,0,1-.13-.18V18.5a2.73,2.73,0,0,0-1.28-2.29,6.63,6.63,0,0,0-6.61-.07,2.64,2.64,0,0,0-1.22,2.29,2.24,2.24,0,0,0,1.13,2.05,16.26,16.26,0,0,0,3.55,1.4A31.83,31.83,0,0,1,258.1,23a5.91,5.91,0,0,1,2.14,1.53,3.75,3.75,0,0,1,.9,2.59,4.42,4.42,0,0,1-1.76,3.65,7.36,7.36,0,0,1-4.68,1.39A8.78,8.78,0,0,1,251.26,31.55Z"/><path d="M85.89,91.92a.27.27,0,0,1-.08-.2V75.49a.29.29,0,0,1,.29-.29h.74a.38.38,0,0,1,.34.19l4.63,7.32a.09.09,0,0,0,.07,0,.1.1,0,0,0,.07,0l4.66-7.32a.38.38,0,0,1,.34-.19h.74a.29.29,0,0,1,.29.29V91.71a.29.29,0,0,1-.29.29H97a.29.29,0,0,1-.29-.29v-14s0-.08,0-.08-.06,0-.07.06l-4.15,6.58a.34.34,0,0,1-.34.19h-.38a.37.37,0,0,1-.34-.19L87.2,77.65s0-.07-.07-.06,0,0,0,.08v14a.29.29,0,0,1-.29.29h-.7A.27.27,0,0,1,85.89,91.92Z"/><path d="M104,91.3a4.41,4.41,0,0,1-1.62-2.38,11.35,11.35,0,0,1-.29-3,12.93,12.93,0,0,1,.26-3A4.33,4.33,0,0,1,104,80.59a5.2,5.2,0,0,1,5.8,0A4.26,4.26,0,0,1,111.44,83a12.21,12.21,0,0,1,.26,3,12.35,12.35,0,0,1-.26,3,4.25,4.25,0,0,1-1.62,2.38,4.76,4.76,0,0,1-2.89.89A4.69,4.69,0,0,1,104,91.3Zm5.06-.94a3.16,3.16,0,0,0,1.16-1.87,14.52,14.52,0,0,0,.14-2.54,14,14,0,0,0-.14-2.54,3.16,3.16,0,0,0-1.16-1.87,3.48,3.48,0,0,0-2.2-.7,3.43,3.43,0,0,0-2.18.7,3.18,3.18,0,0,0-1.15,1.87,14,14,0,0,0-.14,2.54,14,14,0,0,0,.14,2.54,3.18,3.18,0,0,0,1.15,1.87,3.79,3.79,0,0,0,4.38,0Z"/><path d="M117.77,91.76l-3.94-11.52a.27.27,0,0,1,0-.12c0-.14.08-.22.24-.22h.82a.3.3,0,0,1,.31.24l3.26,9.91a.08.08,0,0,0,.07,0,.08.08,0,0,0,.07,0l3.26-9.91a.3.3,0,0,1,.31-.24l.82,0a.23.23,0,0,1,.2.08.29.29,0,0,1,0,.25l-3.94,11.5a.3.3,0,0,1-.31.24h-.86A.3.3,0,0,1,117.77,91.76Z"/><path d="M132.32,90.55a3.14,3.14,0,0,0,1.25-1.43.29.29,0,0,1,.38-.14l.43.17q.29.12.17.38a4.26,4.26,0,0,1-1.66,1.94,4.89,4.89,0,0,1-2.69.72,4.68,4.68,0,0,1-2.8-.82,4.27,4.27,0,0,1-1.6-2.23,11.69,11.69,0,0,1-.34-3.22q0-1.17,0-1.78a6.42,6.42,0,0,1,.16-1.1,4.29,4.29,0,0,1,1.57-2.42,4.65,4.65,0,0,1,2.92-.91,4.3,4.3,0,0,1,4.58,3.77,7.84,7.84,0,0,1,.13,1q0,.52,0,1.57,0,.31-.29.31h-7.8a.08.08,0,0,0-.1.1,11.55,11.55,0,0,0,.12,2.06A3.18,3.18,0,0,0,128,90.38a3.6,3.6,0,0,0,2.28.71A3.93,3.93,0,0,0,132.32,90.55Zm-5.59-5.32a.08.08,0,0,0,.1.1h6.7a.08.08,0,0,0,.1-.1,10.17,10.17,0,0,0-.12-1.82,3.23,3.23,0,0,0-1.15-1.86,3.74,3.74,0,0,0-4.34,0,3,3,0,0,0-1.1,1.81A10.62,10.62,0,0,0,126.73,85.23Z"/><path d="M326.9,91.58A4.48,4.48,0,0,1,325,89.86a4.91,4.91,0,0,1-.66-2.57V86.14a.29.29,0,0,1,.29-.29h.7a.29.29,0,0,1,.29.29V87.3a3.57,3.57,0,0,0,1.1,2.74,4.12,4.12,0,0,0,2.93,1,4.16,4.16,0,0,0,2.94-1,3.55,3.55,0,0,0,1.12-2.74V75.49a.29.29,0,0,1,.29-.29h.7a.29.29,0,0,1,.29.29V87.3a4.91,4.91,0,0,1-.66,2.57,4.48,4.48,0,0,1-1.87,1.72,6.12,6.12,0,0,1-2.8.61A6,6,0,0,1,326.9,91.58Z"/><path d="M347,80a.28.28,0,0,1,.2-.08h.67a.28.28,0,0,1,.2.08.28.28,0,0,1,.08.2V91.71a.28.28,0,0,1-.08.2.28.28,0,0,1-.2.08h-.67a.29.29,0,0,1-.29-.29V90.58s0-.08,0-.08-.06,0-.07.06a3.22,3.22,0,0,1-1.36,1.2,4.59,4.59,0,0,1-2,.41,4.25,4.25,0,0,1-3-1.06,3.71,3.71,0,0,1-1.18-2.9v-8a.29.29,0,0,1,.29-.29h.67a.28.28,0,0,1,.2.08.28.28,0,0,1,.08.2v7.68a3.14,3.14,0,0,0,.85,2.3,3,3,0,0,0,2.27.86,3.2,3.2,0,0,0,2.35-.88,3.08,3.08,0,0,0,.89-2.29V80.19A.28.28,0,0,1,347,80Z"/><path d="M367.19,80.79a3.92,3.92,0,0,1,1.06,2.9v8A.29.29,0,0,1,368,92h-.67a.29.29,0,0,1-.29-.29V83.94a3,3,0,0,0-.83-2.24,2.9,2.9,0,0,0-2.15-.83,3.11,3.11,0,0,0-2.24.82,2.92,2.92,0,0,0-.85,2.21v7.82a.29.29,0,0,1-.29.29H360a.29.29,0,0,1-.29-.29V83.94a3.06,3.06,0,0,0-.82-2.24,2.86,2.86,0,0,0-2.14-.83,3.06,3.06,0,0,0-2.24.82,3,3,0,0,0-.83,2.21v7.82a.29.29,0,0,1-.29.29h-.7a.29.29,0,0,1-.29-.29V80.19a.29.29,0,0,1,.29-.29h.7a.29.29,0,0,1,.29.29v1a.08.08,0,0,0,0,.07,0,0,0,0,0,.07,0,3.12,3.12,0,0,1,1.36-1.15,4.66,4.66,0,0,1,1.93-.38,4.1,4.1,0,0,1,2.15.54,3.4,3.4,0,0,1,1.36,1.52c0,.06.07.07.12,0a3.47,3.47,0,0,1,1.46-1.56,4.56,4.56,0,0,1,2.23-.53A3.8,3.8,0,0,1,367.19,80.79Z"/><path d="M381.59,85.93q0,1.08,0,1.78a6.83,6.83,0,0,1-.19,1.25,4.21,4.21,0,0,1-1.52,2.36,4.45,4.45,0,0,1-2.8.88,4.12,4.12,0,0,1-1.88-.42,3.53,3.53,0,0,1-1.36-1.21,0,0,0,0,0-.07,0,.08.08,0,0,0,0,.07v5.81a.29.29,0,0,1-.29.29h-.7a.29.29,0,0,1-.29-.29V80.19a.29.29,0,0,1,.29-.29h.7a.29.29,0,0,1,.29.29v1.13s0,.08,0,.08.05,0,.08,0a3.62,3.62,0,0,1,1.36-1.22,4,4,0,0,1,1.88-.43,4.4,4.4,0,0,1,2.76.86,4.3,4.3,0,0,1,1.54,2.33A12.85,12.85,0,0,1,381.59,85.93Zm-1.36,1.87a14.28,14.28,0,0,0,.08-1.85,15.47,15.47,0,0,0-.07-1.76A6.19,6.19,0,0,0,380,83.1a2.89,2.89,0,0,0-1.1-1.63,3.29,3.29,0,0,0-2-.62,2.86,2.86,0,0,0-1.88.62,3.06,3.06,0,0,0-1,1.63,4.27,4.27,0,0,0-.23,1q-.06.56-.06,1.81a17,17,0,0,0,.07,1.86,5.11,5.11,0,0,0,.24,1.07,2.84,2.84,0,0,0,1,1.6,2.91,2.91,0,0,0,1.87.61,3.15,3.15,0,0,0,1.94-.61,3,3,0,0,0,1.1-1.57A4.31,4.31,0,0,0,380.24,87.8Z"/><path d="M505.91,91.76l-1-3.14a.09.09,0,0,0-.1-.07h-7.49a.09.09,0,0,0-.1.07l-1,3.14a.3.3,0,0,1-.31.24h-.77a.27.27,0,0,1-.22-.08.26.26,0,0,1,0-.25l5.33-16.22a.3.3,0,0,1,.31-.24h1a.3.3,0,0,1,.31.24l5.35,16.22a.27.27,0,0,1,0,.12c0,.14-.09.22-.26.22h-.74A.3.3,0,0,1,505.91,91.76Zm-8.32-4.31a.12.12,0,0,0,.08,0h6.72a.12.12,0,0,0,.08,0,.07.07,0,0,0,0-.08l-3.41-10.51a.08.08,0,0,0-.14,0l-3.36,10.51A.07.07,0,0,0,497.59,87.45Z"/><path d="M515,80.9a.28.28,0,0,1-.2.08H512a.09.09,0,0,0-.1.1v7.56a2.22,2.22,0,0,0,.55,1.72,2.63,2.63,0,0,0,1.78.49h.5a.29.29,0,0,1,.29.29v.55a.25.25,0,0,1-.29.29l-.67,0a4.15,4.15,0,0,1-2.52-.65,2.86,2.86,0,0,1-.89-2.38v-7.9a.08.08,0,0,0-.1-.1H509.2a.29.29,0,0,1-.29-.29v-.5a.29.29,0,0,1,.29-.29h1.39a.09.09,0,0,0,.1-.1V77.12a.29.29,0,0,1,.29-.29h.67a.29.29,0,0,1,.29.29v2.69a.09.09,0,0,0,.1.1h2.76a.29.29,0,0,1,.29.29v.5A.28.28,0,0,1,515,80.9Z"/><path d="M523.61,80.9a.28.28,0,0,1-.2.08h-2.76a.09.09,0,0,0-.1.1v7.56a2.22,2.22,0,0,0,.55,1.72,2.63,2.63,0,0,0,1.78.49h.5a.29.29,0,0,1,.29.29v.55a.25.25,0,0,1-.29.29l-.67,0a4.15,4.15,0,0,1-2.52-.65A2.86,2.86,0,0,1,519.3,89v-7.9a.08.08,0,0,0-.1-.1h-1.39a.29.29,0,0,1-.29-.29v-.5a.29.29,0,0,1,.29-.29h1.39a.09.09,0,0,0,.1-.1V77.12a.29.29,0,0,1,.29-.29h.67a.29.29,0,0,1,.29.29v2.69a.09.09,0,0,0,.1.1h2.76a.29.29,0,0,1,.29.29v.5A.28.28,0,0,1,523.61,80.9Z"/><path d="M534.49,80.8a4,4,0,0,1,1.1,2.94v8a.28.28,0,0,1-.08.2.28.28,0,0,1-.2.08h-.7a.29.29,0,0,1-.29-.29v-1a.08.08,0,0,0,0-.07s-.05,0-.08,0a3.86,3.86,0,0,1-1.66,1.16,6.12,6.12,0,0,1-2.21.4,4.62,4.62,0,0,1-2.81-.83,3,3,0,0,1-1.13-2.58A3.38,3.38,0,0,1,527.72,86a5.74,5.74,0,0,1,3.62-1h2.88a.09.09,0,0,0,.1-.1V83.77a3,3,0,0,0-.74-2.15,3.09,3.09,0,0,0-2.33-.78,3.76,3.76,0,0,0-2,.49,2.07,2.07,0,0,0-1,1.33q-.07.29-.34.24l-.74-.1q-.31,0-.26-.26a3.09,3.09,0,0,1,1.42-2.05,5.23,5.23,0,0,1,3-.78A4.39,4.39,0,0,1,534.49,80.8Zm-1.28,9.54a2.35,2.35,0,0,0,1.12-2.06V86.1a.09.09,0,0,0-.1-.1h-2.74a4.8,4.8,0,0,0-2.77.72,2.29,2.29,0,0,0-1,2,2.07,2.07,0,0,0,.82,1.78,3.44,3.44,0,0,0,2.09.6A4.62,4.62,0,0,0,533.21,90.34Z"/><path d="M540.91,91.3a4.29,4.29,0,0,1-1.6-2.38,11.78,11.78,0,0,1-.31-3,12,12,0,0,1,.31-3,4.15,4.15,0,0,1,1.58-2.35,4.75,4.75,0,0,1,2.9-.89,5,5,0,0,1,2.94.86,3.76,3.76,0,0,1,1.57,2.16,3.66,3.66,0,0,1,.14.62v0c0,.14-.09.23-.26.26l-.67.1h0c-.14,0-.24-.09-.29-.26a1.34,1.34,0,0,0,0-.29A2.82,2.82,0,0,0,546,81.52a3.58,3.58,0,0,0-2.21-.68,3.42,3.42,0,0,0-2.2.7,3.08,3.08,0,0,0-1.12,1.85,11.76,11.76,0,0,0-.22,2.57,11.22,11.22,0,0,0,.22,2.54,3.09,3.09,0,0,0,1.12,1.87,3.42,3.42,0,0,0,2.2.7,3.63,3.63,0,0,0,2.22-.68,2.71,2.71,0,0,0,1.12-1.72l0-.1a.26.26,0,0,1,.12-.18.29.29,0,0,1,.22,0l.65.07a.4.4,0,0,1,.2.11.25.25,0,0,1,.06.23l-.1.38a3.71,3.71,0,0,1-1.57,2.2,5.05,5.05,0,0,1-2.94.85A4.69,4.69,0,0,1,540.91,91.3Z"/><path d="M551.88,91.92a.28.28,0,0,1-.08-.2V75.49a.29.29,0,0,1,.29-.29h.7a.29.29,0,0,1,.29.29v10.2a.08.08,0,0,0,0,.07s.05,0,.08,0L558.71,80a.49.49,0,0,1,.36-.14h.84c.16,0,.24.06.24.17a.28.28,0,0,1-.1.19l-3,3.19a.11.11,0,0,0,0,.12l3.67,8.09a.38.38,0,0,1,0,.14c0,.13-.09.19-.26.19h-.74a.34.34,0,0,1-.34-.22l-3.24-7.34c0-.06-.07-.07-.12,0l-2.93,3a.16.16,0,0,0,0,.12v4.15a.29.29,0,0,1-.29.29h-.7A.28.28,0,0,1,551.88,91.92Z"/><rect class="cls-1" x="79.21" y="121.79" width="61.43" height="61.43" rx="12" ry="12"/><polygon class="cls-2" points="123.22 155.72 115.76 155.72 115.76 172.46 104.4 172.46 104.4 155.72 96.63 155.72 109.93 132.69 123.22 155.72"/><rect class="cls-1" x="79.21" y="198.57" width="61.43" height="61.43" rx="12" ry="12" transform="translate(219.85 458.57) rotate(180)"/><polygon class="cls-2" points="96.63 226.06 104.09 226.06 104.09 209.32 115.45 209.32 115.45 226.06 123.22 226.06 109.93 249.1 96.63 226.06"/><rect class="cls-1" x="156" y="198.57" width="61.43" height="61.43" rx="12" ry="12" transform="translate(416 42.57) rotate(90)"/><polygon class="cls-2" points="183.49 242.59 183.49 235.12 166.75 235.12 166.75 223.76 183.49 223.76 183.49 215.99 206.52 229.29 183.49 242.59"/><rect class="cls-1" x="2.43" y="198.57" width="61.43" height="61.43" rx="12" ry="12" transform="translate(-196.15 262.43) rotate(-90)"/><polygon class="cls-2" points="36.37 215.99 36.37 223.45 53.1 223.45 53.1 234.81 36.37 234.81 36.37 242.59 13.33 229.29 36.37 215.99"/><rect class="cls-1" x="497.24" y="199" width="61" height="61" rx="12" ry="12"/><path class="cls-2" d="M511.84,249.3a.54.54,0,0,1-.23-.46.84.84,0,0,1,.17-.51l10.84-18.6a.94.94,0,0,0,0-.46l-10.84-18.6a1,1,0,0,1-.17-.51.54.54,0,0,1,.23-.46,1,1,0,0,1,.63-.17h6.62a1.23,1.23,0,0,1,1.2.68L527.54,223a.32.32,0,0,0,.26.17c.09,0,.16-.06.2-.17l7.25-12.78a1.23,1.23,0,0,1,1.2-.68H543a1,1,0,0,1,.63.17.54.54,0,0,1,.23.46,1,1,0,0,1-.17.51l-10.84,18.6a.92.92,0,0,0,0,.46l10.84,18.6a.84.84,0,0,1,.17.51.54.54,0,0,1-.23.46,1,1,0,0,1-.63.17h-6.56a1.23,1.23,0,0,1-1.2-.68L528,236.06c0-.11-.11-.17-.2-.17a.32.32,0,0,0-.26.17l-7.3,12.73a1.23,1.23,0,0,1-1.2.68h-6.56A1,1,0,0,1,511.84,249.3Z"/><rect class="cls-1" x="292.42" y="199" width="122" height="61" rx="12" ry="12"/><path class="cls-2" d="M303.83,241.91a7.79,7.79,0,0,1-3.4-2.73,7.13,7.13,0,0,1-1.2-4.11v-.64a.56.56,0,0,1,.63-.63h3.92q.64,0,.64.49v.52a3.06,3.06,0,0,0,1.36,2.52,5.77,5.77,0,0,0,3.57,1,4.34,4.34,0,0,0,2.93-.84,2.66,2.66,0,0,0,1-2.07,2.09,2.09,0,0,0-.6-1.51,5.31,5.31,0,0,0-1.61-1.08q-1-.47-3.25-1.29a30.4,30.4,0,0,1-4.26-1.76,8.76,8.76,0,0,1-2.91-2.45,6.08,6.08,0,0,1-1.2-3.83,6.74,6.74,0,0,1,1.16-3.92,7.35,7.35,0,0,1,3.23-2.58,11.81,11.81,0,0,1,4.73-.9,12.24,12.24,0,0,1,5.08,1,8.24,8.24,0,0,1,3.49,2.82,7.22,7.22,0,0,1,1.25,4.2v.37a.56.56,0,0,1-.64.64h-3.92q-.64,0-.64-.37v-.37a3.39,3.39,0,0,0-1.29-2.67,5.26,5.26,0,0,0-3.53-1.1,4.46,4.46,0,0,0-2.76.75,2.45,2.45,0,0,0-1,2.06,2.28,2.28,0,0,0,.56,1.57,5,5,0,0,0,1.7,1.16q1.14.52,3.53,1.35,2.61,1,4.15,1.7a8,8,0,0,1,2.75,2.22,5.91,5.91,0,0,1,1.21,3.85,6.9,6.9,0,0,1-1.18,4,7.56,7.56,0,0,1-3.33,2.65,14.07,14.07,0,0,1-10.18,0Z"/><path class="cls-2" d="M337.35,217.39a7.11,7.11,0,0,1,2.9,2.86,8.59,8.59,0,0,1,1,4.24,8,8,0,0,1-1.07,4.15,7.25,7.25,0,0,1-3,2.78,9.55,9.55,0,0,1-4.43,1h-5.27a.2.2,0,0,0-.22.23v9.3a.56.56,0,0,1-.64.64h-4a.56.56,0,0,1-.63-.64V217a.56.56,0,0,1,.63-.64H333A9,9,0,0,1,337.35,217.39ZM335,227.2a3.41,3.41,0,0,0,1-2.6,3.52,3.52,0,0,0-1-2.65,3.82,3.82,0,0,0-2.76-1h-4.71a.2.2,0,0,0-.22.23V228a.2.2,0,0,0,.22.22h4.71A3.86,3.86,0,0,0,335,227.2Z"/><path class="cls-2" d="M358.53,242.06l-1-3.48a.21.21,0,0,0-.22-.19h-9.16a.21.21,0,0,0-.22.19l-1,3.48a.7.7,0,0,1-.71.52h-4.33a.56.56,0,0,1-.49-.21.51.51,0,0,1,0-.5l8-24.92a.7.7,0,0,1,.71-.52h5.49a.7.7,0,0,1,.71.52l8,24.92a.52.52,0,0,1,0,.23.45.45,0,0,1-.15.35.6.6,0,0,1-.41.13h-4.33A.7.7,0,0,1,358.53,242.06Zm-9.15-7.73H356c.15,0,.21-.09.19-.26l-3.36-11.4c0-.1-.07-.15-.13-.15s-.12.05-.17.15l-3.33,11.4C349.17,234.23,349.23,234.32,349.38,234.32Z"/><path class="cls-2" d="M370.79,241.74a8.18,8.18,0,0,1-3.4-3.19,9.26,9.26,0,0,1-1.2-4.75v-8.63a9.27,9.27,0,0,1,1.2-4.75,8.07,8.07,0,0,1,3.4-3.18,11.16,11.16,0,0,1,5.12-1.12,11.43,11.43,0,0,1,5.06,1.07,8,8,0,0,1,3.4,3,8.45,8.45,0,0,1,1.21,4.54c0,.23-.2.36-.6.41l-4,.26h-.15c-.35,0-.52-.06-.52-.19V225a4.26,4.26,0,0,0-1.21-3.18,4.36,4.36,0,0,0-3.19-1.2,4.41,4.41,0,0,0-3.23,1.2,4.26,4.26,0,0,0-1.21,3.18v9a4.21,4.21,0,0,0,1.21,3.14,4.4,4.4,0,0,0,3.23,1.2,4.35,4.35,0,0,0,3.19-1.2,4.21,4.21,0,0,0,1.21-3.14.39.39,0,0,1,.17-.32.62.62,0,0,1,.47-.09l4,.19c.42.05.64.11.64.19v.19a8.55,8.55,0,0,1-1.21,4.56,8.13,8.13,0,0,1-3.4,3.06,11.26,11.26,0,0,1-5.06,1.08A11,11,0,0,1,370.79,241.74Z"/><path class="cls-2" d="M407,220.94h-12a.2.2,0,0,0-.22.23v5.72a.2.2,0,0,0,.22.23h7.81a.56.56,0,0,1,.64.63V231a.56.56,0,0,1-.64.64h-7.81a.2.2,0,0,0-.22.23v6a.2.2,0,0,0,.22.22h12a.56.56,0,0,1,.63.64v3.25a.56.56,0,0,1-.63.64H390.07a.56.56,0,0,1-.64-.64V217.06a.56.56,0,0,1,.64-.64H407a.56.56,0,0,1,.63.64v3.25A.56.56,0,0,1,407,220.94Z"/><path d="M1.49,426.87q-.09-.13.05-.38l7.67-12a.18.18,0,0,0,0-.22l-7.67-12a1.43,1.43,0,0,1-.07-.25c0-.17.12-.25.36-.25H3a.57.57,0,0,1,.5.29l6.77,10.69a.15.15,0,0,0,.11,0,.15.15,0,0,0,.11,0l6.77-10.69a.57.57,0,0,1,.5-.29h1.15a.4.4,0,0,1,.34.13q.09.13-.05.38l-7.63,12a.33.33,0,0,0,0,.22l7.63,12a1.51,1.51,0,0,1,.07.25q0,.25-.36.25H17.78a.56.56,0,0,1-.5-.29l-6.77-10.66a.12.12,0,0,0-.11-.07.11.11,0,0,0-.11.07L3.53,426.71A.56.56,0,0,1,3,427H1.84A.39.39,0,0,1,1.49,426.87Z"/><path d="M37.66,415.3q.07,1,.07,2.66a19.28,19.28,0,0,1-.4,4.54A6.44,6.44,0,0,1,35,426a6.61,6.61,0,0,1-4.14,1.3,6,6,0,0,1-2.83-.65,5.42,5.42,0,0,1-2-1.84s-.09-.07-.13-.05-.05.05-.05.13v1.69a.43.43,0,0,1-.43.43h-1a.43.43,0,0,1-.43-.43V402.23a.43.43,0,0,1,.43-.43h1a.43.43,0,0,1,.43.43v8.71a.11.11,0,0,0,.07.11.07.07,0,0,0,.11,0,5.28,5.28,0,0,1,2-1.82,6.16,6.16,0,0,1,2.83-.63,6.68,6.68,0,0,1,4.19,1.31,6.32,6.32,0,0,1,2.29,3.55A10.28,10.28,0,0,1,37.66,415.3Zm-1.94,5.27a23.05,23.05,0,0,0,.11-2.65,21.56,21.56,0,0,0-.13-2.77,6.49,6.49,0,0,0-.45-1.62,4.5,4.5,0,0,0-1.66-2.36,4.73,4.73,0,0,0-2.92-.92,4.37,4.37,0,0,0-2.81.92,4.26,4.26,0,0,0-1.51,2.39,7.66,7.66,0,0,0-.36,1.6,25.5,25.5,0,0,0-.11,2.79q0,1.84.09,2.7a6.36,6.36,0,0,0,.34,1.55,4.59,4.59,0,0,0,1.53,2.45,4.29,4.29,0,0,0,2.83.94,4.93,4.93,0,0,0,3-.94,4.34,4.34,0,0,0,1.66-2.45A9.26,9.26,0,0,0,35.71,420.57Z"/><path d="M45.56,426a6.62,6.62,0,0,1-2.43-3.56,17,17,0,0,1-.43-4.5,19.41,19.41,0,0,1,.4-4.46,6.5,6.5,0,0,1,2.45-3.55,7.8,7.8,0,0,1,8.69,0,6.38,6.38,0,0,1,2.43,3.53,18.3,18.3,0,0,1,.4,4.46,18.49,18.49,0,0,1-.4,4.5A6.37,6.37,0,0,1,54.23,426a7.14,7.14,0,0,1-4.34,1.33A7,7,0,0,1,45.56,426Zm7.6-1.4a4.74,4.74,0,0,0,1.75-2.81,21.81,21.81,0,0,0,.22-3.82,21.05,21.05,0,0,0-.22-3.82,4.75,4.75,0,0,0-1.75-2.81,5.23,5.23,0,0,0-3.29-1,5.15,5.15,0,0,0-3.28,1,4.77,4.77,0,0,0-1.73,2.81,33.77,33.77,0,0,0,0,7.63,4.77,4.77,0,0,0,1.73,2.81,5.69,5.69,0,0,0,6.57,0Z"/><path d="M60.48,426.84a.39.39,0,0,1,.07-.38l6-8.42a.18.18,0,0,0,0-.22l-6-8.42a.62.62,0,0,1-.11-.25c0-.19.13-.29.4-.29H62a.56.56,0,0,1,.5.29l5,7.2a.14.14,0,0,0,.11,0,.15.15,0,0,0,.11,0l5-7.2a.56.56,0,0,1,.5-.29h1.22c.19,0,.31.05.36.16a.39.39,0,0,1-.07.38l-6,8.42a.33.33,0,0,0,0,.22l6,8.42a.45.45,0,0,1,.11.25q0,.29-.4.29H73.29a.56.56,0,0,1-.5-.29l-5-7.16a.12.12,0,0,0-.22,0l-5,7.16a.56.56,0,0,1-.5.29H60.84C60.65,427,60.53,426.95,60.48,426.84Z"/><path d="M89.94,426.26A7.16,7.16,0,0,1,87,423.38a8.66,8.66,0,0,1-1-4.27v-9.43a8.66,8.66,0,0,1,1-4.27,7.17,7.17,0,0,1,2.92-2.88,9,9,0,0,1,4.37-1,9.12,9.12,0,0,1,4.39,1,7.26,7.26,0,0,1,3,2.88,8.55,8.55,0,0,1,1,4.27v9.43a8.54,8.54,0,0,1-1,4.27,7.26,7.26,0,0,1-3,2.88,9.12,9.12,0,0,1-4.39,1A9,9,0,0,1,89.94,426.26ZM99,423.87a6.29,6.29,0,0,0,1.78-4.68v-9.54a6.12,6.12,0,0,0-6.48-6.44A6.24,6.24,0,0,0,89.67,405a6.34,6.34,0,0,0-1.76,4.66v9.54A6.61,6.61,0,0,0,99,423.87Z"/><path d="M120.31,410.3a6,6,0,0,1,1.69,4.46v11.81a.43.43,0,0,1-.43.43h-1a.43.43,0,0,1-.43-.43V415.12a4.81,4.81,0,0,0-1.3-3.47,4.43,4.43,0,0,0-3.35-1.35,4.81,4.81,0,0,0-3.53,1.31,4.61,4.61,0,0,0-1.33,3.44v11.52a.43.43,0,0,1-.43.43h-1a.43.43,0,0,1-.43-.43V409.29a.43.43,0,0,1,.43-.43h1a.43.43,0,0,1,.43.43V411q0,.11.05.13s.07,0,.09-.05a5.16,5.16,0,0,1,2.11-1.82,6.87,6.87,0,0,1,3-.63A6,6,0,0,1,120.31,410.3Z"/><path d="M137.7,424.82a4.71,4.71,0,0,0,1.87-2.14.43.43,0,0,1,.58-.22l.65.25q.43.18.25.58a6.39,6.39,0,0,1-2.48,2.92,7.34,7.34,0,0,1-4,1.08,7,7,0,0,1-4.19-1.22,6.4,6.4,0,0,1-2.39-3.35,17.53,17.53,0,0,1-.5-4.82q0-1.76.05-2.66a9.6,9.6,0,0,1,.23-1.66,6.44,6.44,0,0,1,2.36-3.64,7,7,0,0,1,4.37-1.37,6.45,6.45,0,0,1,6.88,5.65,11.9,11.9,0,0,1,.2,1.49q.05.77.05,2.36,0,.47-.43.47h-11.7a.13.13,0,0,0-.14.14,17.33,17.33,0,0,0,.18,3.1,4.77,4.77,0,0,0,1.76,2.79,5.41,5.41,0,0,0,3.42,1.06A5.9,5.9,0,0,0,137.7,424.82Zm-8.39-8a.13.13,0,0,0,.14.14h10a.13.13,0,0,0,.14-.14,15.22,15.22,0,0,0-.18-2.74,4.84,4.84,0,0,0-1.73-2.79,5.6,5.6,0,0,0-6.52,0,4.56,4.56,0,0,0-1.66,2.72A15.93,15.93,0,0,0,129.31,416.85Z"/><path d="M158,426.35a7,7,0,0,1-2.9-2.75,8,8,0,0,1-1-4.09V409.25a7.85,7.85,0,0,1,1-4,7,7,0,0,1,2.9-2.72,10.09,10.09,0,0,1,8.6,0,7,7,0,0,1,2.9,2.68,7.67,7.67,0,0,1,1,4,.43.43,0,0,1-.43.43l-1,0q-.43,0-.43-.22v-.22a5.7,5.7,0,0,0-1.73-4.34,7.25,7.25,0,0,0-9.18,0,5.7,5.7,0,0,0-1.73,4.34v10.44A5.72,5.72,0,0,0,157.7,424a7.16,7.16,0,0,0,9.16,0,5.76,5.76,0,0,0,1.73-4.36c0-.26.14-.4.43-.4l1,0q.43,0,.43.18v.18a7.77,7.77,0,0,1-1,4,7,7,0,0,1-2.9,2.72,10,10,0,0,1-8.6,0Z"/><path d="M178.43,426a6.62,6.62,0,0,1-2.43-3.56,17,17,0,0,1-.43-4.5,19.41,19.41,0,0,1,.4-4.46,6.5,6.5,0,0,1,2.45-3.55,7.8,7.8,0,0,1,8.69,0,6.38,6.38,0,0,1,2.43,3.53,18.3,18.3,0,0,1,.4,4.46,18.49,18.49,0,0,1-.4,4.5,6.37,6.37,0,0,1-2.43,3.56,7.14,7.14,0,0,1-4.34,1.33A7,7,0,0,1,178.43,426Zm7.6-1.4a4.74,4.74,0,0,0,1.75-2.81,21.81,21.81,0,0,0,.22-3.82,21.05,21.05,0,0,0-.22-3.82A4.75,4.75,0,0,0,186,411.3a5.23,5.23,0,0,0-3.29-1,5.15,5.15,0,0,0-3.28,1,4.77,4.77,0,0,0-1.73,2.81,33.77,33.77,0,0,0,0,7.63,4.77,4.77,0,0,0,1.73,2.81,5.69,5.69,0,0,0,6.57,0Z"/><path d="M207.21,410.3a6,6,0,0,1,1.69,4.46v11.81a.43.43,0,0,1-.43.43h-1a.43.43,0,0,1-.43-.43V415.12a4.81,4.81,0,0,0-1.3-3.47,4.43,4.43,0,0,0-3.35-1.35,4.81,4.81,0,0,0-3.53,1.31,4.61,4.61,0,0,0-1.33,3.44v11.52a.43.43,0,0,1-.43.43h-1a.43.43,0,0,1-.43-.43V409.29a.43.43,0,0,1,.43-.43h1a.43.43,0,0,1,.43.43V411q0,.11.05.13s.07,0,.09-.05a5.16,5.16,0,0,1,2.11-1.82,6.87,6.87,0,0,1,3-.63A6,6,0,0,1,207.21,410.3Z"/><path d="M222.35,410.35a.41.41,0,0,1-.31.13H217.9a.13.13,0,0,0-.14.14V422a3.33,3.33,0,0,0,.83,2.57,4,4,0,0,0,2.66.74H222a.43.43,0,0,1,.43.43v.83a.38.38,0,0,1-.43.43l-1,0a6.23,6.23,0,0,1-3.78-1q-1.3-1-1.33-3.56V410.62a.13.13,0,0,0-.14-.14h-2.09a.43.43,0,0,1-.43-.43v-.76a.43.43,0,0,1,.43-.43h2.09a.13.13,0,0,0,.14-.14v-4a.43.43,0,0,1,.43-.43h1a.43.43,0,0,1,.43.43v4a.13.13,0,0,0,.14.14H222a.43.43,0,0,1,.43.43V410A.41.41,0,0,1,222.35,410.35Z"/><path d="M236.73,409.11a.4.4,0,0,1,.22.54l-.29,1q-.11.43-.54.25a5,5,0,0,0-1.73-.22,4.36,4.36,0,0,0-3.33,1.53,5.34,5.34,0,0,0-1.31,3.65v10.66a.43.43,0,0,1-.43.43h-1a.43.43,0,0,1-.43-.43V409.29a.43.43,0,0,1,.43-.43h1a.43.43,0,0,1,.43.43v2.38q0,.11.05.13s.07,0,.09-.09a5.92,5.92,0,0,1,2-2.2,5,5,0,0,1,2.83-.79A5.2,5.2,0,0,1,236.73,409.11Z"/><path d="M242.91,426a6.62,6.62,0,0,1-2.43-3.56,17,17,0,0,1-.43-4.5,19.41,19.41,0,0,1,.4-4.46,6.5,6.5,0,0,1,2.45-3.55,7.8,7.8,0,0,1,8.69,0,6.38,6.38,0,0,1,2.43,3.53,18.3,18.3,0,0,1,.4,4.46,18.49,18.49,0,0,1-.4,4.5,6.37,6.37,0,0,1-2.43,3.56,7.14,7.14,0,0,1-4.34,1.33A7,7,0,0,1,242.91,426Zm7.6-1.4a4.74,4.74,0,0,0,1.75-2.81,21.81,21.81,0,0,0,.22-3.82,21.05,21.05,0,0,0-.22-3.82,4.75,4.75,0,0,0-1.75-2.81,5.23,5.23,0,0,0-3.29-1,5.15,5.15,0,0,0-3.28,1,4.77,4.77,0,0,0-1.73,2.81,33.77,33.77,0,0,0,0,7.63,4.77,4.77,0,0,0,1.73,2.81,5.69,5.69,0,0,0,6.57,0Z"/><path d="M260.19,426.87a.42.42,0,0,1-.13-.31V402.23a.43.43,0,0,1,.43-.43h1a.43.43,0,0,1,.43.43v24.34a.43.43,0,0,1-.43.43h-1A.42.42,0,0,1,260.19,426.87Z"/><path d="M270.45,426.55a5.56,5.56,0,0,1-2.32-1.71,3.81,3.81,0,0,1-.83-2.38v-.4a.43.43,0,0,1,.43-.43h1a.45.45,0,0,1,.31.11.32.32,0,0,1,.13.25v.4a2.8,2.8,0,0,0,1.31,2.27,5.52,5.52,0,0,0,3.37,1,5.3,5.3,0,0,0,3.29-1,2.93,2.93,0,0,0,1.28-2.41,2.24,2.24,0,0,0-.65-1.66,4.35,4.35,0,0,0-1.55-1q-.9-.34-2.66-.88a29.5,29.5,0,0,1-3.24-1.15,5.72,5.72,0,0,1-2.07-1.53,3.72,3.72,0,0,1-.85-2.5,4.17,4.17,0,0,1,1.75-3.51,7.44,7.44,0,0,1,4.59-1.31,8.44,8.44,0,0,1,3.37.63,5.47,5.47,0,0,1,2.27,1.71,4,4,0,0,1,.81,2.45v0a.43.43,0,0,1-.43.43h-1a.61.61,0,0,1-.31-.07.21.21,0,0,1-.13-.18v-.22a2.73,2.73,0,0,0-1.28-2.29,6.63,6.63,0,0,0-6.61-.07,2.64,2.64,0,0,0-1.22,2.29,2.24,2.24,0,0,0,1.13,2.05,16.26,16.26,0,0,0,3.55,1.4,31.83,31.83,0,0,1,3.37,1.13,5.91,5.91,0,0,1,2.14,1.53,3.75,3.75,0,0,1,.9,2.59,4.42,4.42,0,0,1-1.76,3.65,7.36,7.36,0,0,1-4.68,1.39A8.78,8.78,0,0,1,270.45,426.55Z"/><path d="M85.89,486.92a.27.27,0,0,1-.08-.2V470.49a.29.29,0,0,1,.29-.29h.74a.38.38,0,0,1,.34.19l4.63,7.32a.09.09,0,0,0,.07,0,.1.1,0,0,0,.07,0l4.66-7.32a.38.38,0,0,1,.34-.19h.74a.29.29,0,0,1,.29.29v16.22a.29.29,0,0,1-.29.29H97a.29.29,0,0,1-.29-.29v-14s0-.08,0-.08-.06,0-.07.06l-4.15,6.58a.34.34,0,0,1-.34.19h-.38a.37.37,0,0,1-.34-.19l-4.18-6.58s0-.07-.07-.06,0,0,0,.08v14a.29.29,0,0,1-.29.29h-.7A.27.27,0,0,1,85.89,486.92Z"/><path d="M104,486.3a4.41,4.41,0,0,1-1.62-2.38,11.35,11.35,0,0,1-.29-3,12.93,12.93,0,0,1,.26-3,4.33,4.33,0,0,1,1.63-2.36,5.2,5.2,0,0,1,5.8,0,4.26,4.26,0,0,1,1.62,2.35,12.21,12.21,0,0,1,.26,3,12.35,12.35,0,0,1-.26,3,4.25,4.25,0,0,1-1.62,2.38,4.76,4.76,0,0,1-2.89.89A4.69,4.69,0,0,1,104,486.3Zm5.06-.94a3.16,3.16,0,0,0,1.16-1.87,14.52,14.52,0,0,0,.14-2.54,14,14,0,0,0-.14-2.54,3.16,3.16,0,0,0-1.16-1.87,3.48,3.48,0,0,0-2.2-.7,3.43,3.43,0,0,0-2.18.7,3.18,3.18,0,0,0-1.15,1.87,22.54,22.54,0,0,0,0,5.09,3.18,3.18,0,0,0,1.15,1.87,3.79,3.79,0,0,0,4.38,0Z"/><path d="M117.77,486.76l-3.94-11.52a.27.27,0,0,1,0-.12c0-.14.08-.22.24-.22h.82a.3.3,0,0,1,.31.24l3.26,9.91a.08.08,0,0,0,.07,0,.08.08,0,0,0,.07,0l3.26-9.91a.3.3,0,0,1,.31-.24l.82,0a.23.23,0,0,1,.2.08.29.29,0,0,1,0,.25l-3.94,11.5a.3.3,0,0,1-.31.24h-.86A.3.3,0,0,1,117.77,486.76Z"/><path d="M132.32,485.55a3.14,3.14,0,0,0,1.25-1.43.29.29,0,0,1,.38-.14l.43.17q.29.12.17.38a4.26,4.26,0,0,1-1.66,1.94,4.89,4.89,0,0,1-2.69.72,4.68,4.68,0,0,1-2.8-.82,4.27,4.27,0,0,1-1.6-2.23,11.69,11.69,0,0,1-.34-3.22q0-1.17,0-1.78a6.42,6.42,0,0,1,.16-1.1,4.29,4.29,0,0,1,1.57-2.42,4.65,4.65,0,0,1,2.92-.91,4.3,4.3,0,0,1,4.58,3.77,7.84,7.84,0,0,1,.13,1q0,.52,0,1.57,0,.31-.29.31h-7.8a.08.08,0,0,0-.1.1,11.55,11.55,0,0,0,.12,2.06,3.18,3.18,0,0,0,1.18,1.86,3.6,3.6,0,0,0,2.28.71A3.93,3.93,0,0,0,132.32,485.55Zm-5.59-5.32a.08.08,0,0,0,.1.1h6.7a.08.08,0,0,0,.1-.1,10.17,10.17,0,0,0-.12-1.82,3.23,3.23,0,0,0-1.15-1.86,3.74,3.74,0,0,0-4.34,0,3,3,0,0,0-1.1,1.81A10.62,10.62,0,0,0,126.73,480.23Z"/><path d="M326.9,486.58a4.48,4.48,0,0,1-1.86-1.72,4.91,4.91,0,0,1-.66-2.57v-1.15a.29.29,0,0,1,.29-.29h.7a.29.29,0,0,1,.29.29v1.15a3.57,3.57,0,0,0,1.1,2.74,4.12,4.12,0,0,0,2.93,1,4.16,4.16,0,0,0,2.94-1,3.55,3.55,0,0,0,1.12-2.74V470.49a.29.29,0,0,1,.29-.29h.7a.29.29,0,0,1,.29.29V482.3a4.91,4.91,0,0,1-.66,2.57,4.48,4.48,0,0,1-1.87,1.72,6.12,6.12,0,0,1-2.8.61A6,6,0,0,1,326.9,486.58Z"/><path d="M347,475a.28.28,0,0,1,.2-.08h.67a.28.28,0,0,1,.2.08.28.28,0,0,1,.08.2v11.52a.28.28,0,0,1-.08.2.28.28,0,0,1-.2.08h-.67a.29.29,0,0,1-.29-.29v-1.13s0-.08,0-.08-.06,0-.07.06a3.22,3.22,0,0,1-1.36,1.2,4.59,4.59,0,0,1-2,.41,4.25,4.25,0,0,1-3-1.06,3.71,3.71,0,0,1-1.18-2.9v-8a.29.29,0,0,1,.29-.29h.67a.28.28,0,0,1,.2.08.28.28,0,0,1,.08.2v7.68a3.14,3.14,0,0,0,.85,2.3,3,3,0,0,0,2.27.86,3.2,3.2,0,0,0,2.35-.88,3.08,3.08,0,0,0,.89-2.29v-7.68A.28.28,0,0,1,347,475Z"/><path d="M367.19,475.79a3.92,3.92,0,0,1,1.06,2.9v8a.29.29,0,0,1-.29.29h-.67a.29.29,0,0,1-.29-.29v-7.78a3,3,0,0,0-.83-2.24,2.9,2.9,0,0,0-2.15-.83,3.11,3.11,0,0,0-2.24.82,2.92,2.92,0,0,0-.85,2.21v7.82a.29.29,0,0,1-.29.29H360a.29.29,0,0,1-.29-.29v-7.78a3.06,3.06,0,0,0-.82-2.24,2.86,2.86,0,0,0-2.14-.83,3.06,3.06,0,0,0-2.24.82,3,3,0,0,0-.83,2.21v7.82a.29.29,0,0,1-.29.29h-.7a.29.29,0,0,1-.29-.29V475.19a.29.29,0,0,1,.29-.29h.7a.29.29,0,0,1,.29.29v1a.08.08,0,0,0,0,.07,0,0,0,0,0,.07,0,3.12,3.12,0,0,1,1.36-1.15,4.66,4.66,0,0,1,1.93-.38,4.1,4.1,0,0,1,2.15.54,3.4,3.4,0,0,1,1.36,1.52c0,.06.07.07.12,0a3.47,3.47,0,0,1,1.46-1.56,4.56,4.56,0,0,1,2.23-.53A3.8,3.8,0,0,1,367.19,475.79Z"/><path d="M381.59,480.93q0,1.08,0,1.78a6.83,6.83,0,0,1-.19,1.25,4.21,4.21,0,0,1-1.52,2.36,4.45,4.45,0,0,1-2.8.88,4.12,4.12,0,0,1-1.88-.42,3.53,3.53,0,0,1-1.36-1.21,0,0,0,0,0-.07,0,.08.08,0,0,0,0,.07v5.81a.29.29,0,0,1-.29.29h-.7a.29.29,0,0,1-.29-.29V475.19a.29.29,0,0,1,.29-.29h.7a.29.29,0,0,1,.29.29v1.13s0,.08,0,.08.05,0,.08,0a3.62,3.62,0,0,1,1.36-1.22,4,4,0,0,1,1.88-.43,4.4,4.4,0,0,1,2.76.86,4.3,4.3,0,0,1,1.54,2.33A12.85,12.85,0,0,1,381.59,480.93Zm-1.36,1.87a14.28,14.28,0,0,0,.08-1.85,15.47,15.47,0,0,0-.07-1.76,6.19,6.19,0,0,0-.24-1.09,2.89,2.89,0,0,0-1.1-1.63,3.29,3.29,0,0,0-2-.62,2.86,2.86,0,0,0-1.88.62,3.06,3.06,0,0,0-1,1.63,4.27,4.27,0,0,0-.23,1q-.06.56-.06,1.81a17,17,0,0,0,.07,1.86,5.11,5.11,0,0,0,.24,1.07,2.84,2.84,0,0,0,1,1.6,2.91,2.91,0,0,0,1.87.61,3.15,3.15,0,0,0,1.94-.61,3,3,0,0,0,1.1-1.57A4.31,4.31,0,0,0,380.24,482.8Z"/><path d="M505.91,486.76l-1-3.14a.09.09,0,0,0-.1-.07h-7.49a.09.09,0,0,0-.1.07l-1,3.14a.3.3,0,0,1-.31.24h-.77a.27.27,0,0,1-.22-.08.26.26,0,0,1,0-.25l5.33-16.22a.3.3,0,0,1,.31-.24h1a.3.3,0,0,1,.31.24l5.35,16.22a.27.27,0,0,1,0,.12c0,.14-.09.22-.26.22h-.74A.3.3,0,0,1,505.91,486.76Zm-8.32-4.31a.12.12,0,0,0,.08,0h6.72a.12.12,0,0,0,.08,0,.07.07,0,0,0,0-.08l-3.41-10.51a.08.08,0,0,0-.14,0l-3.36,10.51A.07.07,0,0,0,497.59,482.45Z"/><path d="M515,475.9a.28.28,0,0,1-.2.08H512a.09.09,0,0,0-.1.1v7.56a2.22,2.22,0,0,0,.55,1.72,2.63,2.63,0,0,0,1.78.49h.5a.29.29,0,0,1,.29.29v.55a.25.25,0,0,1-.29.29l-.67,0a4.15,4.15,0,0,1-2.52-.65,2.86,2.86,0,0,1-.89-2.38v-7.9a.08.08,0,0,0-.1-.1H509.2a.29.29,0,0,1-.29-.29v-.5a.29.29,0,0,1,.29-.29h1.39a.09.09,0,0,0,.1-.1v-2.69a.29.29,0,0,1,.29-.29h.67a.29.29,0,0,1,.29.29v2.69a.09.09,0,0,0,.1.1h2.76a.29.29,0,0,1,.29.29v.5A.28.28,0,0,1,515,475.9Z"/><path d="M523.61,475.9a.28.28,0,0,1-.2.08h-2.76a.09.09,0,0,0-.1.1v7.56a2.22,2.22,0,0,0,.55,1.72,2.63,2.63,0,0,0,1.78.49h.5a.29.29,0,0,1,.29.29v.55a.25.25,0,0,1-.29.29l-.67,0a4.15,4.15,0,0,1-2.52-.65,2.86,2.86,0,0,1-.89-2.38v-7.9a.08.08,0,0,0-.1-.1h-1.39a.29.29,0,0,1-.29-.29v-.5a.29.29,0,0,1,.29-.29h1.39a.09.09,0,0,0,.1-.1v-2.69a.29.29,0,0,1,.29-.29h.67a.29.29,0,0,1,.29.29v2.69a.09.09,0,0,0,.1.1h2.76a.29.29,0,0,1,.29.29v.5A.28.28,0,0,1,523.61,475.9Z"/><path d="M534.49,475.8a4,4,0,0,1,1.1,2.94v8a.28.28,0,0,1-.08.2.28.28,0,0,1-.2.08h-.7a.29.29,0,0,1-.29-.29v-1a.08.08,0,0,0,0-.07s-.05,0-.08,0a3.86,3.86,0,0,1-1.66,1.16,6.12,6.12,0,0,1-2.21.4,4.62,4.62,0,0,1-2.81-.83,3,3,0,0,1-1.13-2.58,3.38,3.38,0,0,1,1.32-2.81,5.74,5.74,0,0,1,3.62-1h2.88a.09.09,0,0,0,.1-.1v-1.08a3,3,0,0,0-.74-2.15,3.09,3.09,0,0,0-2.33-.78,3.76,3.76,0,0,0-2,.49,2.07,2.07,0,0,0-1,1.33q-.07.29-.34.24l-.74-.1q-.31,0-.26-.26a3.09,3.09,0,0,1,1.42-2.05,5.23,5.23,0,0,1,3-.78A4.39,4.39,0,0,1,534.49,475.8Zm-1.28,9.54a2.35,2.35,0,0,0,1.12-2.06V481.1a.09.09,0,0,0-.1-.1h-2.74a4.8,4.8,0,0,0-2.77.72,2.29,2.29,0,0,0-1,2,2.07,2.07,0,0,0,.82,1.78,3.44,3.44,0,0,0,2.09.6A4.62,4.62,0,0,0,533.21,485.34Z"/><path d="M540.91,486.3a4.29,4.29,0,0,1-1.6-2.38,11.78,11.78,0,0,1-.31-3,12,12,0,0,1,.31-3,4.15,4.15,0,0,1,1.58-2.35,4.75,4.75,0,0,1,2.9-.89,5,5,0,0,1,2.94.86,3.76,3.76,0,0,1,1.57,2.16,3.66,3.66,0,0,1,.14.62v0c0,.14-.09.23-.26.26l-.67.1h0c-.14,0-.24-.09-.29-.26a1.34,1.34,0,0,0,0-.29,2.82,2.82,0,0,0-1.13-1.69,3.58,3.58,0,0,0-2.21-.68,3.42,3.42,0,0,0-2.2.7,3.08,3.08,0,0,0-1.12,1.85,11.76,11.76,0,0,0-.22,2.57,11.22,11.22,0,0,0,.22,2.54,3.09,3.09,0,0,0,1.12,1.87,3.42,3.42,0,0,0,2.2.7,3.63,3.63,0,0,0,2.22-.68,2.71,2.71,0,0,0,1.12-1.72l0-.1a.26.26,0,0,1,.12-.18.29.29,0,0,1,.22,0l.65.07a.4.4,0,0,1,.2.11.25.25,0,0,1,.06.23l-.1.38a3.71,3.71,0,0,1-1.57,2.2,5.05,5.05,0,0,1-2.94.85A4.69,4.69,0,0,1,540.91,486.3Z"/><path d="M551.88,486.92a.28.28,0,0,1-.08-.2V470.49a.29.29,0,0,1,.29-.29h.7a.29.29,0,0,1,.29.29v10.2a.08.08,0,0,0,0,.07s.05,0,.08,0l5.52-5.69a.49.49,0,0,1,.36-.14h.84c.16,0,.24.06.24.17a.28.28,0,0,1-.1.19l-3,3.19a.11.11,0,0,0,0,.12l3.67,8.09a.38.38,0,0,1,0,.14c0,.13-.09.19-.26.19h-.74a.34.34,0,0,1-.34-.22l-3.24-7.34c0-.06-.07-.07-.12,0l-2.93,3a.16.16,0,0,0,0,.12v4.15a.29.29,0,0,1-.29.29h-.7A.28.28,0,0,1,551.88,486.92Z"/><path class="cls-1" d="M80,1001.18a3.39,3.39,0,0,1-2,.79l-34.16,2.31a2.87,2.87,0,0,1-2.86-2.86V959.48a2.87,2.87,0,0,1,2.86-2.86l34.16,2.31a3.39,3.39,0,0,1,2,.79l14.45,12.2a4.71,4.71,0,0,1,1.38,3.33v10.4A4.71,4.71,0,0,1,94.49,989Z"/><path class="cls-1" d="M140.3,959.72a3.39,3.39,0,0,1,2-.79l34.16-2.31a2.87,2.87,0,0,1,2.86,2.86v41.95a2.87,2.87,0,0,1-2.86,2.86L142.26,1002a3.39,3.39,0,0,1-2-.79L125.85,989a4.71,4.71,0,0,1-1.38-3.33v-10.4a4.71,4.71,0,0,1,1.38-3.33Z"/><path class="cls-1" d="M133.28,1012a3.39,3.39,0,0,1,.79,2l2.31,34.16a2.87,2.87,0,0,1-2.86,2.86H91.58a2.87,2.87,0,0,1-2.86-2.86L91,1014a3.39,3.39,0,0,1,.79-2L104,997.56a4.71,4.71,0,0,1,3.33-1.38h10.4a4.71,4.71,0,0,1,3.33,1.38Z"/><path class="cls-1" d="M89.43,952a3.39,3.39,0,0,1-.79-2l-2.31-34.16A2.87,2.87,0,0,1,89.19,913h41.95a2.87,2.87,0,0,1,2.86,2.86L131.69,950a3.39,3.39,0,0,1-.79,2l-12.2,14.45a4.71,4.71,0,0,1-3.33,1.38H105a4.71,4.71,0,0,1-3.33-1.38Z"/><rect class="cls-1" x="497.5" y="951" width="61" height="61" rx="30.5" ry="30.5"/><path class="cls-3" d="M541.47,1000.11H514.53A5.14,5.14,0,0,1,509.4,995V968a5.14,5.14,0,0,1,5.13-5.13h26.94a5.14,5.14,0,0,1,5.13,5.13V995A5.14,5.14,0,0,1,541.47,1000.11Zm-26.94-33.25a1.17,1.17,0,0,0-1.17,1.17V995a1.17,1.17,0,0,0,1.17,1.17h26.94a1.17,1.17,0,0,0,1.17-1.17V968a1.17,1.17,0,0,0-1.17-1.17Z"/><rect class="cls-1" x="322" y="951" width="60" height="60" rx="30" ry="30"/><path class="cls-4" d="M366.78,997.88a2,2,0,0,1-1.38-.57l-29.85-29.85a2,2,0,0,1,2.76-2.76l29.85,29.85a2,2,0,0,1-1.38,3.33Z"/><path class="cls-4" d="M336.93,997.88a2,2,0,0,1-1.38-3.33L365.4,964.7a2,2,0,0,1,2.76,2.76L338.3,997.3A2,2,0,0,1,336.93,997.88Z"/><path class="cls-1" d="M179,565.76v40.48a2.77,2.77,0,0,1-2.76,2.76H135.76a2.77,2.77,0,0,0-2.76,2.76v40.48a2.77,2.77,0,0,1-2.76,2.76H89.76A2.77,2.77,0,0,1,87,652.24V611.76A2.77,2.77,0,0,0,84.24,609H43.76A2.77,2.77,0,0,1,41,606.24V565.76A2.77,2.77,0,0,1,43.76,563H84.24A2.77,2.77,0,0,0,87,560.24V519.76A2.77,2.77,0,0,1,89.76,517h40.48a2.77,2.77,0,0,1,2.76,2.76v40.48a2.77,2.77,0,0,0,2.76,2.76h40.48A2.77,2.77,0,0,1,179,565.76Z"/><rect class="cls-1" x="322.34" y="555.37" width="60.62" height="60.63" rx="30.31" ry="30.31"/><path class="cls-5" d="M360.25,602l-1.36-4.51a.27.27,0,0,0-.29-.24H346.71a.27.27,0,0,0-.29.24L345.07,602a.91.91,0,0,1-.92.68h-5.63a.73.73,0,0,1-.63-.27.66.66,0,0,1,0-.66l10.33-32.35a.91.91,0,0,1,.92-.68h7.13a.91.91,0,0,1,.92.68l10.33,32.35a.67.67,0,0,1,0,.29.58.58,0,0,1-.19.46.78.78,0,0,1-.53.17h-5.63A.91.91,0,0,1,360.25,602Zm-11.88-10h8.58c.19,0,.27-.11.24-.34l-4.36-14.79c0-.13-.09-.19-.17-.19s-.15.07-.22.19l-4.32,14.79C348.09,591.83,348.17,591.94,348.36,591.94Z"/><rect class="cls-1" x="497.09" y="556.16" width="60.84" height="60.84" rx="30.42" ry="30.42"/><path class="cls-6" d="M513.94,603.49a.46.46,0,0,1-.2-.39.72.72,0,0,1,.15-.44l9.26-15.88a.79.79,0,0,0,0-.39l-9.26-15.89a.87.87,0,0,1-.15-.44.46.46,0,0,1,.2-.39.86.86,0,0,1,.54-.15h5.65a1,1,0,0,1,1,.58L527.34,581a.27.27,0,0,0,.22.14.18.18,0,0,0,.17-.14l6.19-10.91a1,1,0,0,1,1-.58h5.6a.86.86,0,0,1,.54.15.46.46,0,0,1,.2.39.86.86,0,0,1-.15.44l-9.26,15.89a.79.79,0,0,0,0,.39l9.26,15.88a.72.72,0,0,1,.15.44.46.46,0,0,1-.2.39.88.88,0,0,1-.54.15h-5.6a1,1,0,0,1-1-.58l-6.19-10.87c0-.1-.09-.15-.17-.15a.27.27,0,0,0-.22.15L521.1,603a1,1,0,0,1-1,.58h-5.6A.87.87,0,0,1,513.94,603.49Z"/><path d="M1.49,821.87q-.09-.13.05-.38l7.67-12a.18.18,0,0,0,0-.22l-7.67-12a1.43,1.43,0,0,1-.07-.25c0-.17.12-.25.36-.25H3a.57.57,0,0,1,.5.29l6.77,10.69a.15.15,0,0,0,.11,0,.15.15,0,0,0,.11,0l6.77-10.69a.57.57,0,0,1,.5-.29h1.15a.4.4,0,0,1,.34.13q.09.13-.05.38l-7.63,12a.33.33,0,0,0,0,.22l7.63,12a1.51,1.51,0,0,1,.07.25q0,.25-.36.25H17.78a.56.56,0,0,1-.5-.29l-6.77-10.66a.12.12,0,0,0-.11-.07.11.11,0,0,0-.11.07L3.53,821.71A.56.56,0,0,1,3,822H1.84A.39.39,0,0,1,1.49,821.87Z"/><path d="M37.66,810.3q.07,1,.07,2.66a19.28,19.28,0,0,1-.4,4.54A6.44,6.44,0,0,1,35,821a6.61,6.61,0,0,1-4.14,1.3,6,6,0,0,1-2.83-.65,5.42,5.42,0,0,1-2-1.84s-.09-.07-.13-.05-.05.05-.05.13v1.69a.43.43,0,0,1-.43.43h-1a.43.43,0,0,1-.43-.43V797.23a.43.43,0,0,1,.43-.43h1a.43.43,0,0,1,.43.43v8.71a.11.11,0,0,0,.07.11.07.07,0,0,0,.11,0,5.28,5.28,0,0,1,2-1.82,6.16,6.16,0,0,1,2.83-.63,6.68,6.68,0,0,1,4.19,1.31,6.32,6.32,0,0,1,2.29,3.55A10.28,10.28,0,0,1,37.66,810.3Zm-1.94,5.27a23.05,23.05,0,0,0,.11-2.65,21.56,21.56,0,0,0-.13-2.77,6.49,6.49,0,0,0-.45-1.62,4.5,4.5,0,0,0-1.66-2.36,4.73,4.73,0,0,0-2.92-.92,4.37,4.37,0,0,0-2.81.92,4.26,4.26,0,0,0-1.51,2.39,7.66,7.66,0,0,0-.36,1.6,25.5,25.5,0,0,0-.11,2.79q0,1.84.09,2.7a6.36,6.36,0,0,0,.34,1.55,4.59,4.59,0,0,0,1.53,2.45,4.29,4.29,0,0,0,2.83.94,4.93,4.93,0,0,0,3-.94,4.34,4.34,0,0,0,1.66-2.45A9.26,9.26,0,0,0,35.71,815.57Z"/><path d="M45.56,821a6.62,6.62,0,0,1-2.43-3.56,17,17,0,0,1-.43-4.5,19.41,19.41,0,0,1,.4-4.46,6.5,6.5,0,0,1,2.45-3.55,7.8,7.8,0,0,1,8.69,0,6.38,6.38,0,0,1,2.43,3.53,18.3,18.3,0,0,1,.4,4.46,18.49,18.49,0,0,1-.4,4.5A6.37,6.37,0,0,1,54.23,821a7.14,7.14,0,0,1-4.34,1.33A7,7,0,0,1,45.56,821Zm7.6-1.4a4.74,4.74,0,0,0,1.75-2.81,21.81,21.81,0,0,0,.22-3.82,21.05,21.05,0,0,0-.22-3.82,4.75,4.75,0,0,0-1.75-2.81,5.23,5.23,0,0,0-3.29-1,5.15,5.15,0,0,0-3.28,1,4.77,4.77,0,0,0-1.73,2.81,33.77,33.77,0,0,0,0,7.63,4.77,4.77,0,0,0,1.73,2.81,5.69,5.69,0,0,0,6.57,0Z"/><path d="M60.48,821.84a.39.39,0,0,1,.07-.38l6-8.42a.18.18,0,0,0,0-.22l-6-8.42a.62.62,0,0,1-.11-.25c0-.19.13-.29.4-.29H62a.56.56,0,0,1,.5.29l5,7.2a.14.14,0,0,0,.11,0,.15.15,0,0,0,.11,0l5-7.2a.56.56,0,0,1,.5-.29h1.22c.19,0,.31.05.36.16a.39.39,0,0,1-.07.38l-6,8.42a.33.33,0,0,0,0,.22l6,8.42a.45.45,0,0,1,.11.25q0,.29-.4.29H73.29a.56.56,0,0,1-.5-.29l-5-7.16a.12.12,0,0,0-.22,0l-5,7.16a.56.56,0,0,1-.5.29H60.84C60.65,822,60.53,821.95,60.48,821.84Z"/><path d="M89.94,821.26A7.16,7.16,0,0,1,87,818.38a8.66,8.66,0,0,1-1-4.27v-9.43a8.66,8.66,0,0,1,1-4.27,7.17,7.17,0,0,1,2.92-2.88,9,9,0,0,1,4.37-1,9.12,9.12,0,0,1,4.39,1,7.26,7.26,0,0,1,3,2.88,8.55,8.55,0,0,1,1,4.27v9.43a8.54,8.54,0,0,1-1,4.27,7.26,7.26,0,0,1-3,2.88,9.12,9.12,0,0,1-4.39,1A9,9,0,0,1,89.94,821.26ZM99,818.87a6.29,6.29,0,0,0,1.78-4.68v-9.54a6.12,6.12,0,0,0-6.48-6.44A6.24,6.24,0,0,0,89.67,800a6.34,6.34,0,0,0-1.76,4.66v9.54A6.61,6.61,0,0,0,99,818.87Z"/><path d="M120.31,805.3a6,6,0,0,1,1.69,4.46v11.81a.43.43,0,0,1-.43.43h-1a.43.43,0,0,1-.43-.43V810.12a4.81,4.81,0,0,0-1.3-3.47,4.43,4.43,0,0,0-3.35-1.35,4.81,4.81,0,0,0-3.53,1.31,4.61,4.61,0,0,0-1.33,3.44v11.52a.43.43,0,0,1-.43.43h-1a.43.43,0,0,1-.43-.43V804.29a.43.43,0,0,1,.43-.43h1a.43.43,0,0,1,.43.43V806q0,.11.05.13s.07,0,.09-.05a5.16,5.16,0,0,1,2.11-1.82,6.87,6.87,0,0,1,3-.63A6,6,0,0,1,120.31,805.3Z"/><path d="M137.7,819.82a4.71,4.71,0,0,0,1.87-2.14.43.43,0,0,1,.58-.22l.65.25q.43.18.25.58a6.39,6.39,0,0,1-2.48,2.92,7.34,7.34,0,0,1-4,1.08,7,7,0,0,1-4.19-1.22,6.4,6.4,0,0,1-2.39-3.35,17.53,17.53,0,0,1-.5-4.82q0-1.76.05-2.66a9.6,9.6,0,0,1,.23-1.66,6.44,6.44,0,0,1,2.36-3.64,7,7,0,0,1,4.37-1.37,6.45,6.45,0,0,1,6.88,5.65,11.9,11.9,0,0,1,.2,1.49q.05.77.05,2.36,0,.47-.43.47h-11.7a.13.13,0,0,0-.14.14,17.33,17.33,0,0,0,.18,3.1,4.77,4.77,0,0,0,1.76,2.79,5.41,5.41,0,0,0,3.42,1.06A5.9,5.9,0,0,0,137.7,819.82Zm-8.39-8a.13.13,0,0,0,.14.14h10a.13.13,0,0,0,.14-.14,15.22,15.22,0,0,0-.18-2.74,4.84,4.84,0,0,0-1.73-2.79,5.6,5.6,0,0,0-6.52,0,4.56,4.56,0,0,0-1.66,2.72A15.93,15.93,0,0,0,129.31,811.85Z"/><path d="M158,821.35a7,7,0,0,1-2.9-2.75,8,8,0,0,1-1-4.09V804.25a7.85,7.85,0,0,1,1-4,7,7,0,0,1,2.9-2.72,10.09,10.09,0,0,1,8.6,0,7,7,0,0,1,2.9,2.68,7.67,7.67,0,0,1,1,4,.43.43,0,0,1-.43.43l-1,0q-.43,0-.43-.22v-.22a5.7,5.7,0,0,0-1.73-4.34,7.25,7.25,0,0,0-9.18,0,5.7,5.7,0,0,0-1.73,4.34v10.44A5.72,5.72,0,0,0,157.7,819a7.16,7.16,0,0,0,9.16,0,5.76,5.76,0,0,0,1.73-4.36c0-.26.14-.4.43-.4l1,0q.43,0,.43.18v.18a7.77,7.77,0,0,1-1,4,7,7,0,0,1-2.9,2.72,10,10,0,0,1-8.6,0Z"/><path d="M178.43,821a6.62,6.62,0,0,1-2.43-3.56,17,17,0,0,1-.43-4.5,19.41,19.41,0,0,1,.4-4.46,6.5,6.5,0,0,1,2.45-3.55,7.8,7.8,0,0,1,8.69,0,6.38,6.38,0,0,1,2.43,3.53,18.3,18.3,0,0,1,.4,4.46,18.49,18.49,0,0,1-.4,4.5,6.37,6.37,0,0,1-2.43,3.56,7.14,7.14,0,0,1-4.34,1.33A7,7,0,0,1,178.43,821Zm7.6-1.4a4.74,4.74,0,0,0,1.75-2.81,21.81,21.81,0,0,0,.22-3.82,21.05,21.05,0,0,0-.22-3.82A4.75,4.75,0,0,0,186,806.3a5.23,5.23,0,0,0-3.29-1,5.15,5.15,0,0,0-3.28,1,4.77,4.77,0,0,0-1.73,2.81,33.77,33.77,0,0,0,0,7.63,4.77,4.77,0,0,0,1.73,2.81,5.69,5.69,0,0,0,6.57,0Z"/><path d="M207.21,805.3a6,6,0,0,1,1.69,4.46v11.81a.43.43,0,0,1-.43.43h-1a.43.43,0,0,1-.43-.43V810.12a4.81,4.81,0,0,0-1.3-3.47,4.43,4.43,0,0,0-3.35-1.35,4.81,4.81,0,0,0-3.53,1.31,4.61,4.61,0,0,0-1.33,3.44v11.52a.43.43,0,0,1-.43.43h-1a.43.43,0,0,1-.43-.43V804.29a.43.43,0,0,1,.43-.43h1a.43.43,0,0,1,.43.43V806q0,.11.05.13s.07,0,.09-.05a5.16,5.16,0,0,1,2.11-1.82,6.87,6.87,0,0,1,3-.63A6,6,0,0,1,207.21,805.3Z"/><path d="M222.35,805.35a.41.41,0,0,1-.31.13H217.9a.13.13,0,0,0-.14.14V817a3.33,3.33,0,0,0,.83,2.57,4,4,0,0,0,2.66.74H222a.43.43,0,0,1,.43.43v.83a.38.38,0,0,1-.43.43l-1,0a6.23,6.23,0,0,1-3.78-1q-1.3-1-1.33-3.56V805.62a.13.13,0,0,0-.14-.14h-2.09a.43.43,0,0,1-.43-.43v-.76a.43.43,0,0,1,.43-.43h2.09a.13.13,0,0,0,.14-.14v-4a.43.43,0,0,1,.43-.43h1a.43.43,0,0,1,.43.43v4a.13.13,0,0,0,.14.14H222a.43.43,0,0,1,.43.43V805A.41.41,0,0,1,222.35,805.35Z"/><path d="M236.73,804.11a.4.4,0,0,1,.22.54l-.29,1q-.11.43-.54.25a5,5,0,0,0-1.73-.22,4.36,4.36,0,0,0-3.33,1.53,5.34,5.34,0,0,0-1.31,3.65v10.66a.43.43,0,0,1-.43.43h-1a.43.43,0,0,1-.43-.43V804.29a.43.43,0,0,1,.43-.43h1a.43.43,0,0,1,.43.43v2.38q0,.11.05.13s.07,0,.09-.09a5.92,5.92,0,0,1,2-2.2,5,5,0,0,1,2.83-.79A5.2,5.2,0,0,1,236.73,804.11Z"/><path d="M242.91,821a6.62,6.62,0,0,1-2.43-3.56,17,17,0,0,1-.43-4.5,19.41,19.41,0,0,1,.4-4.46,6.5,6.5,0,0,1,2.45-3.55,7.8,7.8,0,0,1,8.69,0,6.38,6.38,0,0,1,2.43,3.53,18.3,18.3,0,0,1,.4,4.46,18.49,18.49,0,0,1-.4,4.5,6.37,6.37,0,0,1-2.43,3.56,7.14,7.14,0,0,1-4.34,1.33A7,7,0,0,1,242.91,821Zm7.6-1.4a4.74,4.74,0,0,0,1.75-2.81,21.81,21.81,0,0,0,.22-3.82,21.05,21.05,0,0,0-.22-3.82,4.75,4.75,0,0,0-1.75-2.81,5.23,5.23,0,0,0-3.29-1,5.15,5.15,0,0,0-3.28,1,4.77,4.77,0,0,0-1.73,2.81,33.77,33.77,0,0,0,0,7.63,4.77,4.77,0,0,0,1.73,2.81,5.69,5.69,0,0,0,6.57,0Z"/><path d="M260.19,821.87a.42.42,0,0,1-.13-.31V797.23a.43.43,0,0,1,.43-.43h1a.43.43,0,0,1,.43.43v24.34a.43.43,0,0,1-.43.43h-1A.42.42,0,0,1,260.19,821.87Z"/><path d="M270.45,821.55a5.56,5.56,0,0,1-2.32-1.71,3.81,3.81,0,0,1-.83-2.38v-.4a.43.43,0,0,1,.43-.43h1a.45.45,0,0,1,.31.11.32.32,0,0,1,.13.25v.4a2.8,2.8,0,0,0,1.31,2.27,5.52,5.52,0,0,0,3.37,1,5.3,5.3,0,0,0,3.29-1,2.93,2.93,0,0,0,1.28-2.41,2.24,2.24,0,0,0-.65-1.66,4.35,4.35,0,0,0-1.55-1q-.9-.34-2.66-.88a29.5,29.5,0,0,1-3.24-1.15,5.72,5.72,0,0,1-2.07-1.53,3.72,3.72,0,0,1-.85-2.5,4.17,4.17,0,0,1,1.75-3.51,7.44,7.44,0,0,1,4.59-1.31,8.44,8.44,0,0,1,3.37.63,5.47,5.47,0,0,1,2.27,1.71,4,4,0,0,1,.81,2.45v0a.43.43,0,0,1-.43.43h-1a.61.61,0,0,1-.31-.07.21.21,0,0,1-.13-.18v-.22a2.73,2.73,0,0,0-1.28-2.29,6.63,6.63,0,0,0-6.61-.07,2.64,2.64,0,0,0-1.22,2.29,2.24,2.24,0,0,0,1.13,2.05,16.26,16.26,0,0,0,3.55,1.4,31.83,31.83,0,0,1,3.37,1.13,5.91,5.91,0,0,1,2.14,1.53,3.75,3.75,0,0,1,.9,2.59,4.42,4.42,0,0,1-1.76,3.65,7.36,7.36,0,0,1-4.68,1.39A8.78,8.78,0,0,1,270.45,821.55Z"/><path d="M85.89,881.92a.27.27,0,0,1-.08-.2V865.49a.29.29,0,0,1,.29-.29h.74a.38.38,0,0,1,.34.19l4.63,7.32a.09.09,0,0,0,.07,0,.1.1,0,0,0,.07,0l4.66-7.32a.38.38,0,0,1,.34-.19h.74a.29.29,0,0,1,.29.29v16.22a.29.29,0,0,1-.29.29H97a.29.29,0,0,1-.29-.29v-14s0-.08,0-.08-.06,0-.07.06l-4.15,6.58a.34.34,0,0,1-.34.19h-.38a.37.37,0,0,1-.34-.19l-4.18-6.58s0-.07-.07-.06,0,0,0,.08v14a.29.29,0,0,1-.29.29h-.7A.27.27,0,0,1,85.89,881.92Z"/><path d="M104,881.3a4.41,4.41,0,0,1-1.62-2.38,11.35,11.35,0,0,1-.29-3,12.93,12.93,0,0,1,.26-3,4.33,4.33,0,0,1,1.63-2.36,5.2,5.2,0,0,1,5.8,0,4.26,4.26,0,0,1,1.62,2.35,12.21,12.21,0,0,1,.26,3,12.35,12.35,0,0,1-.26,3,4.25,4.25,0,0,1-1.62,2.38,4.76,4.76,0,0,1-2.89.89A4.69,4.69,0,0,1,104,881.3Zm5.06-.94a3.16,3.16,0,0,0,1.16-1.87,14.52,14.52,0,0,0,.14-2.54,14,14,0,0,0-.14-2.54,3.16,3.16,0,0,0-1.16-1.87,3.48,3.48,0,0,0-2.2-.7,3.43,3.43,0,0,0-2.18.7,3.18,3.18,0,0,0-1.15,1.87,22.54,22.54,0,0,0,0,5.09,3.18,3.18,0,0,0,1.15,1.87,3.79,3.79,0,0,0,4.38,0Z"/><path d="M117.77,881.76l-3.94-11.52a.27.27,0,0,1,0-.12c0-.14.08-.22.24-.22h.82a.3.3,0,0,1,.31.24l3.26,9.91a.08.08,0,0,0,.07,0,.08.08,0,0,0,.07,0l3.26-9.91a.3.3,0,0,1,.31-.24l.82,0a.23.23,0,0,1,.2.08.29.29,0,0,1,0,.25l-3.94,11.5a.3.3,0,0,1-.31.24h-.86A.3.3,0,0,1,117.77,881.76Z"/><path d="M132.32,880.55a3.14,3.14,0,0,0,1.25-1.43.29.29,0,0,1,.38-.14l.43.17q.29.12.17.38a4.26,4.26,0,0,1-1.66,1.94,4.89,4.89,0,0,1-2.69.72,4.68,4.68,0,0,1-2.8-.82,4.27,4.27,0,0,1-1.6-2.23,11.69,11.69,0,0,1-.34-3.22q0-1.17,0-1.78a6.42,6.42,0,0,1,.16-1.1,4.29,4.29,0,0,1,1.57-2.42,4.65,4.65,0,0,1,2.92-.91,4.3,4.3,0,0,1,4.58,3.77,7.84,7.84,0,0,1,.13,1q0,.52,0,1.57,0,.31-.29.31h-7.8a.08.08,0,0,0-.1.1,11.55,11.55,0,0,0,.12,2.06,3.18,3.18,0,0,0,1.18,1.86,3.6,3.6,0,0,0,2.28.71A3.93,3.93,0,0,0,132.32,880.55Zm-5.59-5.32a.08.08,0,0,0,.1.1h6.7a.08.08,0,0,0,.1-.1,10.17,10.17,0,0,0-.12-1.82,3.23,3.23,0,0,0-1.15-1.86,3.74,3.74,0,0,0-4.34,0,3,3,0,0,0-1.1,1.81A10.62,10.62,0,0,0,126.73,875.23Z"/><path d="M326.9,881.58a4.48,4.48,0,0,1-1.86-1.72,4.91,4.91,0,0,1-.66-2.57v-1.15a.29.29,0,0,1,.29-.29h.7a.29.29,0,0,1,.29.29v1.15a3.57,3.57,0,0,0,1.1,2.74,4.12,4.12,0,0,0,2.93,1,4.16,4.16,0,0,0,2.94-1,3.55,3.55,0,0,0,1.12-2.74V865.49a.29.29,0,0,1,.29-.29h.7a.29.29,0,0,1,.29.29V877.3a4.91,4.91,0,0,1-.66,2.57,4.48,4.48,0,0,1-1.87,1.72,6.12,6.12,0,0,1-2.8.61A6,6,0,0,1,326.9,881.58Z"/><path d="M347,870a.28.28,0,0,1,.2-.08h.67a.28.28,0,0,1,.2.08.28.28,0,0,1,.08.2v11.52a.28.28,0,0,1-.08.2.28.28,0,0,1-.2.08h-.67a.29.29,0,0,1-.29-.29v-1.13s0-.08,0-.08-.06,0-.07.06a3.22,3.22,0,0,1-1.36,1.2,4.59,4.59,0,0,1-2,.41,4.25,4.25,0,0,1-3-1.06,3.71,3.71,0,0,1-1.18-2.9v-8a.29.29,0,0,1,.29-.29h.67a.28.28,0,0,1,.2.08.28.28,0,0,1,.08.2v7.68a3.14,3.14,0,0,0,.85,2.3,3,3,0,0,0,2.27.86,3.2,3.2,0,0,0,2.35-.88,3.08,3.08,0,0,0,.89-2.29v-7.68A.28.28,0,0,1,347,870Z"/><path d="M367.19,870.79a3.92,3.92,0,0,1,1.06,2.9v8a.29.29,0,0,1-.29.29h-.67a.29.29,0,0,1-.29-.29v-7.78a3,3,0,0,0-.83-2.24,2.9,2.9,0,0,0-2.15-.83,3.11,3.11,0,0,0-2.24.82,2.92,2.92,0,0,0-.85,2.21v7.82a.29.29,0,0,1-.29.29H360a.29.29,0,0,1-.29-.29v-7.78a3.06,3.06,0,0,0-.82-2.24,2.86,2.86,0,0,0-2.14-.83,3.06,3.06,0,0,0-2.24.82,3,3,0,0,0-.83,2.21v7.82a.29.29,0,0,1-.29.29h-.7a.29.29,0,0,1-.29-.29V870.19a.29.29,0,0,1,.29-.29h.7a.29.29,0,0,1,.29.29v1a.08.08,0,0,0,0,.07,0,0,0,0,0,.07,0,3.12,3.12,0,0,1,1.36-1.15,4.66,4.66,0,0,1,1.93-.38,4.1,4.1,0,0,1,2.15.54,3.4,3.4,0,0,1,1.36,1.52c0,.06.07.07.12,0a3.47,3.47,0,0,1,1.46-1.56,4.56,4.56,0,0,1,2.23-.53A3.8,3.8,0,0,1,367.19,870.79Z"/><path d="M381.59,875.93q0,1.08,0,1.78a6.83,6.83,0,0,1-.19,1.25,4.21,4.21,0,0,1-1.52,2.36,4.45,4.45,0,0,1-2.8.88,4.12,4.12,0,0,1-1.88-.42,3.53,3.53,0,0,1-1.36-1.21,0,0,0,0,0-.07,0,.08.08,0,0,0,0,.07v5.81a.29.29,0,0,1-.29.29h-.7a.29.29,0,0,1-.29-.29V870.19a.29.29,0,0,1,.29-.29h.7a.29.29,0,0,1,.29.29v1.13s0,.08,0,.08.05,0,.08,0a3.62,3.62,0,0,1,1.36-1.22,4,4,0,0,1,1.88-.43,4.4,4.4,0,0,1,2.76.86,4.3,4.3,0,0,1,1.54,2.33A12.85,12.85,0,0,1,381.59,875.93Zm-1.36,1.87a14.28,14.28,0,0,0,.08-1.85,15.47,15.47,0,0,0-.07-1.76,6.19,6.19,0,0,0-.24-1.09,2.89,2.89,0,0,0-1.1-1.63,3.29,3.29,0,0,0-2-.62,2.86,2.86,0,0,0-1.88.62,3.06,3.06,0,0,0-1,1.63,4.27,4.27,0,0,0-.23,1q-.06.56-.06,1.81a17,17,0,0,0,.07,1.86,5.11,5.11,0,0,0,.24,1.07,2.84,2.84,0,0,0,1,1.6,2.91,2.91,0,0,0,1.87.61,3.15,3.15,0,0,0,1.94-.61,3,3,0,0,0,1.1-1.57A4.31,4.31,0,0,0,380.24,877.8Z"/><path d="M505.91,881.76l-1-3.14a.09.09,0,0,0-.1-.07h-7.49a.09.09,0,0,0-.1.07l-1,3.14a.3.3,0,0,1-.31.24h-.77a.27.27,0,0,1-.22-.08.26.26,0,0,1,0-.25l5.33-16.22a.3.3,0,0,1,.31-.24h1a.3.3,0,0,1,.31.24l5.35,16.22a.27.27,0,0,1,0,.12c0,.14-.09.22-.26.22h-.74A.3.3,0,0,1,505.91,881.76Zm-8.32-4.31a.12.12,0,0,0,.08,0h6.72a.12.12,0,0,0,.08,0,.07.07,0,0,0,0-.08l-3.41-10.51a.08.08,0,0,0-.14,0l-3.36,10.51A.07.07,0,0,0,497.59,877.45Z"/><path d="M515,870.9a.28.28,0,0,1-.2.08H512a.09.09,0,0,0-.1.1v7.56a2.22,2.22,0,0,0,.55,1.72,2.63,2.63,0,0,0,1.78.49h.5a.29.29,0,0,1,.29.29v.55a.25.25,0,0,1-.29.29l-.67,0a4.15,4.15,0,0,1-2.52-.65,2.86,2.86,0,0,1-.89-2.38v-7.9a.08.08,0,0,0-.1-.1H509.2a.29.29,0,0,1-.29-.29v-.5a.29.29,0,0,1,.29-.29h1.39a.09.09,0,0,0,.1-.1v-2.69a.29.29,0,0,1,.29-.29h.67a.29.29,0,0,1,.29.29v2.69a.09.09,0,0,0,.1.1h2.76a.29.29,0,0,1,.29.29v.5A.28.28,0,0,1,515,870.9Z"/><path d="M523.61,870.9a.28.28,0,0,1-.2.08h-2.76a.09.09,0,0,0-.1.1v7.56a2.22,2.22,0,0,0,.55,1.72,2.63,2.63,0,0,0,1.78.49h.5a.29.29,0,0,1,.29.29v.55a.25.25,0,0,1-.29.29l-.67,0a4.15,4.15,0,0,1-2.52-.65,2.86,2.86,0,0,1-.89-2.38v-7.9a.08.08,0,0,0-.1-.1h-1.39a.29.29,0,0,1-.29-.29v-.5a.29.29,0,0,1,.29-.29h1.39a.09.09,0,0,0,.1-.1v-2.69a.29.29,0,0,1,.29-.29h.67a.29.29,0,0,1,.29.29v2.69a.09.09,0,0,0,.1.1h2.76a.29.29,0,0,1,.29.29v.5A.28.28,0,0,1,523.61,870.9Z"/><path d="M534.49,870.8a4,4,0,0,1,1.1,2.94v8a.28.28,0,0,1-.08.2.28.28,0,0,1-.2.08h-.7a.29.29,0,0,1-.29-.29v-1a.08.08,0,0,0,0-.07s-.05,0-.08,0a3.86,3.86,0,0,1-1.66,1.16,6.12,6.12,0,0,1-2.21.4,4.62,4.62,0,0,1-2.81-.83,3,3,0,0,1-1.13-2.58,3.38,3.38,0,0,1,1.32-2.81,5.74,5.74,0,0,1,3.62-1h2.88a.09.09,0,0,0,.1-.1v-1.08a3,3,0,0,0-.74-2.15,3.09,3.09,0,0,0-2.33-.78,3.76,3.76,0,0,0-2,.49,2.07,2.07,0,0,0-1,1.33q-.07.29-.34.24l-.74-.1q-.31,0-.26-.26a3.09,3.09,0,0,1,1.42-2.05,5.23,5.23,0,0,1,3-.78A4.39,4.39,0,0,1,534.49,870.8Zm-1.28,9.54a2.35,2.35,0,0,0,1.12-2.06V876.1a.09.09,0,0,0-.1-.1h-2.74a4.8,4.8,0,0,0-2.77.72,2.29,2.29,0,0,0-1,2,2.07,2.07,0,0,0,.82,1.78,3.44,3.44,0,0,0,2.09.6A4.62,4.62,0,0,0,533.21,880.34Z"/><path d="M540.91,881.3a4.29,4.29,0,0,1-1.6-2.38,11.78,11.78,0,0,1-.31-3,12,12,0,0,1,.31-3,4.15,4.15,0,0,1,1.58-2.35,4.75,4.75,0,0,1,2.9-.89,5,5,0,0,1,2.94.86,3.76,3.76,0,0,1,1.57,2.16,3.66,3.66,0,0,1,.14.62v0c0,.14-.09.23-.26.26l-.67.1h0c-.14,0-.24-.09-.29-.26a1.34,1.34,0,0,0,0-.29,2.82,2.82,0,0,0-1.13-1.69,3.58,3.58,0,0,0-2.21-.68,3.42,3.42,0,0,0-2.2.7,3.08,3.08,0,0,0-1.12,1.85,11.76,11.76,0,0,0-.22,2.57,11.22,11.22,0,0,0,.22,2.54,3.09,3.09,0,0,0,1.12,1.87,3.42,3.42,0,0,0,2.2.7,3.63,3.63,0,0,0,2.22-.68,2.71,2.71,0,0,0,1.12-1.72l0-.1a.26.26,0,0,1,.12-.18.29.29,0,0,1,.22,0l.65.07a.4.4,0,0,1,.2.11.25.25,0,0,1,.06.23l-.1.38a3.71,3.71,0,0,1-1.57,2.2,5.05,5.05,0,0,1-2.94.85A4.69,4.69,0,0,1,540.91,881.3Z"/><path d="M551.88,881.92a.28.28,0,0,1-.08-.2V865.49a.29.29,0,0,1,.29-.29h.7a.29.29,0,0,1,.29.29v10.2a.08.08,0,0,0,0,.07s.05,0,.08,0l5.52-5.69a.49.49,0,0,1,.36-.14h.84c.16,0,.24.06.24.17a.28.28,0,0,1-.1.19l-3,3.19a.11.11,0,0,0,0,.12l3.67,8.09a.38.38,0,0,1,0,.14c0,.13-.09.19-.26.19h-.74a.34.34,0,0,1-.34-.22l-3.24-7.34c0-.06-.07-.07-.12,0l-2.93,3a.16.16,0,0,0,0,.12v4.15a.29.29,0,0,1-.29.29h-.7A.28.28,0,0,1,551.88,881.92Z"/><rect class="cls-7" width="1920" height="1080"/></g></g></svg>