<svg xmlns="http://www.w3.org/2000/svg" viewBox="0 0 223.56 110.89"><defs><style>.cls-1{fill:#fff;}</style></defs><title>recollection_logo</title><g id="Layer_2" data-name="Layer 2"><g id="Layer_1-2" data-name="Layer 1"><path class="cls-1" d="M223.55,55.31c.5,24-16.57,46.72-39.92,53.36-24.06,6.84-48.73-2.85-62.56-23.8C110.21,68.41,91.81,60.89,72.54,67a13.63,13.63,0,0,0-4.62,2.69,19.83,19.83,0,1,1-1.87-31C86.3,52.38,112.9,41.64,121.19,26.9c11.08-19.69,34.5-30,56.29-26.09,22.58,4,40.26,20.89,44.79,43C223,47.54,223.14,51.46,223.55,55.31Z"/><path class="cls-1" d="M93.06,15.66l-5.3,5.7C75.57,10.83,61.64,6.35,45.82,9.5a46.06,46.06,0,0,0-27.9,17.29C3.49,45.18,4.8,71.1,21.29,88.47c14.58,15.35,42.55,22,66.53,1.68l5,5.46C76.5,113,42.37,118.25,18.54,97c-23.36-20.88-24.71-57-3.69-79C37.37-5.69,73.46-3.85,93.06,15.66Z"/></g></g></svg>