<svg xmlns="http://www.w3.org/2000/svg" viewBox="0 0 1545 731"><defs><style>.cls-1{fill:none;}.cls-2{fill:#656565;}.cls-3{fill:#646464;}.cls-4{fill:#5e5e5e;}.cls-5{fill:#565656;}.cls-6{fill:#1e1e1e;}.cls-7{fill:#d0d0d0;}.cls-8{fill:#fafafa;}.cls-9{fill:#dbdbdb;}.cls-10{fill:#323232;}.cls-11{fill:#767676;}.cls-12{fill:#727272;}.cls-13{fill:#686868;}.cls-14{fill:#6d6d6d;}.cls-15{fill:#888;}.cls-16{fill:#eaeaea;}.cls-17{fill:#b8b8b8;}.cls-18{fill:#ededed;}.cls-19{fill:#6e6e6e;}.cls-20{fill:#8b8b8b;}.cls-21{fill:#bebebe;}.cls-22{fill:#b3b3b3;}.cls-23{fill:#c6c6c6;}.cls-24{fill:#afafaf;}.cls-25{fill:#6c6c6c;}.cls-26{fill:#717171;}.cls-27{fill:#fefefe;}.cls-28{fill:#fdfdfd;}.cls-29{fill:#b0b0b0;}.cls-30{fill:#878787;}.cls-31{fill:#848484;}.cls-32{fill:#818181;}.cls-33{fill:#7d7d7d;}.cls-34{fill:#7c7c7c;}.cls-35{fill:#7b7b7b;}.cls-36{fill:#525252;}.cls-37{fill:#111;}.cls-38{fill:#242424;}.cls-39{fill:#0e0e0e;}.cls-40{fill:#202020;}.cls-41{fill:#171717;}.cls-42{fill:#626262;}.cls-43{fill:#ebebeb;}.cls-44{fill:#fff;}</style></defs><title>Unquiet_Design_Elements</title><g id="Layer_2" data-name="Layer 2"><g id="Layer_1-2" data-name="Layer 1"><rect class="cls-1" width="1545" height="731"/><path d="M19.52,484.93a.42.42,0,0,1,.13.31v.83a.43.43,0,0,1-.43.43H12.09a.13.13,0,0,0-.14.14v22.93a.43.43,0,0,1-.43.43h-1a.43.43,0,0,1-.43-.43V486.64a.13.13,0,0,0-.14-.14H3.12a.43.43,0,0,1-.43-.43v-.83a.43.43,0,0,1,.43-.43H19.22A.42.42,0,0,1,19.52,484.93Z"/><path d="M22.24,517.07a.61.61,0,0,1-.07-.31V516a.6.6,0,0,1,.07-.31.21.21,0,0,1,.18-.13h.25a4.88,4.88,0,0,0,2.14-.45,3.36,3.36,0,0,0,1.33-1.51,25.18,25.18,0,0,0,1.31-3.47c0-.1,0-.17,0-.22l-6.12-17.53a.4.4,0,0,1,0-.18q0-.32.4-.32h1.08a.45.45,0,0,1,.47.36l5.11,15a.12.12,0,0,0,.22,0l4.93-15a.45.45,0,0,1,.47-.36h1.12a.4.4,0,0,1,.32.13.4.4,0,0,1,0,.38l-6.77,19.48a17.54,17.54,0,0,1-1.55,3.46,3.71,3.71,0,0,1-1.71,1.51,7.65,7.65,0,0,1-2.75.4h-.25A.21.21,0,0,1,22.24,517.07Z"/><path d="M53.63,500.89q0,1.62-.07,2.66a10.25,10.25,0,0,1-.29,1.87A6.31,6.31,0,0,1,51,509a6.67,6.67,0,0,1-4.19,1.31,6.17,6.17,0,0,1-2.83-.63,5.28,5.28,0,0,1-2-1.82.07.07,0,0,0-.11,0,.12.12,0,0,0-.07.11v8.71a.43.43,0,0,1-.43.43h-1a.43.43,0,0,1-.43-.43V492.29a.43.43,0,0,1,.43-.43h1a.43.43,0,0,1,.43.43V494q0,.11.05.13s.08,0,.13-.05a5.43,5.43,0,0,1,2-1.84,6,6,0,0,1,2.83-.65,6.61,6.61,0,0,1,4.14,1.3,6.44,6.44,0,0,1,2.3,3.49A19.25,19.25,0,0,1,53.63,500.89Zm-2,2.81a21.57,21.57,0,0,0,.13-2.77,23,23,0,0,0-.11-2.65,9.26,9.26,0,0,0-.36-1.64,4.34,4.34,0,0,0-1.66-2.45,4.93,4.93,0,0,0-3-.94,4.29,4.29,0,0,0-2.83.94,4.59,4.59,0,0,0-1.53,2.45,6.37,6.37,0,0,0-.34,1.53q-.09.85-.09,2.72a25.47,25.47,0,0,0,.11,2.79,7.66,7.66,0,0,0,.36,1.6,4.26,4.26,0,0,0,1.51,2.39,4.36,4.36,0,0,0,2.81.92,4.72,4.72,0,0,0,2.92-.92,4.5,4.5,0,0,0,1.66-2.36A6.49,6.49,0,0,0,51.6,503.7Z"/><path d="M61.46,509A6.62,6.62,0,0,1,59,505.39a17,17,0,0,1-.43-4.5,19.41,19.41,0,0,1,.4-4.46,6.5,6.5,0,0,1,2.45-3.55,7.8,7.8,0,0,1,8.69,0,6.38,6.38,0,0,1,2.43,3.53,18.3,18.3,0,0,1,.4,4.46,18.49,18.49,0,0,1-.4,4.5A6.37,6.37,0,0,1,70.14,509a7.14,7.14,0,0,1-4.34,1.33A7,7,0,0,1,61.46,509Zm7.6-1.4a4.74,4.74,0,0,0,1.75-2.81,21.81,21.81,0,0,0,.22-3.82,21.05,21.05,0,0,0-.22-3.82,4.75,4.75,0,0,0-1.75-2.81,5.23,5.23,0,0,0-3.29-1,5.15,5.15,0,0,0-3.28,1,4.77,4.77,0,0,0-1.73,2.81,33.77,33.77,0,0,0,0,7.63,4.77,4.77,0,0,0,1.73,2.81,5.69,5.69,0,0,0,6.57,0Z"/><path d="M90,492a.41.41,0,0,1,.31-.13h1a.43.43,0,0,1,.43.43V509.6q0,4.07-2.43,5.9t-6.86,1.66a.42.42,0,0,1-.43-.47l0-.9q0-.43.43-.4,3.82.11,5.58-1.31a5.46,5.46,0,0,0,1.76-4.52v-1.8c0-.07,0-.11-.05-.13s-.08,0-.13.05a5.49,5.49,0,0,1-4.93,2.48,6.81,6.81,0,0,1-4.1-1.28,6,6,0,0,1-2.34-3.51,18.33,18.33,0,0,1-.4-4.43,18,18,0,0,1,.43-4.64,6.33,6.33,0,0,1,2.27-3.44,6.43,6.43,0,0,1,4.07-1.31,5.69,5.69,0,0,1,5,2.45.07.07,0,0,0,.11,0,.11.11,0,0,0,.07-.11v-1.66A.41.41,0,0,1,90,492Zm-.16,11.39q0-.79,0-2.45t0-2.45a11.16,11.16,0,0,0-.14-1.4A4.52,4.52,0,0,0,85,493.26a4.71,4.71,0,0,0-3.15,1.08,5.43,5.43,0,0,0-1.75,2.74,15.2,15.2,0,0,0-.32,3.82,15.73,15.73,0,0,0,.32,3.82,4.94,4.94,0,0,0,1.71,2.74A4.86,4.86,0,0,0,85,508.52a4.55,4.55,0,0,0,3.15-1.08,4.63,4.63,0,0,0,1.49-2.74A9.12,9.12,0,0,0,89.81,503.38Z"/><path d="M106.59,492.11a.4.4,0,0,1,.22.54l-.29,1q-.11.43-.54.25a5,5,0,0,0-1.73-.22,4.36,4.36,0,0,0-3.33,1.53,5.34,5.34,0,0,0-1.31,3.65v10.66a.43.43,0,0,1-.43.43h-1a.43.43,0,0,1-.43-.43V492.29a.43.43,0,0,1,.43-.43h1a.43.43,0,0,1,.43.43v2.38q0,.11.05.13s.07,0,.09-.09a5.92,5.92,0,0,1,2-2.2,5,5,0,0,1,2.83-.79A5.2,5.2,0,0,1,106.59,492.11Z"/><path d="M121.42,493.21a5.93,5.93,0,0,1,1.66,4.41v12a.43.43,0,0,1-.43.43h-1a.43.43,0,0,1-.43-.43V508a.12.12,0,0,0-.05-.11s-.08,0-.13,0a5.8,5.8,0,0,1-2.48,1.75,9.17,9.17,0,0,1-3.31.59A6.92,6.92,0,0,1,111,509a4.48,4.48,0,0,1-1.69-3.87,5.06,5.06,0,0,1,2-4.21,8.62,8.62,0,0,1,5.44-1.55H121a.13.13,0,0,0,.14-.14v-1.62a4.48,4.48,0,0,0-1.12-3.22,4.63,4.63,0,0,0-3.49-1.17,5.65,5.65,0,0,0-3,.74,3.11,3.11,0,0,0-1.48,2q-.11.43-.5.36l-1.12-.14q-.47-.07-.4-.4a4.63,4.63,0,0,1,2.12-3.08,7.84,7.84,0,0,1,4.43-1.17A6.58,6.58,0,0,1,121.42,493.21Zm-1.93,14.31a3.52,3.52,0,0,0,1.67-3.1v-3.28A.13.13,0,0,0,121,501h-4.1a7.2,7.2,0,0,0-4.16,1.08,3.43,3.43,0,0,0-1.57,3,3.1,3.1,0,0,0,1.22,2.66,5.15,5.15,0,0,0,3.13.9A6.94,6.94,0,0,0,119.49,507.52Z"/><path d="M142.84,500.89q0,1.62-.07,2.66a10.25,10.25,0,0,1-.29,1.87,6.31,6.31,0,0,1-2.29,3.55,6.67,6.67,0,0,1-4.19,1.31,6.17,6.17,0,0,1-2.83-.63,5.28,5.28,0,0,1-2-1.82.07.07,0,0,0-.11,0,.12.12,0,0,0-.07.11v8.71a.43.43,0,0,1-.43.43h-1a.43.43,0,0,1-.43-.43V492.29a.43.43,0,0,1,.43-.43h1a.43.43,0,0,1,.43.43V494q0,.11.05.13s.08,0,.13-.05a5.43,5.43,0,0,1,2-1.84,6,6,0,0,1,2.83-.65,6.61,6.61,0,0,1,4.14,1.3,6.44,6.44,0,0,1,2.3,3.49A19.25,19.25,0,0,1,142.84,500.89Zm-2,2.81a21.57,21.57,0,0,0,.13-2.77,23,23,0,0,0-.11-2.65,9.26,9.26,0,0,0-.36-1.64,4.34,4.34,0,0,0-1.66-2.45,4.93,4.93,0,0,0-3-.94,4.29,4.29,0,0,0-2.83.94,4.59,4.59,0,0,0-1.53,2.45,6.37,6.37,0,0,0-.34,1.53q-.09.85-.09,2.72a25.47,25.47,0,0,0,.11,2.79,7.66,7.66,0,0,0,.36,1.6,4.26,4.26,0,0,0,1.51,2.39,4.36,4.36,0,0,0,2.81.92,4.72,4.72,0,0,0,2.92-.92,4.5,4.5,0,0,0,1.66-2.36A6.49,6.49,0,0,0,140.8,503.7Z"/><path d="M160,493.3a6,6,0,0,1,1.69,4.46v11.81a.43.43,0,0,1-.43.43h-1a.43.43,0,0,1-.43-.43V498.12a4.81,4.81,0,0,0-1.3-3.47,4.43,4.43,0,0,0-3.35-1.35,4.81,4.81,0,0,0-3.53,1.31,4.61,4.61,0,0,0-1.33,3.44v11.52a.43.43,0,0,1-.43.43h-1a.43.43,0,0,1-.43-.43V485.23a.43.43,0,0,1,.43-.43h1a.43.43,0,0,1,.43.43V494q0,.11.05.13s.07,0,.09-.05a5.16,5.16,0,0,1,2.11-1.82,6.87,6.87,0,0,1,3-.63A6,6,0,0,1,160,493.3Z"/><path d="M166.35,517.07a.61.61,0,0,1-.07-.31V516a.6.6,0,0,1,.07-.31.21.21,0,0,1,.18-.13h.25a4.88,4.88,0,0,0,2.14-.45,3.36,3.36,0,0,0,1.33-1.51,25.18,25.18,0,0,0,1.31-3.47c0-.1,0-.17,0-.22l-6.12-17.53a.4.4,0,0,1,0-.18q0-.32.4-.32h1.08a.45.45,0,0,1,.47.36l5.11,15a.12.12,0,0,0,.22,0l4.93-15a.45.45,0,0,1,.47-.36h1.12a.4.4,0,0,1,.32.13.4.4,0,0,1,0,.38l-6.77,19.48a17.54,17.54,0,0,1-1.55,3.46,3.71,3.71,0,0,1-1.71,1.51,7.65,7.65,0,0,1-2.75.4h-.25A.21.21,0,0,1,166.35,517.07Z"/><path d="M4,86a5.74,5.74,0,0,1-2.29-4.77V80.12a.43.43,0,0,1,.43-.43h1a.43.43,0,0,1,.43.43v1a4.28,4.28,0,0,0,1.84,3.6,8.13,8.13,0,0,0,5,1.37,7.2,7.2,0,0,0,4.55-1.24,4.14,4.14,0,0,0,1.57-3.44,4,4,0,0,0-.68-2.32,6.66,6.66,0,0,0-2.16-1.85,37.44,37.44,0,0,0-4.1-2q-2.81-1.19-4.25-2a6.82,6.82,0,0,1-2.3-2,5.22,5.22,0,0,1-.86-3.11,5.46,5.46,0,0,1,2-4.55A8.89,8.89,0,0,1,9.8,62,9.54,9.54,0,0,1,16,63.81a5.9,5.9,0,0,1,2.21,4.82v.76a.43.43,0,0,1-.43.43h-1a.43.43,0,0,1-.43-.43v-.65a4.46,4.46,0,0,0-1.73-3.65A7.58,7.58,0,0,0,9.69,63.7a6.79,6.79,0,0,0-4.21,1.13A3.86,3.86,0,0,0,4,68.1a3.76,3.76,0,0,0,.68,2.34,5.72,5.72,0,0,0,2,1.57q1.28.67,3.94,1.75a31,31,0,0,1,4.3,2.07,8.38,8.38,0,0,1,2.57,2.32,5.43,5.43,0,0,1,.94,3.2A5.74,5.74,0,0,1,16.24,86a9.32,9.32,0,0,1-6,1.76A9.78,9.78,0,0,1,4,86Z"/><path d="M25.91,86.46a6.62,6.62,0,0,1-2.43-3.56,17,17,0,0,1-.43-4.5,19.41,19.41,0,0,1,.4-4.46,6.5,6.5,0,0,1,2.45-3.55,7.19,7.19,0,0,1,4.36-1.31,7.14,7.14,0,0,1,4.34,1.33A6.38,6.38,0,0,1,37,73.93a18.3,18.3,0,0,1,.4,4.46,18.49,18.49,0,0,1-.4,4.5,6.37,6.37,0,0,1-2.43,3.56,7.14,7.14,0,0,1-4.34,1.33A7,7,0,0,1,25.91,86.46Zm7.6-1.4a4.74,4.74,0,0,0,1.75-2.81,21.81,21.81,0,0,0,.22-3.82,21.05,21.05,0,0,0-.22-3.82A4.75,4.75,0,0,0,33.5,71.8a5.23,5.23,0,0,0-3.29-1,5.15,5.15,0,0,0-3.28,1,4.77,4.77,0,0,0-1.73,2.81A21,21,0,0,0,25,78.43a21,21,0,0,0,.22,3.82,4.77,4.77,0,0,0,1.73,2.81,5.2,5.2,0,0,0,3.31,1A5.17,5.17,0,0,0,33.5,85.05Z"/><path d="M46.64,65a5.44,5.44,0,0,0-.77,3.28v.94a.13.13,0,0,0,.14.14h4.14a.43.43,0,0,1,.43.43v.9a.43.43,0,0,1-.43.43H46a.13.13,0,0,0-.14.14v15.8a.43.43,0,0,1-.43.43h-1a.43.43,0,0,1-.43-.43V71.26a.13.13,0,0,0-.14-.14h-2.3a.43.43,0,0,1-.43-.43v-.9a.43.43,0,0,1,.43-.43h2.3a.13.13,0,0,0,.14-.14v-1a9.62,9.62,0,0,1,.49-3.38,3.51,3.51,0,0,1,1.66-1.89,7.06,7.06,0,0,1,3.29-.63h.86a.43.43,0,0,1,.43.43v.83a.43.43,0,0,1-.43.43h-.72A3.48,3.48,0,0,0,46.64,65Z"/><path d="M62.91,70.85a.41.41,0,0,1-.31.13H58.47a.13.13,0,0,0-.14.14V82.46A3.33,3.33,0,0,0,59.15,85a4,4,0,0,0,2.66.74h.76a.43.43,0,0,1,.43.43V87a.38.38,0,0,1-.43.43l-1,0a6.23,6.23,0,0,1-3.78-1q-1.3-1-1.33-3.56V71.12a.13.13,0,0,0-.14-.14H54.22a.43.43,0,0,1-.43-.43v-.76a.43.43,0,0,1,.43-.43h2.09a.13.13,0,0,0,.14-.14v-4a.43.43,0,0,1,.43-.43h1a.43.43,0,0,1,.43.43v4a.13.13,0,0,0,.14.14h4.14a.43.43,0,0,1,.43.43v.76A.41.41,0,0,1,62.91,70.85Z"/><path d="M71.57,87.14l-5-17.28,0-.14q0-.36.4-.36h1a.47.47,0,0,1,.5.36l4.1,15s.05.07.09.07.07,0,.09-.07l4.14-15a.47.47,0,0,1,.5-.36h1a.47.47,0,0,1,.5.36l4.18,14.94a.11.11,0,0,0,.11.07.12.12,0,0,0,.11-.07l4.14-14.94a.47.47,0,0,1,.5-.36l1,0a.35.35,0,0,1,.31.13.45.45,0,0,1,.05.34L84.28,87.14a.45.45,0,0,1-.47.36H82.69a.47.47,0,0,1-.5-.36L78,72.81a.12.12,0,0,0-.11-.07.12.12,0,0,0-.11.07l-4.1,14.33a.47.47,0,0,1-.5.36H72.08A.47.47,0,0,1,71.57,87.14Z"/><path d="M104.37,70.71A5.93,5.93,0,0,1,106,75.12v12a.43.43,0,0,1-.43.43h-1a.43.43,0,0,1-.43-.43V85.52a.12.12,0,0,0-.05-.11s-.08,0-.13,0a5.8,5.8,0,0,1-2.48,1.75,9.17,9.17,0,0,1-3.31.59,6.92,6.92,0,0,1-4.21-1.24,4.48,4.48,0,0,1-1.69-3.87,5.06,5.06,0,0,1,2-4.21,8.62,8.62,0,0,1,5.44-1.55H104a.13.13,0,0,0,.14-.14V75.15A4.48,4.48,0,0,0,103,71.93a4.63,4.63,0,0,0-3.49-1.17,5.65,5.65,0,0,0-3,.74,3.11,3.11,0,0,0-1.48,2q-.11.43-.5.36l-1.12-.14q-.47-.07-.4-.4a4.63,4.63,0,0,1,2.12-3.08,7.84,7.84,0,0,1,4.43-1.17A6.58,6.58,0,0,1,104.37,70.71ZM102.44,85a3.52,3.52,0,0,0,1.67-3.1V78.64a.13.13,0,0,0-.14-.14h-4.1a7.2,7.2,0,0,0-4.16,1.08,3.43,3.43,0,0,0-1.57,3,3.1,3.1,0,0,0,1.22,2.66,5.15,5.15,0,0,0,3.13.9A6.94,6.94,0,0,0,102.44,85Z"/><path d="M120.64,69.61a.4.4,0,0,1,.22.54l-.29,1q-.11.43-.54.25a5,5,0,0,0-1.73-.22A4.36,4.36,0,0,0,115,72.76a5.34,5.34,0,0,0-1.31,3.65V87.07a.43.43,0,0,1-.43.43h-1a.43.43,0,0,1-.43-.43V69.79a.43.43,0,0,1,.43-.43h1a.43.43,0,0,1,.43.43v2.38q0,.11.05.13s.07,0,.09-.09a5.92,5.92,0,0,1,2-2.2,5,5,0,0,1,2.83-.79A5.2,5.2,0,0,1,120.64,69.61Z"/><path d="M134.25,85.32a4.71,4.71,0,0,0,1.87-2.14.43.43,0,0,1,.58-.22l.65.25q.43.18.25.58a6.39,6.39,0,0,1-2.48,2.92,7.34,7.34,0,0,1-4,1.08,7,7,0,0,1-4.19-1.22,6.4,6.4,0,0,1-2.39-3.35,17.53,17.53,0,0,1-.5-4.82q0-1.76.05-2.66a9.6,9.6,0,0,1,.23-1.66,6.44,6.44,0,0,1,2.36-3.64A7,7,0,0,1,131,69.07a6.45,6.45,0,0,1,6.88,5.65,11.9,11.9,0,0,1,.2,1.49q.05.77.05,2.36,0,.47-.43.47H126a.13.13,0,0,0-.14.14,17.33,17.33,0,0,0,.18,3.1,4.77,4.77,0,0,0,1.76,2.79,5.41,5.41,0,0,0,3.42,1.06A5.9,5.9,0,0,0,134.25,85.32Zm-8.39-8a.13.13,0,0,0,.14.14h10a.13.13,0,0,0,.14-.14,15.22,15.22,0,0,0-.18-2.74,4.84,4.84,0,0,0-1.73-2.79,5.6,5.6,0,0,0-6.52,0,4.56,4.56,0,0,0-1.66,2.72A15.93,15.93,0,0,0,125.86,77.35Z"/><path d="M48.52,135.89a9.91,9.91,0,0,1-.36,2.9,4.86,4.86,0,0,1-1.67,2.47,4.7,4.7,0,0,1-2.94.89,3.8,3.8,0,0,1-1.55-.31,3.52,3.52,0,0,1-1.24-.91.1.1,0,0,0-.1,0s0,0,0,.08v5.21a.33.33,0,0,1-.36.36H38.68a.33.33,0,0,1-.36-.36V130.11a.33.33,0,0,1,.36-.36h1.58a.33.33,0,0,1,.36.36v.62a.1.1,0,0,0,0,.1.08.08,0,0,0,.1,0,3.62,3.62,0,0,1,2.78-1.25,4.66,4.66,0,0,1,2.87.85,4.85,4.85,0,0,1,1.67,2.41A9.2,9.2,0,0,1,48.52,135.89Zm-2.3,0a6.35,6.35,0,0,0-.6-3,2.41,2.41,0,0,0-2.3-1.32,2.27,2.27,0,0,0-2.09,1.3,8,8,0,0,0,0,6.1,2.22,2.22,0,0,0,2,1.22A2.39,2.39,0,0,0,45.45,139,5.8,5.8,0,0,0,46.22,135.85Z"/><path d="M61.24,136.71A7.24,7.24,0,0,1,61,138.8a4.42,4.42,0,0,1-1.74,2.44,5.19,5.19,0,0,1-3.06.9,5.14,5.14,0,0,1-3-.86,4.56,4.56,0,0,1-1.75-2.35,8.89,8.89,0,0,1-.26-1v0q0-.34.36-.34h1.63a.37.37,0,0,1,.38.34,1.56,1.56,0,0,0,.1.38,2.55,2.55,0,0,0,.91,1.4,2.6,2.6,0,0,0,1.63.52,2.52,2.52,0,0,0,1.66-.55,2.63,2.63,0,0,0,.89-1.49,3.86,3.86,0,0,0,.19-1.34,5.29,5.29,0,0,0-.14-1.51,2.11,2.11,0,0,0-.86-1.4,2.92,2.92,0,0,0-1.73-.49,3.36,3.36,0,0,0-1.55.35,2,2,0,0,0-1,1,.46.46,0,0,1-.43.29H51.5a.33.33,0,0,1-.36-.36v-9.12a.33.33,0,0,1,.36-.36h8.74a.33.33,0,0,1,.36.36v1.27a.33.33,0,0,1-.36.36H53.56a.11.11,0,0,0-.12.12l0,5c0,.11,0,.14.14.07a4.32,4.32,0,0,1,2.9-1,5,5,0,0,1,2.89.84A4,4,0,0,1,61,134.53,9,9,0,0,1,61.24,136.71Z"/><path d="M64.28,141.49a1.61,1.61,0,0,1-.49-1.2,1.5,1.5,0,0,1,.53-1.15,1.73,1.73,0,0,1,1.2-.48,1.78,1.78,0,0,1,1.21.48,1.49,1.49,0,0,1,.54,1.15,1.6,1.6,0,0,1-.5,1.19,1.72,1.72,0,0,1-1.25.49A1.7,1.7,0,0,1,64.28,141.49Z"/><path d="M67.75,146.57v-1.25a.32.32,0,0,1,.36-.36,2.77,2.77,0,0,0,1.88-.58,2.27,2.27,0,0,0,.59-1.73V130.11a.33.33,0,0,1,.36-.36h1.58a.33.33,0,0,1,.36.36v12.53a5.62,5.62,0,0,1-.47,2.5,2.83,2.83,0,0,1-1.5,1.37,7.44,7.44,0,0,1-2.81.43A.32.32,0,0,1,67.75,146.57Zm2.86-19a1.47,1.47,0,0,1-.43-1.08,1.43,1.43,0,0,1,.46-1.08,1.55,1.55,0,0,1,1.1-.43,1.59,1.59,0,0,1,1.12.43,1.41,1.41,0,0,1,.47,1.08,1.47,1.47,0,0,1-.43,1.08,1.56,1.56,0,0,1-1.15.43A1.53,1.53,0,0,1,70.6,127.54Z"/><path d="M78,141.68a4,4,0,0,1-1.69-1.19,2.62,2.62,0,0,1-.6-1.67v-.14a.33.33,0,0,1,.36-.36h1.49a.6.6,0,0,1,.26,0c.06,0,.1.07.1.12v.19a1.43,1.43,0,0,0,.73,1.18,3.16,3.16,0,0,0,1.84.5,3,3,0,0,0,1.78-.47A1.4,1.4,0,0,0,83,138.7a1.12,1.12,0,0,0-.62-1,9.77,9.77,0,0,0-2-.73,18.76,18.76,0,0,1-2.29-.78A4.24,4.24,0,0,1,76.47,135a2.77,2.77,0,0,1-.64-1.88,3,3,0,0,1,1.26-2.56,5.43,5.43,0,0,1,3.35-.95,6.37,6.37,0,0,1,2.46.44,3.75,3.75,0,0,1,1.64,1.24,3,3,0,0,1,.58,1.78.29.29,0,0,1-.1.23.38.38,0,0,1-.26.08H83.32a.59.59,0,0,1-.26,0c-.06,0-.1-.07-.1-.12v-.14a1.38,1.38,0,0,0-.68-1.16,3.87,3.87,0,0,0-3.58-.06A1.24,1.24,0,0,0,78,133a1.15,1.15,0,0,0,.64,1.06,10.21,10.21,0,0,0,2.05.77,22,22,0,0,1,2.32.76,4.14,4.14,0,0,1,1.57,1.1,2.78,2.78,0,0,1,.65,1.91A3.07,3.07,0,0,1,84,141.15a5.62,5.62,0,0,1-3.44,1A6.78,6.78,0,0,1,78,141.68Z"/><path d="M47.9,186.36a.36.36,0,0,1,.26-.1h1.58a.33.33,0,0,1,.36.36v16.08a.33.33,0,0,1-.36.36H48.16a.33.33,0,0,1-.36-.36v-7a.11.11,0,0,0-.12-.12H40.89a.11.11,0,0,0-.12.12v7a.33.33,0,0,1-.36.36H38.83a.33.33,0,0,1-.36-.36V186.63a.33.33,0,0,1,.36-.36h1.58a.33.33,0,0,1,.36.36v6.86a.11.11,0,0,0,.12.12h6.79a.11.11,0,0,0,.12-.12v-6.86A.36.36,0,0,1,47.9,186.36Z"/><path d="M64.77,186.36a.36.36,0,0,1,.1.26v1.3a.33.33,0,0,1-.36.36H60a.11.11,0,0,0-.12.12v14.3a.33.33,0,0,1-.36.36H58a.33.33,0,0,1-.36-.36V188.4a.11.11,0,0,0-.12-.12H53.25a.33.33,0,0,1-.36-.36v-1.3a.33.33,0,0,1,.36-.36H64.51A.36.36,0,0,1,64.77,186.36Z"/><path d="M67.84,203a.36.36,0,0,1-.1-.26V186.63a.33.33,0,0,1,.36-.36h1.61a.47.47,0,0,1,.43.24l4,6.43q.07.14.14,0l4.06-6.43a.47.47,0,0,1,.43-.24h1.61a.33.33,0,0,1,.36.36v16.08a.33.33,0,0,1-.36.36H78.84a.33.33,0,0,1-.36-.36V190.51c0-.06,0-.1,0-.11s-.06,0-.1.06l-3.26,5.33a.47.47,0,0,1-.43.24h-.77a.47.47,0,0,1-.43-.24l-3.24-5.33s-.06-.07-.1-.06,0,0,0,.11v12.19a.33.33,0,0,1-.36.36H68.11A.36.36,0,0,1,67.84,203Z"/><path d="M84.81,203a.36.36,0,0,1-.1-.26V186.63a.33.33,0,0,1,.36-.36h1.58a.33.33,0,0,1,.36.36V201a.11.11,0,0,0,.12.12h8.14a.33.33,0,0,1,.36.36v1.27a.33.33,0,0,1-.36.36H85.08A.36.36,0,0,1,84.81,203Z"/><path d="M40.81,261.7a4.94,4.94,0,0,1-2.06-1.94,5.65,5.65,0,0,1-.73-2.89v-6.22a5.52,5.52,0,0,1,.73-2.87,5,5,0,0,1,2.06-1.92,6.6,6.6,0,0,1,3.06-.68,6.74,6.74,0,0,1,3,.66A4.93,4.93,0,0,1,49,247.69a5.23,5.23,0,0,1,.73,2.78c0,.16-.12.26-.36.29l-1.58.1h-.1a.34.34,0,0,1-.19,0s-.07-.06-.07-.1v-.14a3.3,3.3,0,0,0-1-2.47,3.52,3.52,0,0,0-2.57-.94,3.56,3.56,0,0,0-2.58.94,3.28,3.28,0,0,0-1,2.47V257a3.27,3.27,0,0,0,1,2.47,3.56,3.56,0,0,0,2.58.94,3.52,3.52,0,0,0,2.57-.94,3.3,3.3,0,0,0,1-2.47.25.25,0,0,1,.1-.22.35.35,0,0,1,.26,0l1.58.1q.36,0,.36.12V257a5.3,5.3,0,0,1-.73,2.8,5,5,0,0,1-2.05,1.88,7.22,7.22,0,0,1-6.11,0Z"/><path d="M55.08,261.78A4.7,4.7,0,0,1,53,260.15a4.23,4.23,0,0,1-.73-2.47v-.58a.33.33,0,0,1,.36-.36h1.54a.33.33,0,0,1,.36.36v.46a2.42,2.42,0,0,0,1.06,2,4.57,4.57,0,0,0,2.81.79,3.84,3.84,0,0,0,2.5-.7,2.25,2.25,0,0,0,.84-1.82,1.94,1.94,0,0,0-.43-1.27,4.14,4.14,0,0,0-1.26-1,24.1,24.1,0,0,0-2.41-1.07,24.22,24.22,0,0,1-2.77-1.22,5.11,5.11,0,0,1-1.69-1.45,3.69,3.69,0,0,1-.67-2.27A3.92,3.92,0,0,1,54,246.35a6.24,6.24,0,0,1,4-1.18,7.58,7.58,0,0,1,3.12.6,4.79,4.79,0,0,1,2.08,1.68,4.34,4.34,0,0,1,.73,2.5v.36a.33.33,0,0,1-.36.36H62a.38.38,0,0,1-.26-.08.29.29,0,0,1-.1-.23v-.29a2.59,2.59,0,0,0-1-2.08,4.17,4.17,0,0,0-2.75-.83,3.78,3.78,0,0,0-2.3.61,2.07,2.07,0,0,0-.82,1.76,2,2,0,0,0,.41,1.3,3.55,3.55,0,0,0,1.21.9q.8.4,2.46,1A27.36,27.36,0,0,1,61.58,254a5.27,5.27,0,0,1,1.75,1.49,3.7,3.7,0,0,1,.7,2.29,4.19,4.19,0,0,1-.7,2.4,4.55,4.55,0,0,1-2,1.61,7.7,7.7,0,0,1-3.1.58A7.94,7.94,0,0,1,55.08,261.78Z"/><path d="M69.19,261.78a4.7,4.7,0,0,1-2.08-1.63,4.23,4.23,0,0,1-.73-2.47v-.58a.33.33,0,0,1,.36-.36h1.54a.33.33,0,0,1,.36.36v.46a2.42,2.42,0,0,0,1.06,2,4.57,4.57,0,0,0,2.81.79,3.84,3.84,0,0,0,2.5-.7,2.25,2.25,0,0,0,.84-1.82,1.94,1.94,0,0,0-.43-1.27,4.14,4.14,0,0,0-1.26-1,24.1,24.1,0,0,0-2.41-1.07A24.22,24.22,0,0,1,69,253.31a5.11,5.11,0,0,1-1.69-1.45,3.69,3.69,0,0,1-.67-2.27,3.92,3.92,0,0,1,1.48-3.24,6.24,6.24,0,0,1,4-1.18,7.58,7.58,0,0,1,3.12.6,4.79,4.79,0,0,1,2.08,1.68A4.34,4.34,0,0,1,78,250v.36a.33.33,0,0,1-.36.36H76.08a.38.38,0,0,1-.26-.08.29.29,0,0,1-.1-.23v-.29a2.59,2.59,0,0,0-1-2.08,4.17,4.17,0,0,0-2.75-.83,3.78,3.78,0,0,0-2.3.61,2.07,2.07,0,0,0-.82,1.76,2,2,0,0,0,.41,1.3,3.55,3.55,0,0,0,1.21.9q.8.4,2.46,1A27.36,27.36,0,0,1,75.69,254a5.27,5.27,0,0,1,1.75,1.49,3.7,3.7,0,0,1,.7,2.29,4.19,4.19,0,0,1-.7,2.4,4.55,4.55,0,0,1-2,1.61,7.7,7.7,0,0,1-3.1.58A7.94,7.94,0,0,1,69.19,261.78Z"/><path d="M41.31,321.31a4.76,4.76,0,0,1-2-1.82,5.15,5.15,0,0,1-.71-2.71v-1a.33.33,0,0,1,.36-.36h1.58a.33.33,0,0,1,.36.36v1a3,3,0,0,0,.94,2.32,4,4,0,0,0,5,0,3,3,0,0,0,.94-2.32V305.33a.33.33,0,0,1,.36-.36h1.56a.33.33,0,0,1,.36.36v11.45a5.15,5.15,0,0,1-.71,2.71,4.77,4.77,0,0,1-2,1.82,7.26,7.26,0,0,1-6,0Z"/><path d="M60.74,309.87a3.92,3.92,0,0,1,1.68,1.44,3.83,3.83,0,0,1,.59,2.1v8a.33.33,0,0,1-.36.36H61.06a.33.33,0,0,1-.36-.36v-.67a.1.1,0,0,0,0-.1.08.08,0,0,0-.1,0,4.66,4.66,0,0,1-1.6,1,5.83,5.83,0,0,1-2,.34,4.48,4.48,0,0,1-2.88-.9A3.27,3.27,0,0,1,53,318.33a3.59,3.59,0,0,1,1.31-2.94,5.64,5.64,0,0,1,3.66-1.07h2.66a.11.11,0,0,0,.12-.12v-.62a2.18,2.18,0,0,0-.61-1.64,2.6,2.6,0,0,0-1.86-.59,3.12,3.12,0,0,0-1.6.36,1.69,1.69,0,0,0-.8,1,.36.36,0,0,1-.41.29l-1.73-.22a.5.5,0,0,1-.26-.11.2.2,0,0,1-.07-.2,3.25,3.25,0,0,1,1.55-2.24,5.83,5.83,0,0,1,3.28-.88A5.92,5.92,0,0,1,60.74,309.87Zm-1,9.47a2,2,0,0,0,.95-1.7v-1.39a.11.11,0,0,0-.12-.12H58.35a4.06,4.06,0,0,0-2.26.55,1.74,1.74,0,0,0-.84,1.54,1.55,1.55,0,0,0,.64,1.34,2.76,2.76,0,0,0,1.64.46A3.74,3.74,0,0,0,59.76,319.34Z"/><path d="M68.79,321.48,65,310a.33.33,0,0,1,0-.14c0-.18.1-.26.31-.26H67a.45.45,0,0,1,.26.08.33.33,0,0,1,.14.23L70,318.45c0,.06,0,.09.07.08s.06,0,.07-.11l2.59-8.57a.33.33,0,0,1,.14-.23.45.45,0,0,1,.26-.08l1.78,0a.29.29,0,0,1,.26.11.37.37,0,0,1,0,.3l-3.82,11.5a.39.39,0,0,1-.41.29H69.2A.39.39,0,0,1,68.79,321.48Z"/><path d="M84.31,309.87A3.92,3.92,0,0,1,86,311.31a3.83,3.83,0,0,1,.59,2.1v8a.33.33,0,0,1-.36.36H84.63a.33.33,0,0,1-.36-.36v-.67a.1.1,0,0,0,0-.1.08.08,0,0,0-.1,0,4.66,4.66,0,0,1-1.6,1,5.83,5.83,0,0,1-2,.34,4.48,4.48,0,0,1-2.88-.9,3.27,3.27,0,0,1-1.13-2.72,3.59,3.59,0,0,1,1.31-2.94,5.64,5.64,0,0,1,3.66-1.07h2.66a.11.11,0,0,0,.12-.12v-.62a2.18,2.18,0,0,0-.61-1.64,2.6,2.6,0,0,0-1.86-.59,3.12,3.12,0,0,0-1.6.36,1.69,1.69,0,0,0-.8,1A.36.36,0,0,1,79,313l-1.73-.22a.5.5,0,0,1-.26-.11.2.2,0,0,1-.07-.2,3.25,3.25,0,0,1,1.55-2.24,5.83,5.83,0,0,1,3.28-.88A5.92,5.92,0,0,1,84.31,309.87Zm-1,9.47a2,2,0,0,0,.95-1.7v-1.39a.11.11,0,0,0-.12-.12H81.92a4.06,4.06,0,0,0-2.26.55,1.74,1.74,0,0,0-.84,1.54,1.55,1.55,0,0,0,.64,1.34,2.76,2.76,0,0,0,1.64.46A3.74,3.74,0,0,0,83.32,319.34Z"/><path d="M92,321.38a4.7,4.7,0,0,1-2.08-1.63,4.23,4.23,0,0,1-.73-2.47v-.58a.33.33,0,0,1,.36-.36h1.54a.33.33,0,0,1,.36.36v.46a2.42,2.42,0,0,0,1.06,2,4.57,4.57,0,0,0,2.81.79,3.84,3.84,0,0,0,2.5-.7,2.25,2.25,0,0,0,.84-1.82,1.94,1.94,0,0,0-.43-1.27,4.14,4.14,0,0,0-1.26-1,24.1,24.1,0,0,0-2.41-1.07,24.22,24.22,0,0,1-2.77-1.22,5.11,5.11,0,0,1-1.69-1.45,3.69,3.69,0,0,1-.67-2.27,3.92,3.92,0,0,1,1.48-3.24,6.24,6.24,0,0,1,4-1.18,7.58,7.58,0,0,1,3.12.6,4.79,4.79,0,0,1,2.08,1.68,4.34,4.34,0,0,1,.73,2.5v.36a.33.33,0,0,1-.36.36H98.89a.38.38,0,0,1-.26-.08.29.29,0,0,1-.1-.23v-.29a2.59,2.59,0,0,0-1-2.08,4.17,4.17,0,0,0-2.75-.83,3.78,3.78,0,0,0-2.3.61,2.07,2.07,0,0,0-.82,1.76,2,2,0,0,0,.41,1.3,3.55,3.55,0,0,0,1.21.9q.8.4,2.46,1a27.36,27.36,0,0,1,2.76,1.24,5.27,5.27,0,0,1,1.75,1.49,3.7,3.7,0,0,1,.7,2.29,4.19,4.19,0,0,1-.7,2.4,4.55,4.55,0,0,1-2,1.61,7.7,7.7,0,0,1-3.1.58A7.94,7.94,0,0,1,92,321.38Z"/><path d="M105.56,321a4.63,4.63,0,0,1-1.78-2.51,9.59,9.59,0,0,1-.36-2.9,10.51,10.51,0,0,1,.36-2.9,4.56,4.56,0,0,1,1.79-2.45,5.3,5.3,0,0,1,3.11-.91,5.47,5.47,0,0,1,3.14.91,4.18,4.18,0,0,1,1.75,2.3,3,3,0,0,1,.17.67v0a.32.32,0,0,1-.31.34l-1.56.22h-.07a.32.32,0,0,1-.34-.26l-.07-.31a2.35,2.35,0,0,0-.94-1.37,2.94,2.94,0,0,0-1.8-.55,2.8,2.8,0,0,0-1.75.55,2.52,2.52,0,0,0-.94,1.46,9.75,9.75,0,0,0-.22,2.28,9.61,9.61,0,0,0,.22,2.26,2.67,2.67,0,0,0,.95,1.51,2.74,2.74,0,0,0,1.74.55,3,3,0,0,0,1.78-.54,2.42,2.42,0,0,0,1-1.38l0-.1v0a.42.42,0,0,1,.14-.23.31.31,0,0,1,.26-.08l1.56.26a.34.34,0,0,1,.31.38l-.12.46a4.07,4.07,0,0,1-1.75,2.35,5.57,5.57,0,0,1-3.14.89A5.23,5.23,0,0,1,105.56,321Z"/><path d="M123.06,309.69a.37.37,0,0,1,.19.46l-.34,1.56c0,.16-.1.24-.24.24l-.19,0a2.57,2.57,0,0,0-.82-.12,1.92,1.92,0,0,0-.36,0,2.7,2.7,0,0,0-1.86.78,2.58,2.58,0,0,0-.73,1.91v6.89a.33.33,0,0,1-.36.36h-1.58a.33.33,0,0,1-.36-.36v-11.5a.33.33,0,0,1,.36-.36h1.58a.33.33,0,0,1,.36.36V311c0,.06,0,.1,0,.11s.05,0,.08-.06a3.35,3.35,0,0,1,2.93-1.63A3.08,3.08,0,0,1,123.06,309.69Z"/><path d="M125.52,307.31a1.56,1.56,0,0,1,0-2.18,1.59,1.59,0,0,1,1.14-.42,1.55,1.55,0,0,1,1.13.42,1.6,1.6,0,0,1,0,2.18,1.55,1.55,0,0,1-1.13.42A1.59,1.59,0,0,1,125.52,307.31Zm.08,14.36a.36.36,0,0,1-.1-.26v-11.5a.33.33,0,0,1,.36-.36h1.58a.33.33,0,0,1,.36.36v11.5a.33.33,0,0,1-.36.36h-1.58A.36.36,0,0,1,125.6,321.67Z"/><path d="M141.68,315.69a9.91,9.91,0,0,1-.36,2.9,4.86,4.86,0,0,1-1.67,2.47,4.7,4.7,0,0,1-2.94.89,3.8,3.8,0,0,1-1.55-.31,3.52,3.52,0,0,1-1.24-.91.1.1,0,0,0-.1,0s0,0,0,.08V326a.33.33,0,0,1-.36.36h-1.58a.33.33,0,0,1-.36-.36V309.91a.33.33,0,0,1,.36-.36h1.58a.33.33,0,0,1,.36.36v.62a.1.1,0,0,0,0,.1.08.08,0,0,0,.1,0,3.62,3.62,0,0,1,2.78-1.25,4.66,4.66,0,0,1,2.87.85,4.85,4.85,0,0,1,1.67,2.41A9.2,9.2,0,0,1,141.68,315.69Zm-2.3,0a6.35,6.35,0,0,0-.6-3,2.41,2.41,0,0,0-2.3-1.32,2.27,2.27,0,0,0-2.09,1.3,8,8,0,0,0,0,6.1,2.22,2.22,0,0,0,2,1.22,2.39,2.39,0,0,0,2.14-1.15A5.8,5.8,0,0,0,139.38,315.65Z"/><path d="M150.34,311.35a.35.35,0,0,1-.26.1h-2.45a.11.11,0,0,0-.12.12v6.26a1.6,1.6,0,0,0,1.87,1.9H150a.33.33,0,0,1,.36.36v1.25a.36.36,0,0,1-.36.38l-1,0a4.78,4.78,0,0,1-2.76-.65,2.79,2.79,0,0,1-.91-2.42v-7.1a.11.11,0,0,0-.12-.12h-1.32a.33.33,0,0,1-.36-.36v-1.18a.33.33,0,0,1,.36-.36h1.32a.11.11,0,0,0,.12-.12v-2.69a.33.33,0,0,1,.36-.36h1.49a.33.33,0,0,1,.36.36v2.69a.11.11,0,0,0,.12.12h2.45a.33.33,0,0,1,.36.36v1.18A.36.36,0,0,1,150.34,311.35Z"/><path d="M43.9,379.58l-5.09-16.1a.33.33,0,0,1,0-.14q0-.26.34-.26h1.7a.45.45,0,0,1,.26.08.34.34,0,0,1,.14.23l3.94,13.08c0,.06,0,.1.07.1s.06,0,.07-.1l3.91-13.08a.33.33,0,0,1,.14-.23.45.45,0,0,1,.26-.08H51.3q.43,0,.31.41l-5.14,16.1a.39.39,0,0,1-.41.29H44.31A.39.39,0,0,1,43.9,379.58Z"/><path d="M54.31,365.41a1.56,1.56,0,0,1,0-2.18,1.59,1.59,0,0,1,1.14-.42,1.55,1.55,0,0,1,1.13.42,1.6,1.6,0,0,1,0,2.18,1.55,1.55,0,0,1-1.13.42A1.59,1.59,0,0,1,54.31,365.41Zm.08,14.36a.36.36,0,0,1-.1-.26V368a.33.33,0,0,1,.36-.36h1.58a.33.33,0,0,1,.36.36v11.5a.33.33,0,0,1-.36.36H54.66A.36.36,0,0,1,54.39,379.77Z"/><path d="M61.92,379.58a4,4,0,0,1-1.69-1.19,2.62,2.62,0,0,1-.6-1.67v-.14a.33.33,0,0,1,.36-.36h1.49a.6.6,0,0,1,.26,0c.06,0,.1.07.1.12v.19a1.43,1.43,0,0,0,.73,1.18,3.16,3.16,0,0,0,1.84.5,3,3,0,0,0,1.78-.47,1.4,1.4,0,0,0,.67-1.19,1.12,1.12,0,0,0-.62-1,9.77,9.77,0,0,0-2-.73,18.76,18.76,0,0,1-2.29-.78,4.24,4.24,0,0,1-1.56-1.13,2.77,2.77,0,0,1-.64-1.88A3,3,0,0,1,61,368.48a5.43,5.43,0,0,1,3.35-.95,6.37,6.37,0,0,1,2.46.44,3.75,3.75,0,0,1,1.64,1.24A3,3,0,0,1,69,371a.29.29,0,0,1-.1.23.38.38,0,0,1-.26.08H67.21a.59.59,0,0,1-.26,0c-.06,0-.1-.07-.1-.12V371a1.38,1.38,0,0,0-.68-1.16,3.87,3.87,0,0,0-3.58-.06,1.24,1.24,0,0,0-.66,1.1,1.15,1.15,0,0,0,.64,1.06,10.21,10.21,0,0,0,2.05.77,22,22,0,0,1,2.32.76,4.14,4.14,0,0,1,1.57,1.1,2.78,2.78,0,0,1,.65,1.91,3.07,3.07,0,0,1-1.28,2.59,5.62,5.62,0,0,1-3.44,1A6.78,6.78,0,0,1,61.92,379.58Z"/><path d="M79.21,367.75a.36.36,0,0,1,.26-.1H81a.33.33,0,0,1,.36.36v11.5a.33.33,0,0,1-.36.36H79.47a.33.33,0,0,1-.36-.36v-.72s0-.08,0-.08a.1.1,0,0,0-.1,0A3.41,3.41,0,0,1,76,380a5.16,5.16,0,0,1-2.17-.46,3.66,3.66,0,0,1-2.2-3.5V368a.33.33,0,0,1,.36-.36h1.56A.33.33,0,0,1,74,368v7.34a2.8,2.8,0,0,0,.66,2,2.4,2.4,0,0,0,1.86.72,2.57,2.57,0,0,0,1.92-.73,2.67,2.67,0,0,0,.72-2V368A.36.36,0,0,1,79.21,367.75Z"/><path d="M91.8,368a3.92,3.92,0,0,1,1.68,1.44,3.83,3.83,0,0,1,.59,2.1v8a.33.33,0,0,1-.36.36H92.12a.33.33,0,0,1-.36-.36v-.67a.1.1,0,0,0,0-.1.08.08,0,0,0-.1,0,4.66,4.66,0,0,1-1.6,1,5.83,5.83,0,0,1-2,.34,4.48,4.48,0,0,1-2.88-.9A3.27,3.27,0,0,1,84,376.44a3.59,3.59,0,0,1,1.31-2.94A5.64,5.64,0,0,1,89,372.43h2.66a.11.11,0,0,0,.12-.12v-.62a2.18,2.18,0,0,0-.61-1.64,2.6,2.6,0,0,0-1.86-.59,3.12,3.12,0,0,0-1.6.36,1.69,1.69,0,0,0-.8,1,.36.36,0,0,1-.41.29l-1.73-.22a.5.5,0,0,1-.26-.11.2.2,0,0,1-.07-.2A3.25,3.25,0,0,1,86,368.33a5.83,5.83,0,0,1,3.28-.88A5.92,5.92,0,0,1,91.8,368Zm-1,9.47a2,2,0,0,0,.95-1.7v-1.39a.11.11,0,0,0-.12-.12H89.41a4.06,4.06,0,0,0-2.26.55,1.74,1.74,0,0,0-.84,1.54,1.55,1.55,0,0,0,.64,1.34,2.76,2.76,0,0,0,1.64.46A3.74,3.74,0,0,0,90.81,377.44Z"/><path d="M97.28,379.77a.36.36,0,0,1-.1-.26V363.43a.33.33,0,0,1,.36-.36h1.58a.33.33,0,0,1,.36.36v16.08a.33.33,0,0,1-.36.36H97.54A.36.36,0,0,1,97.28,379.77Z"/><path d="M110,379.48a4.7,4.7,0,0,1-2.08-1.63,4.23,4.23,0,0,1-.73-2.47v-.58a.33.33,0,0,1,.36-.36h1.54a.33.33,0,0,1,.36.36v.46a2.42,2.42,0,0,0,1.06,2,4.57,4.57,0,0,0,2.81.79,3.84,3.84,0,0,0,2.5-.7,2.25,2.25,0,0,0,.84-1.82,1.94,1.94,0,0,0-.43-1.27,4.14,4.14,0,0,0-1.26-1,24.1,24.1,0,0,0-2.41-1.07,24.22,24.22,0,0,1-2.77-1.22,5.11,5.11,0,0,1-1.69-1.45,3.69,3.69,0,0,1-.67-2.27,3.92,3.92,0,0,1,1.48-3.24,6.24,6.24,0,0,1,4-1.18,7.58,7.58,0,0,1,3.12.6,4.79,4.79,0,0,1,2.08,1.68,4.34,4.34,0,0,1,.73,2.5V368a.33.33,0,0,1-.36.36h-1.56a.38.38,0,0,1-.26-.08.29.29,0,0,1-.1-.23v-.29a2.59,2.59,0,0,0-1-2.08,4.17,4.17,0,0,0-2.75-.83,3.78,3.78,0,0,0-2.3.61,2.07,2.07,0,0,0-.82,1.76,2,2,0,0,0,.41,1.3,3.55,3.55,0,0,0,1.21.9q.8.4,2.46,1a27.36,27.36,0,0,1,2.76,1.24,5.27,5.27,0,0,1,1.75,1.49,3.7,3.7,0,0,1,.7,2.29,4.19,4.19,0,0,1-.7,2.4,4.55,4.55,0,0,1-2,1.61,7.7,7.7,0,0,1-3.1.58A7.94,7.94,0,0,1,110,379.48Z"/><path d="M127.71,369.45a.35.35,0,0,1-.26.1H125a.11.11,0,0,0-.12.12v6.26a1.6,1.6,0,0,0,1.87,1.9h.58a.33.33,0,0,1,.36.36v1.25a.36.36,0,0,1-.36.38l-1,0a4.78,4.78,0,0,1-2.76-.65,2.79,2.79,0,0,1-.91-2.42v-7.1a.11.11,0,0,0-.12-.12h-1.32a.33.33,0,0,1-.36-.36V368a.33.33,0,0,1,.36-.36h1.32a.11.11,0,0,0,.12-.12v-2.69a.33.33,0,0,1,.36-.36h1.49a.33.33,0,0,1,.36.36v2.69a.11.11,0,0,0,.12.12h2.45a.33.33,0,0,1,.36.36v1.18A.36.36,0,0,1,127.71,369.45Z"/><path d="M138,367.75a.36.36,0,0,1,.26-.1h1.56a.33.33,0,0,1,.36.36v11.5a.33.33,0,0,1-.36.36h-1.56a.33.33,0,0,1-.36-.36v-.72s0-.08,0-.08a.1.1,0,0,0-.1,0,3.41,3.41,0,0,1-2.93,1.3,5.16,5.16,0,0,1-2.17-.46,3.66,3.66,0,0,1-2.2-3.5V368a.33.33,0,0,1,.36-.36h1.56a.33.33,0,0,1,.36.36v7.34a2.8,2.8,0,0,0,.66,2,2.4,2.4,0,0,0,1.86.72,2.57,2.57,0,0,0,1.92-.73,2.67,2.67,0,0,0,.72-2V368A.36.36,0,0,1,138,367.75Z"/><path d="M151.09,363.16a.36.36,0,0,1,.26-.1h1.58a.33.33,0,0,1,.36.36v16.08a.33.33,0,0,1-.36.36h-1.58a.33.33,0,0,1-.36-.36v-.62a.1.1,0,0,0,0-.1.08.08,0,0,0-.1,0,3.62,3.62,0,0,1-2.78,1.25,4.66,4.66,0,0,1-2.87-.85,4.85,4.85,0,0,1-1.67-2.41,9.22,9.22,0,0,1-.43-3.07,9.91,9.91,0,0,1,.36-2.9,4.86,4.86,0,0,1,1.67-2.47,4.71,4.71,0,0,1,2.94-.89,3.8,3.8,0,0,1,1.55.31,3.52,3.52,0,0,1,1.24.91.1.1,0,0,0,.1,0s0,0,0-.08v-5.21A.36.36,0,0,1,151.09,363.16ZM151,373.75a6.3,6.3,0,0,0-.62-3.07,2.22,2.22,0,0,0-2-1.22,2.39,2.39,0,0,0-2.14,1.15,5.8,5.8,0,0,0-.77,3.17,6.34,6.34,0,0,0,.6,3,2.4,2.4,0,0,0,2.3,1.32,2.27,2.27,0,0,0,2.09-1.3A6.43,6.43,0,0,0,151,373.75Z"/><path d="M156.88,365.41a1.56,1.56,0,0,1,0-2.18,1.59,1.59,0,0,1,1.14-.42,1.55,1.55,0,0,1,1.13.42,1.6,1.6,0,0,1,0,2.18,1.55,1.55,0,0,1-1.13.42A1.59,1.59,0,0,1,156.88,365.41Zm.08,14.36a.36.36,0,0,1-.1-.26V368a.33.33,0,0,1,.36-.36h1.58a.33.33,0,0,1,.36.36v11.5a.33.33,0,0,1-.36.36h-1.58A.36.36,0,0,1,157,379.77Z"/><path d="M164.61,379.16a4.73,4.73,0,0,1-1.84-2.51,9.23,9.23,0,0,1-.43-2.93,8.84,8.84,0,0,1,.41-2.88,4.72,4.72,0,0,1,1.85-2.48,5.44,5.44,0,0,1,3.14-.9,5.11,5.11,0,0,1,3,.9,4.92,4.92,0,0,1,1.84,2.46,8.65,8.65,0,0,1,.43,2.88,9.18,9.18,0,0,1-.43,3,4.76,4.76,0,0,1-1.82,2.51,5.21,5.21,0,0,1-3,.9A5.35,5.35,0,0,1,164.61,379.16Zm4.79-1.63a3,3,0,0,0,1-1.52,8.24,8.24,0,0,0,.26-2.26,8.74,8.74,0,0,0-.24-2.23,3,3,0,0,0-1-1.52,2.83,2.83,0,0,0-1.75-.54,2.76,2.76,0,0,0-1.7.54,3,3,0,0,0-1,1.52,7.65,7.65,0,0,0-.26,2.23,7.91,7.91,0,0,0,.26,2.26,2.8,2.8,0,0,0,1,1.52,2.89,2.89,0,0,0,1.76.54A2.73,2.73,0,0,0,169.4,377.53Z"/><path d="M183.45,379.4a4.94,4.94,0,0,1-2.06-1.94,5.65,5.65,0,0,1-.73-2.89v-6.22a5.52,5.52,0,0,1,.73-2.87,5,5,0,0,1,2.06-1.92,6.6,6.6,0,0,1,3.06-.68,6.74,6.74,0,0,1,3,.66,4.93,4.93,0,0,1,2.05,1.86,5.23,5.23,0,0,1,.73,2.78c0,.16-.12.26-.36.29l-1.58.1h-.1a.34.34,0,0,1-.19,0s-.07-.06-.07-.1v-.14a3.3,3.3,0,0,0-1-2.47,3.52,3.52,0,0,0-2.57-.94,3.56,3.56,0,0,0-2.58.94,3.28,3.28,0,0,0-1,2.47v6.38a3.27,3.27,0,0,0,1,2.47,3.56,3.56,0,0,0,2.58.94,3.52,3.52,0,0,0,2.57-.94,3.3,3.3,0,0,0,1-2.47.25.25,0,0,1,.1-.22.35.35,0,0,1,.26,0l1.58.1q.36,0,.36.12v.12a5.3,5.3,0,0,1-.73,2.8,5,5,0,0,1-2.05,1.88,7.22,7.22,0,0,1-6.11,0Z"/><path d="M197.27,379.16a4.73,4.73,0,0,1-1.84-2.51,9.23,9.23,0,0,1-.43-2.93,8.84,8.84,0,0,1,.41-2.88,4.72,4.72,0,0,1,1.85-2.48,5.44,5.44,0,0,1,3.14-.9,5.11,5.11,0,0,1,3,.9,4.92,4.92,0,0,1,1.84,2.46,8.65,8.65,0,0,1,.43,2.88,9.18,9.18,0,0,1-.43,3,4.76,4.76,0,0,1-1.82,2.51,5.21,5.21,0,0,1-3,.9A5.35,5.35,0,0,1,197.27,379.16Zm4.79-1.63a3,3,0,0,0,1-1.52,8.24,8.24,0,0,0,.26-2.26,8.74,8.74,0,0,0-.24-2.23,3,3,0,0,0-1-1.52,2.83,2.83,0,0,0-1.75-.54,2.76,2.76,0,0,0-1.7.54,3,3,0,0,0-1,1.52,7.65,7.65,0,0,0-.26,2.23,7.91,7.91,0,0,0,.26,2.26,2.8,2.8,0,0,0,1,1.52,2.89,2.89,0,0,0,1.76.54A2.73,2.73,0,0,0,202.06,377.53Z"/><path d="M216.22,363.16a.36.36,0,0,1,.26-.1h1.58a.33.33,0,0,1,.36.36v16.08a.33.33,0,0,1-.36.36h-1.58a.33.33,0,0,1-.36-.36v-.62a.1.1,0,0,0,0-.1.08.08,0,0,0-.1,0,3.62,3.62,0,0,1-2.78,1.25,4.66,4.66,0,0,1-2.87-.85,4.85,4.85,0,0,1-1.67-2.41,9.22,9.22,0,0,1-.43-3.07,9.91,9.91,0,0,1,.36-2.9,4.86,4.86,0,0,1,1.67-2.47,4.71,4.71,0,0,1,2.94-.89,3.8,3.8,0,0,1,1.55.31,3.52,3.52,0,0,1,1.24.91.1.1,0,0,0,.1,0s0,0,0-.08v-5.21A.36.36,0,0,1,216.22,363.16Zm-.12,10.58a6.3,6.3,0,0,0-.62-3.07,2.22,2.22,0,0,0-2-1.22,2.39,2.39,0,0,0-2.14,1.15,5.8,5.8,0,0,0-.77,3.17,6.34,6.34,0,0,0,.6,3,2.4,2.4,0,0,0,2.3,1.32,2.27,2.27,0,0,0,2.09-1.3A6.43,6.43,0,0,0,216.1,373.75Z"/><path d="M229.73,376.58c.08-.14.17-.22.26-.22a.35.35,0,0,1,.22.07l1,.6a.36.36,0,0,1,.19.31l0,.19a4.68,4.68,0,0,1-1.84,1.85,5.53,5.53,0,0,1-2.77.67,5.21,5.21,0,0,1-2.88-.76,4.66,4.66,0,0,1-1.78-2.17,9,9,0,0,1-.6-3.43,10.17,10.17,0,0,1,.26-2.66,4.59,4.59,0,0,1,1.73-2.62,5.14,5.14,0,0,1,3.14-1,4.74,4.74,0,0,1,3.48,1.19,6,6,0,0,1,1.56,3.44q.12.89.17,2.16a.32.32,0,0,1-.36.36h-7.58a.11.11,0,0,0-.12.12,5.89,5.89,0,0,0,.17,1.3,2.63,2.63,0,0,0,1.06,1.51,3.36,3.36,0,0,0,2,.55A3,3,0,0,0,229.73,376.58ZM224.9,370a2.52,2.52,0,0,0-.9,1.39,5.6,5.6,0,0,0-.22,1.34.11.11,0,0,0,.12.12h5.45a.11.11,0,0,0,.12-.12,7,7,0,0,0-.14-1.18A2.91,2.91,0,0,0,224.9,370Z"/><path class="cls-2" d="M15,128.5h9.09c-.09.8.25,1.64-.19,2.41a1.17,1.17,0,0,1-.43-.69c-.12-.85-.69-1.08-1.45-1.08H17.11a1.75,1.75,0,0,0-1.62.67A.44.44,0,0,1,15,130"/><path class="cls-2" d="M11.91,135.16a4.84,4.84,0,0,0-3.15-1.79,4.8,4.8,0,0,0-4.58,1.78c.38-1.62-.47-1.58-1.35-1.5H2.73c-.79-.13-1.06.14-1,1,.05,3.62,0,7.23,0,10.85a34.74,34.74,0,0,0,.06,4l2.57,0V143c2.6,2.07,5.35,2,7.27,0A6.27,6.27,0,0,0,11.91,135.16Zm-4.46,7.22a3.37,3.37,0,0,1-3.17-3.54,3.27,3.27,0,0,1,3.26-3.32,3.14,3.14,0,0,1,2.92,3.4C10.43,140.85,9.06,142.43,7.45,142.38Z"/><path class="cls-2" d="M15,130c.27-1.32.27-1.32,1.68-1.32,2.06,0,4.13,0,6.19,0,.82,0,1.14.23,1,1a11.53,11.53,0,0,0,0,1.2c-1.79,0-3.58,0-5.37,0-.69,0-1,.12-1,.9s-.33,1.73,0,2.25,1.37,0,2.09.07c2.82.2,4.78,1.88,5,4.31.25,3.14-1.33,5.38-4.26,6a5.58,5.58,0,0,1-5.68-1.57c-.44-.48-.63-.86,0-1.33A13.89,13.89,0,0,0,16,140.35a4.67,4.67,0,0,0,1.11,1.42,3.07,3.07,0,0,0,3.4.23,3,3,0,0,0,1.35-3.11,2.71,2.71,0,0,0-2.1-2.42A8.23,8.23,0,0,0,15,137Z"/><path class="cls-3" d="M29.26,131.8c-.69.11-.61,1.53-1.5.82s.61-.92.36-1.65a7.29,7.29,0,0,0-.87-.33c-.4-.11-.47-.31-.35-.68s.31-.48.67-.3c.94.48,1.25.13,1.11-.84-.06-.39.18-.45.51-.44s.56,0,.55.43c0,.12,0,.25,0,.37-.07.62.14.85.78.61.34-.13.75-.41,1,.23s-.29.67-.63.74c-.72.15-.78.44-.31.95.08.09.13.21.22.3.3.32.13.51-.16.74s-.47.19-.67-.09S29.47,132.07,29.26,131.8Z"/><path class="cls-4" d="M12.7,378.5a.91.91,0,0,0-.2-.08L8,376.9l-6.32-2.13-.06,0s0,0,0,0l.66.09,1.58.23,1.72.26,1.67.25,1.9.28,1.73.26,1.8.27c.07,0,.07,0,.07-.07q0-6.35,0-12.7s0-.07,0-.1h0a3.33,3.33,0,0,1,.65.24l1.68.7,1.3.54a.16.16,0,0,1,.12.18q0,5.84,0,11.68c0,.13,0,.13-.12.18l-1.16.48-2.28.95-.18,0Z"/><path class="cls-4" d="M10.85,366.65a.1.1,0,0,0-.07-.11l-1.91-.81a.11.11,0,0,0-.14,0l-3.34,3.31s-.06,0-.1,0l-2-1.49a.1.1,0,0,0-.11,0l-.27.09-.54.18.07,0,2,2s0,.05,0,.09l-1.62,1.6-.44.45h0l.74.25a.1.1,0,0,0,.11,0l2-1.48s.06,0,.11,0l3.35,3.31a.08.08,0,0,0,.11,0l1.93-.82a.1.1,0,0,0,.07-.11Q10.85,369.91,10.85,366.65Zm-2.07,5s0,0,0,0l-2.28-1.72s0,0,0-.07l2.3-1.73,0,0Z"/><path class="cls-5" d="M1.59,374.73h0Z"/><path class="cls-6" d="M1.53,374.72a0,0,0,0,0,0,0l0,0S1.52,374.72,1.53,374.72Z"/><path class="cls-7" d="M1,321.48v-17a.17.17,0,0,1,.09,0h16.8c.11,0,.1,0,.1.1q0,8.39,0,16.78a.27.27,0,0,1,0,.09.18.18,0,0,1-.09,0H1.06A.17.17,0,0,1,1,321.48Z"/><path class="cls-8" d="M17.95,321.48s0-.07,0-.1q0-8.37,0-16.73s0,0,0-.07,0-.05-.05-.05H1s0,0,0,0H17.89c.07,0,.08,0,.08.08q0,8.42,0,16.84s0,.05,0,.07S17.94,321.49,17.95,321.48Z"/><path class="cls-9" d="M17.95,321.48v0H1s-.05,0-.07,0h17Z"/><path class="cls-10" d="M14,320.15a3.48,3.48,0,0,1-1.91-.51,2.85,2.85,0,0,1-1-1.05c0-.05,0-.07,0-.1l1.17-.68s.07,0,.1,0a2,2,0,0,0,.46.54,1.65,1.65,0,0,0,1.64.27.72.72,0,0,0,.49-.49.73.73,0,0,0-.27-.8,2.5,2.5,0,0,0-.5-.29c-.38-.18-.78-.33-1.16-.52a3.48,3.48,0,0,1-.86-.58,2.14,2.14,0,0,1-.65-1.66,2,2,0,0,1,1.65-2,3,3,0,0,1,1.82.13,2.31,2.31,0,0,1,1.11,1s0,0,0,.07l-1.15.74s-.05,0-.07,0a1.46,1.46,0,0,0-.28-.37,1,1,0,0,0-1-.2.7.7,0,0,0-.25,1.12,1.48,1.48,0,0,0,.38.27c.32.17.67.3,1,.45a5.2,5.2,0,0,1,1.14.66,2.07,2.07,0,0,1,.79,1.55,2.26,2.26,0,0,1-.26,1.28,2.14,2.14,0,0,1-1.25,1A3.59,3.59,0,0,1,14,320.15Z"/><path class="cls-10" d="M10.19,315.2c0,.92,0,1.85,0,2.77A2.4,2.4,0,0,1,9.93,319a1.86,1.86,0,0,1-1.14,1,3.08,3.08,0,0,1-2,0,2.37,2.37,0,0,1-1.38-1.25s0-.06,0-.09l1.19-.72s.06,0,.08,0a3,3,0,0,0,.29.44,1,1,0,0,0,1.16.24.68.68,0,0,0,.37-.55,2.23,2.23,0,0,0,0-.41q0-2.63,0-5.27c0-.12,0-.1.11-.1h1.4c.07,0,.09,0,.09.09q0,1.41,0,2.81Z"/><path class="cls-11" d="M2.38,200.64a.67.67,0,0,1-.07-.43.64.64,0,0,0,0-.49c-.16-1.06-.24-2.12-.29-3.19.08-.17,0-.36,0-.51a.15.15,0,0,1-.06.14c-.1-.93-.2-1.86-.28-2.78,0-.44-.06-.88-.09-1.32.09-.17,0-.36,0-.47a.12.12,0,0,1-.06.1,11.85,11.85,0,0,1-.17-1.53.65.65,0,0,0,0-.49,29.76,29.76,0,0,1-.28-3.08H16.89a27.61,27.61,0,0,1-.28,3,.87.87,0,0,0,0,.59.67.67,0,0,1-.07.43.13.13,0,0,1-.06-.12c.07,0,0-.11,0-.08a.81.81,0,0,0,0,.47,1.87,1.87,0,0,1-.08.83c-.05,0-.09-.09,0-.14a.08.08,0,0,0-.05.09c0,.11,0,.22,0,.32-.11,1.34-.21,2.69-.32,4-.08,1-.18,2-.27,2.95,0,.23-.07.45-.1.68a.91.91,0,0,0,0,.59,11.85,11.85,0,0,1-.18,1.6.87.87,0,0,0,0,.59c.06.35-.22.35-.43.4l-5.76,1.6a.74.74,0,0,0-.16.09h-.3c-1.46-.51-3-.83-4.44-1.28A10.9,10.9,0,0,0,3,202.85c-.46-.08-.62-.3-.53-.74.09-.17,0-.36,0-.47a.12.12,0,0,1-.06.1A1.48,1.48,0,0,1,2.4,201c.08-.12,0-.27.05-.4h0C2.44,200.67,2.32,200.61,2.38,200.64Z"/><path class="cls-12" d="M16.89,186.6a.94.94,0,0,1-.58.1H1.69a1,1,0,0,1-.58-.1c.1-.17.27-.08.4-.08h15C16.62,186.52,16.78,186.43,16.89,186.6Z"/><path class="cls-13" d="M16.59,190.18a.47.47,0,0,1,0-.59Z"/><path class="cls-14" d="M1.58,191.7a.34.34,0,0,1,0-.09s.08-.06.08,0,.06.32-.08.44Z"/><path class="cls-14" d="M2,196.18a.34.34,0,0,1,0-.09s.08-.06.08,0,.06.32-.08.44Z"/><path class="cls-13" d="M15.69,200.22a.48.48,0,0,1,0-.59Z"/><path class="cls-14" d="M2.38,200.64a.28.28,0,0,1,0-.09s.08,0,.08,0,.06.31-.08.44Z"/><path class="cls-14" d="M2.47,201.74a.34.34,0,0,1,0-.09s.08-.06.08,0,.06.32-.08.44Z"/><path class="cls-13" d="M15.49,202.41a.47.47,0,0,1,0-.59Z"/><path class="cls-13" d="M1.4,189.69a.35.35,0,0,1,0,.49Z"/><path class="cls-14" d="M16.4,192c-.11-.08-.1-.19-.09-.3s0-.06.05-.09l.06.12Z"/><path class="cls-14" d="M16.5,190.88c-.12-.09-.09-.22-.09-.34s0-.07.08,0a.3.3,0,0,1,0,.09Z"/><path class="cls-13" d="M2.29,199.73a.35.35,0,0,1,0,.49Z"/><path class="cls-15" d="M9,189.68c0-.48,0-1,0-1.44,0-.31.11-.45.43-.45h5.71c.28,0,.38.06.35.41-.14,1.34-.21,2.69-.33,4-.15,1.65-.33,3.3-.48,5-.08.92-.15,1.84-.21,2.76a10.66,10.66,0,0,0-.11,1.38c0,.25-.16.38-.39.44-1.53.42-3.05.83-4.57,1.27-.35.1-.41,0-.4-.31,0-.46,0-.93,0-1.39a.31.31,0,0,0-.12-.29.21.21,0,0,1,.12-.1c1.21-.32,2.41-.71,3.63-1,.33-.07.37-.32.4-.6a7.51,7.51,0,0,1,.21-1.7c.22-.23,0-.48,0-.72,0-1,.16-2,.22-3a.22.22,0,0,0-.09-.13c-1.12-.1-2.25,0-3.37,0s-1.08,0-1.07-1.07A1.36,1.36,0,0,1,9,192a.94.94,0,0,1,.66-.13c1.27,0,2.55,0,3.82,0a.23.23,0,0,0,.16-.15,4.37,4.37,0,0,1,.16-.92.81.81,0,0,0,.06-.52.66.66,0,0,1,0-.13c0-.15,0-.25-.2-.27-1.34,0-2.68,0-4,0a1.32,1.32,0,0,1-.63-.08Z"/><path class="cls-16" d="M4.19,191.77v-.3c.1-.21,0-.41,0-.62a1.23,1.23,0,0,0-.07-.18v-.2c.06-.62.06-.63.72-.63H8.34a1,1,0,0,1,.62.1,2.57,2.57,0,0,1,0,1.71c-.18.19-.42.15-.64.16-.65,0-1.3,0-1.95,0-.18.13-.09.3-.06.45s0,.49.09.73a1.93,1.93,0,0,1,0,.43s0,.09,0,.14a.67.67,0,0,0,0,.13.29.29,0,0,0,.12.08c.58,0,1.16,0,1.73,0A.84.84,0,0,1,9,194a2.48,2.48,0,0,1,.11,1.17c0,.33.13.48.47.47s.92,0,1.38,0c.18,0,.46-.07.47.27a6.94,6.94,0,0,1-2.48,0c-1.28,0-2.56,0-3.84,0a1,1,0,0,1-.53-.05.71.71,0,0,1,0-.09v-.06c0-.12.06-.26,0-.38a.23.23,0,0,1-.09-.05.1.1,0,0,1,0-.1,1.39,1.39,0,0,0-.07-.72.5.5,0,0,1,0-.47l0-.31c.09-.21,0-.41,0-.62a1,1,0,0,0-.07-.18v-.2c.09-.24,0-.47,0-.71A1,1,0,0,0,4.19,191.77Z"/><path class="cls-16" d="M9,201l-.1,0-4-1.12c-.14-.15-.07-.32,0-.49a.87.87,0,0,0-.07-.53.49.49,0,0,1,0-.47l0-.21c.09-.24,0-.47,0-.71a1,1,0,0,0-.07-.18V197c.11-.24.33-.22.54-.23.42,0,.84,0,1.27,0a.21.21,0,0,1,.15.06v.29c-.1.2.09.4,0,.6a.25.25,0,0,0,0,.06l0,0a.11.11,0,0,1,.1.05c-.07.45.14.63.58.7a11.88,11.88,0,0,0,1.72.39l0,.08c0,.52,0,1,0,1.55A.65.65,0,0,1,9,201Z"/><path class="cls-15" d="M9,198.94A4.16,4.16,0,0,1,9,197.48c0-.51,0-1,0-1.53l.08,0c.79,0,1.58,0,2.37,0a2.58,2.58,0,0,1,0,1.6.89.89,0,0,0-.06.69c0,.12,0,.25-.14.29A5.77,5.77,0,0,1,9,199,.11.11,0,0,0,9,198.94Z"/><path class="cls-17" d="M13.92,189.78a.19.19,0,0,1,0,.31c-1.42-.1-2.84,0-4.25,0a1.56,1.56,0,0,1-.73-.1c-1.5,0-3,0-4.49,0a.36.36,0,0,0-.4.27l-.07,0c-.08-.13-.11-.26,0-.38a.08.08,0,0,0,.07,0c.87-.09,1.75,0,2.63,0s1.49,0,2.24,0h4.48A1.11,1.11,0,0,1,13.92,189.78Z"/><path class="cls-18" d="M4.07,190.19c0-.27.15-.32.38-.31l4.51,0A.05.05,0,0,1,9,190l0,0c-1.39,0-2.77,0-4.16,0-.42,0-.63.1-.7.51Z"/><path class="cls-19" d="M8.95,189.77H4.08c.15-.16.34-.09.52-.09H9s0,0,0,.06Z"/><path class="cls-13" d="M4.58,195.84l4.37,0s0,0,0,.06l0,0H5.09C4.91,195.94,4.72,196,4.58,195.84Z"/><path class="cls-12" d="M4.67,196.74a4,4,0,0,1,2,0A4.29,4.29,0,0,1,4.67,196.74Z"/><path class="cls-18" d="M6.56,196.86a3.66,3.66,0,0,1-1.21.08,1.3,1.3,0,0,0-.67.1v-.19A6,6,0,0,1,6.56,196.86Z"/><path class="cls-20" d="M6.56,196.86H4.68v-.1h2v.11H6.56Z"/><path class="cls-18" d="M4.27,191.87a.78.78,0,0,1,0,.79l0-.28A.71.71,0,0,1,4.27,191.87Z"/><path class="cls-18" d="M6.67,197.82c-.21-.22-.13-.45,0-.68l0,.19A.73.73,0,0,1,6.67,197.82Z"/><path class="cls-18" d="M4.77,197.44a.78.78,0,0,1,0,.79l0-.28A.75.75,0,0,1,4.77,197.44Z"/><path class="cls-18" d="M4.18,190.78a.61.61,0,0,1,0,.69l0-.28A.48.48,0,0,1,4.18,190.78Z"/><path class="cls-18" d="M4.37,193a.59.59,0,0,1,0,.69l0-.18A.75.75,0,0,1,4.37,193Z"/><path class="cls-21" d="M4.27,191.87v.51a.9.9,0,0,1-.07-.61Z"/><path class="cls-14" d="M4.36,194l0,.47C4.15,194.29,4.28,194.13,4.36,194Z"/><path class="cls-21" d="M4.77,197.44V198a.94.94,0,0,1-.07-.61Z"/><path class="cls-21" d="M4.37,193v.51a.93.93,0,0,1-.07-.61Z"/><path class="cls-14" d="M4.76,198.44l0,.47C4.54,198.77,4.68,198.6,4.76,198.44Z"/><path class="cls-14" d="M4.47,195.16a.21.21,0,0,1,0,.09.31.31,0,0,1,0,.41A.35.35,0,0,1,4.47,195.16Z"/><path class="cls-22" d="M4.47,195.65l0-.41.07,0c.1.15,0,.32,0,.48h0Z"/><path class="cls-23" d="M4.18,190.78l0,.41a.71.71,0,0,1-.07-.52Z"/><path class="cls-24" d="M6.67,197.82v-.49a.67.67,0,0,1,.07.52Z"/><path class="cls-25" d="M4.86,199.43l0,.49C4.71,199.77,4.74,199.61,4.86,199.43Z"/><path class="cls-26" d="M4,189.79l0,.38C3.77,190,3.87,189.91,4,189.79Z"/><path class="cls-27" d="M11.24,197.54a12.06,12.06,0,0,0,.18-1.59s0,0,0-.06l0,0a3.19,3.19,0,0,0-1.45-.1c-1,0-1,0-1-1.06,0-.25,0-.5,0-.74A.11.11,0,0,1,9,193.8c1.46-.08,2.93,0,4.39,0a.3.3,0,0,1,.22.11L13.34,197a.77.77,0,0,1,0,.57,12.48,12.48,0,0,0-.19,1.86c0,.38-.13.55-.57.65a16.76,16.76,0,0,0-3.24.94c-.15.07-.24-.06-.37,0A12,12,0,0,1,9,199l1.89-.53c.19-.05.36-.09.3-.34A.94.94,0,0,1,11.24,197.54Z"/><path class="cls-28" d="M9,190s0-.06,0-.09l4.66,0c.16,0,.3,0,.32.21v.1a.75.75,0,0,1,0,.49l-.13,1.08a.35.35,0,0,1-.27.11c-1.51,0-3,.06-4.53,0a.11.11,0,0,1-.06-.16Z"/><path class="cls-29" d="M9,191.76H13.8l-.08.13c-1.19.08-2.38,0-3.57,0A7.66,7.66,0,0,0,9,192a12.62,12.62,0,0,1-1.88.06,1.28,1.28,0,0,0-.63.07,1.56,1.56,0,0,1-.25.2c-.12-.15-.08-.32-.08-.48a3.56,3.56,0,0,1,1.26-.07A9.17,9.17,0,0,1,9,191.76Z"/><path class="cls-30" d="M13.61,193.88H9a14.11,14.11,0,0,1-2.58,0,.19.19,0,0,1,0-.09.47.47,0,0,1,.36-.13,21.46,21.46,0,0,1,2.22,0,6.69,6.69,0,0,0,1.37,0c1.1,0,2.19-.06,3.29.05Z"/><path class="cls-31" d="M13.62,193.76H8.95a.63.63,0,0,1-.1-.15,3.88,3.88,0,0,1,0-1.58A.14.14,0,0,1,9,192c0,.4,0,.8,0,1.19s.09.52.5.51c1.19,0,2.38,0,3.57,0C13.28,193.67,13.48,193.6,13.62,193.76Z"/><path class="cls-32" d="M8.95,189.77v-.08H13.4c.17,0,.37-.07.52.09Z"/><path class="cls-32" d="M9,192H9l0,0,0,0h4.77c-.15.15-.34.08-.52.08Z"/><path class="cls-33" d="M13.31,197.62l0-.57a.7.7,0,0,1,.05.59h0Z"/><path class="cls-34" d="M13.93,190.68l0-.49A.35.35,0,0,1,13.93,190.68Z"/><path class="cls-11" d="M9,192v1.69a14,14,0,0,1-2.57,0v-.1a.47.47,0,0,0,0-.47,2.57,2.57,0,0,1-.1-.81l0-.31A15.62,15.62,0,0,1,9,192Z"/><path class="cls-18" d="M9,191.76l-2.78,0c.11-.19.29-.12.45-.12H8.95Z"/><path class="cls-18" d="M6.37,193.85l2.58,0V194H6.82C6.67,194,6.49,194,6.37,193.85Z"/><path class="cls-12" d="M6.38,193.66H8.95s0,.06,0,.09H6.38A.11.11,0,0,1,6.38,193.66Z"/><path class="cls-35" d="M11.43,195.86a.11.11,0,0,1,0,.09H9v-.08Z"/><path class="cls-18" d="M4.6,195.75l0-.48C4.78,195.41,4.67,195.58,4.6,195.75Z"/><path class="cls-14" d="M6.35,193.09c.25.14.11.31,0,.47Z"/><path class="cls-35" d="M11.24,197.54l0,.59A.47.47,0,0,1,11.24,197.54Z"/><path class="cls-19" d="M9,192H6.28c.26-.21.57-.08.85-.09.61,0,1.22,0,1.82,0T9,192Z"/><path class="cls-36" d="M.88,245.61v-.06a.1.1,0,0,1,.08,0H16.48a.41.41,0,0,1,.22,0s0,0,0,.07v.06c0,.42,0,.83-.07,1.25s-.06.66-.09,1-.06.65-.09,1l-.09,1-.09,1-.07.8c0,.33-.06.65-.09,1s0,.52-.07.78-.06.66-.09,1,0,.53-.07.79-.06.66-.09,1,0,.53-.07.79-.06.66-.09,1,0,.53-.07.79-.06.66-.09,1,0,.53-.07.79-.06.66-.09,1c0,.06,0,.12,0,.17s-.06.12-.13.14l-.58.16-4,1.12-1.43.4a1.64,1.64,0,0,1-.28,0H8.73a5.22,5.22,0,0,1-.85-.21l-2.72-.75-2.75-.76c-.1,0-.12-.06-.13-.17,0-.39-.07-.79-.11-1.18s-.06-.66-.09-1-.06-.65-.09-1l-.07-.79c0-.33-.06-.66-.09-1s0-.53-.07-.79-.06-.66-.09-1,0-.52-.07-.78-.06-.67-.09-1,0-.52-.07-.78-.06-.66-.09-1,0-.54-.07-.81,0-.51-.07-.76l-.07-.8c0-.27,0-.55-.07-.82L1,247.38c0-.33-.06-.66-.09-1s0-.41,0-.61A.62.62,0,0,0,.88,245.61Z"/><path class="cls-37" d="M.91,245.78l0-.08v-.1A.28.28,0,0,1,.91,245.78Z"/><path class="cls-38" d="M16.7,245.54h0v.06s0,0,0,0Z"/><path class="cls-39" d="M16.7,245.61h0v0h0Z"/><path class="cls-40" d="M8.75,263.5v0l0,0Z"/><path class="cls-41" d="M8.84,263.48v0h0S8.83,263.48,8.84,263.48Z"/><path class="cls-42" d="M3.84,248.85a.21.21,0,0,1,.12,0H8.75a0,0,0,0,0,.05,0s0-.05,0-.08q0-.85,0-1.71c0-.12,0-.12.12-.12h6.23c.1,0,.13,0,.11.11s0,.46-.06.68,0,.41-.05.62,0,.4-.06.61,0,.29,0,.44,0,.29,0,.43,0,.15,0,.23,0,.45-.06.68,0,.29,0,.44,0,.29,0,.43,0,.28,0,.43l0,.46c0,.08,0,.15,0,.23s0,.45-.06.68,0,.29,0,.44,0,.29,0,.43,0,.28,0,.42l0,.46c0,.08,0,.15,0,.23s0,.45-.06.68,0,.29,0,.44,0,.29,0,.43,0,.15,0,.23,0,.33,0,.5,0,.29,0,.44,0,.29,0,.43,0,.15,0,.23,0,.45-.06.68,0,.29,0,.44,0,.29,0,.43,0,.17,0,.25,0,0,0,0,0,.13-.13.16L12.8,261l-1.19.33-1.11.31-1.56.43c-.13,0-.14,0-.14-.1q0-1,0-1.92h0a.18.18,0,0,1,.11-.06l2.5-.69,1.3-.36c.09,0,.11,0,.12-.14,0-.42.07-.84.11-1.26l.12-1.32c0-.38.07-.77.1-1.15l.12-1.34.1-1.15.12-1.32c0-.39.07-.78.1-1.17s.07-.72.09-1.08c0-.11,0-.13-.12-.13H4C4,248.89,3.89,248.91,3.84,248.85Z"/><path class="cls-43" d="M8.8,260.07l-3.7-1L4.8,259a.08.08,0,0,1-.07-.08q-.06-.66-.11-1.32l-.12-1.32c0-.12,0-.24,0-.35s0-.06,0-.05H6.4s0,0,.05.05,0,.36,0,.54.06.63.08.94c0,.06,0,.06.08.07l1.18.32.85.23h.06s.05,0,.07,0a.26.26,0,0,1,0,.1q0,.9,0,1.79c0,.05,0,.11,0,.15Z"/><path class="cls-43" d="M3.84,248.85h5s0,.09,0,.14c0,.4,0,.8,0,1.19,0,.14,0,.28,0,.43s0,.16.16.16h2.49s.09,0,.1.06-.08,0-.12,0H9c-.05,0-.11,0-.16,0H4.12c-.1,0-.1,0-.11-.1,0-.26,0-.52-.07-.78l-.09-1S3.84,248.89,3.84,248.85Z"/><path class="cls-43" d="M8.8,254.84H4.44c-.07,0-.07,0-.07-.07l-.12-1.36,0-.52a0,0,0,0,1,0,0,.23.23,0,0,1,.09,0H8.68c.85-.07,1.71,0,2.56,0,.06,0,.12,0,.17,0s0,.05-.06.06H9c-.18,0-.2,0-.2.2q0,.78,0,1.56a.32.32,0,0,1,0,.15Z"/><path class="cls-42" d="M8.81,258s0,0-.05,0a.06.06,0,0,0,0-.06v-.08q0-1.5,0-3h0a.11.11,0,0,1,.09,0h2.24c.13,0,.15,0,.13.15l-.1,1.17-.11,1.24a.1.1,0,0,1-.08.1l-.89.24L9,258C8.93,258,8.87,258,8.81,258Z"/><path class="cls-42" d="M11.41,252.86H4.21a.25.25,0,0,1,.12,0H8.74a.05.05,0,0,0,.06-.06v-.08q0-.88,0-1.77s0-.07,0-.1h2.78s0,.07,0,.1c0,.31-.06.62-.08.94s-.05.54-.07.81C11.46,252.74,11.47,252.81,11.41,252.86Z"/><path class="cls-44" d="M11.41,252.86l.15-1.68c0-.12,0-.23,0-.35a.18.18,0,0,0-.12,0H8.95c-.16,0-.15,0-.15-.15v-1.81h4.86c.11,0,.1,0,.09.1q-.07.8-.14,1.6L13.48,252l-.14,1.58-.15,1.68-.12,1.33L13,257.89l-.08,1c0,.09,0,.09-.09.11l-3.11.86-.82.23h0q0-1,0-2a.23.23,0,0,1,0-.09l.57-.16,1.55-.42c.08,0,.08,0,.08-.1l.11-1.19.09-1c0-.09,0-.19,0-.28s0-.05,0-.05H8.8q0-.93,0-1.87c0-.09,0-.09.1-.09h2.39A.17.17,0,0,0,11.41,252.86Z"/><path d="M.15,651.18q0-.59,1.34-1.36a5,5,0,0,0,2-2,40.25,40.25,0,0,0,1.78-4.32q1.15-3.13,3.13-7.89t3.14-8.54q1.16-3.79,1.58-4.79,1-2.3,2.72-2.3h.66a2,2,0,0,1,1.1.49,11.2,11.2,0,0,1,2.79,4.31q.49,1.13,1.48,3.86t3.94,10.68q3,7.95,3.3,8.65a4.36,4.36,0,0,0,2,2q1.41.74,1.41,1.18,0,1-1.17,1.22a28.18,28.18,0,0,1-4,.16l-1.36,0q-4.34,0-4.34-1.17a2.92,2.92,0,0,1,.55-1,3.47,3.47,0,0,0,.55-2,10.66,10.66,0,0,0-.88-3.49A8.51,8.51,0,0,0,20.32,642q-.6-.54-5.1-.54T10,642a6,6,0,0,0-1.62,2.65,10,10,0,0,0-.87,3.5,3.68,3.68,0,0,0,.83,2.38,12.58,12.58,0,0,1,.83,1.08q0,.84-2.87.84a35.14,35.14,0,0,1-4.5-.22Q.15,652,.15,651.18ZM19.7,638.69v-.14q0-2.2-3.77-11-.66-1.52-.68-1.52l-.68,1.57q-3.89,9.07-3.89,11,0,.33.41.35l.62,0,1.83,0H15.2l.16,0Q19.7,639,19.7,638.69Z"/><path d="M45.55,652.9H45q-1.1,0-2.18-2-.54-1-3.3-8.09t-3.37-8.14a5.75,5.75,0,0,0-1.9-1.95q-1.29-.86-1.29-1.3,0-.73,1-.94a31.18,31.18,0,0,1,4.71-.21q3.68,0,3.68,1.05a5.93,5.93,0,0,1-.26.76,4.29,4.29,0,0,0-.26,1.51q0,3.21,3.66,11.67.68,1.55,1,1.55t.91-1.41q3.77-8.34,3.77-11.58a3,3,0,0,0-.61-1.69q-.61-.89-.61-.91,0-1,4.36-1h.56q2.86,0,2.86,1t-1.24,1.65a5.59,5.59,0,0,0-1.9,2q-.3.54-3.12,7.51t-3.8,8.77Q46.7,652.9,45.55,652.9Z"/><path d="M65,643.57a5.77,5.77,0,0,0,2,4.48,7.37,7.37,0,0,0,5.11,1.8,6.7,6.7,0,0,0,2.26-.36q1-.36,2.23-.88a5.85,5.85,0,0,1,1.51-.52q.94,0,.94,1,0,1.36-3.47,2.91a11.67,11.67,0,0,1-4.83,1H70.3A10.39,10.39,0,0,1,63,650.34a9.69,9.69,0,0,1-2.44-3.71,13.47,13.47,0,0,1-.87-4.86l0-.54v-.54a10.26,10.26,0,0,1,1-4.43,12.51,12.51,0,0,1,2.51-3.59,10.24,10.24,0,0,1,7.29-3q6.38,0,8.48,5a7.54,7.54,0,0,1,.66,2.88V638a2.12,2.12,0,0,1-1.34,2.17,26.36,26.36,0,0,1-6.3.9q-5,.35-5.39.47A1.9,1.9,0,0,0,65,643.57Zm9.75-6.21v-.73a4.59,4.59,0,0,0-1.24-3.13,3.92,3.92,0,0,0-3-1.39h-.45l-.45,0A4,4,0,0,0,66.51,634,6.39,6.39,0,0,0,65,638v.3q0,.75.89.75l.38.07.54,0H67l.16,0,4.52-.26.84-.09Q74.8,638.81,74.8,637.36Z"/><path d="M95.68,651.68q0,.91-4.24.91H89l-1,0-1.48,0q-2.48,0-2.48-.89,0-.63,1.11-1.35a3.52,3.52,0,0,0,1.5-1.85,31.57,31.57,0,0,0,.39-6.71,34.62,34.62,0,0,0-.36-6.77,3,3,0,0,0-1.14-1.71q-1.38-.91-1.38-1.34a.92.92,0,0,1,.49-.75q1.45-1,4.92-1H90a1.94,1.94,0,0,1,1.9,1.35q.56,1.35.91,1.35A2.65,2.65,0,0,0,94,632.2a15.8,15.8,0,0,1,2.06-1.31,5.53,5.53,0,0,1,2.68-.66A3.12,3.12,0,0,1,101,631a2.61,2.61,0,0,1,.79,2,2.56,2.56,0,0,1-.63,1.83,1.84,1.84,0,0,1-1.31.61,4.46,4.46,0,0,1-1.85-.57,4.52,4.52,0,0,0-1.92-.57,3,3,0,0,0-1.69.64,4.91,4.91,0,0,0-1.56,2.3,17.26,17.26,0,0,0-.64,5.65q0,4,.56,5.16a6.29,6.29,0,0,0,1.75,2.12Q95.68,651.07,95.68,651.68Z"/><path d="M106.09,633q-1.22-.59-1.22-1.1a.93.93,0,0,1,.49-.82,10.86,10.86,0,0,1,5.41-1h.68a1.26,1.26,0,0,1,1.43,1.17q.09.63.09,8.52t.33,9a2.83,2.83,0,0,0,1.57,1.78q1.24.62,1.24,1.25,0,.89-5.81.89l-.7,0h-2.86q-1.71,0-1.71-.84t1-1.36a3.81,3.81,0,0,0,1.44-1.45A11.14,11.14,0,0,0,108,645l0-.75v-.73l0-1.1v-.73l0-.73q0-5.55-.36-6.48A3,3,0,0,0,106.09,633Zm7.45-10.45a2.66,2.66,0,0,1-.88,1.91,2.52,2.52,0,0,1-1.75.88,1.32,1.32,0,0,1-.3,0l-.52,0a3.18,3.18,0,0,1-2.1-.77,2.48,2.48,0,0,1-.93-2v-.42a2.6,2.6,0,0,1,1-2.05,3.34,3.34,0,0,1,2.24-.83h.12l.8.09a2.22,2.22,0,0,1,1.51.79,2.27,2.27,0,0,1,.79,1.58l0,.21Z"/><path d="M120.85,634.17q0-1.73,2.75-3.11a12.66,12.66,0,0,1,5.71-1.37h.19a12.28,12.28,0,0,1,4.5.68q3.42,1.36,3.91,5.77,0,.45,0,5.89a36,36,0,0,0,.29,6.39,2.26,2.26,0,0,0,1.59,1.38q1.3.45,1.3.84a1.4,1.4,0,0,1-.84,1.29,7.07,7.07,0,0,1-3.32.89,3.43,3.43,0,0,1-2.43-.75,13,13,0,0,0-1.52-1.34q-.09,0-2.65,1.18a10.93,10.93,0,0,1-4.48,1.18,6.22,6.22,0,0,1-4.52-1.59,5.19,5.19,0,0,1-1.64-3.87v-.59a5.57,5.57,0,0,1,2.11-4.29q2.11-1.85,7.59-2.88a8.92,8.92,0,0,0,2.51-.7,3,3,0,0,0,1-2.67,4.19,4.19,0,0,0-1.08-3.09,3.9,3.9,0,0,0-2.88-1.08,4.61,4.61,0,0,0-3.48,2.1q-1.68,2.1-3.06,2.1Q120.85,636.54,120.85,634.17Zm11.39,7.57h-.4a9,9,0,0,0-5.12,1.37,4,4,0,0,0-2.05,3.41V647a3.4,3.4,0,0,0,.74,2.14,2.31,2.31,0,0,0,1.91.95l.28,0h.7a4.82,4.82,0,0,0,4-2q.68-.87.68-3.56v-.42l0-.56V643Q133,641.74,132.24,641.74Z"/><path d="M168.3,622.22a6,6,0,0,0-3.93,1.25,4.3,4.3,0,0,0-1.52,3.52,5,5,0,0,0,2.27,4,29.38,29.38,0,0,0,5.55,2.86,21.55,21.55,0,0,1,5.84,3.33q3.14,2.91,3.14,6v.84a7.69,7.69,0,0,1-3.09,6.33,11,11,0,0,1-3.56,1.79,14.2,14.2,0,0,1-4.27.67h-.87a22.68,22.68,0,0,1-8.46-1.45q-1.64-.66-1.64-3.59V647q0-3.47,1.2-3.47.82,0,2.23,2.23a10.21,10.21,0,0,0,3.25,3.35,8.35,8.35,0,0,0,4.44,1.13,6.21,6.21,0,0,0,4.2-1.37,4.29,4.29,0,0,0,1.59-3.39,5.63,5.63,0,0,0-2.58-4.66,43.61,43.61,0,0,0-5.53-2.85,21.18,21.18,0,0,1-6.14-3.83,8.27,8.27,0,0,1-2.34-6,7.61,7.61,0,0,1,2.51-5.84,9.57,9.57,0,0,1,3.45-2,12.8,12.8,0,0,1,4.22-.71h.87a14.94,14.94,0,0,1,2.53.3l.82.16,1.57.3.73,0,.7,0a5,5,0,0,1,1.38.23q1.38.56,1.38,3.91T176.92,628q-.66,0-2-1.87a10.12,10.12,0,0,0-2.32-2.55A7.49,7.49,0,0,0,168.3,622.22Z"/><path d="M189,643.57a5.77,5.77,0,0,0,2,4.48,7.37,7.37,0,0,0,5.11,1.8,6.7,6.7,0,0,0,2.26-.36q1-.36,2.23-.88a5.85,5.85,0,0,1,1.51-.52q.94,0,.94,1,0,1.36-3.47,2.91a11.67,11.67,0,0,1-4.83,1h-.52a10.39,10.39,0,0,1-7.31-2.67,9.69,9.69,0,0,1-2.44-3.71,13.47,13.47,0,0,1-.87-4.86l0-.54v-.54a10.26,10.26,0,0,1,1-4.43,12.51,12.51,0,0,1,2.51-3.59,10.24,10.24,0,0,1,7.29-3q6.38,0,8.48,5a7.54,7.54,0,0,1,.66,2.88V638a2.12,2.12,0,0,1-1.34,2.17,26.36,26.36,0,0,1-6.3.9q-5,.35-5.39.47A1.9,1.9,0,0,0,189,643.57Zm9.75-6.21v-.73a4.59,4.59,0,0,0-1.24-3.13,3.92,3.92,0,0,0-3-1.39H194l-.45,0a4,4,0,0,0-3.11,1.88,6.39,6.39,0,0,0-1.46,4v.3q0,.75.89.75l.38.07.54,0h.14l.16,0,4.52-.26.84-.09Q198.74,638.81,198.74,637.36Z"/><path d="M219.62,651.68q0,.91-4.24.91h-2.48l-1,0-1.48,0q-2.48,0-2.48-.89,0-.63,1.11-1.35a3.52,3.52,0,0,0,1.5-1.85,31.57,31.57,0,0,0,.39-6.71,34.62,34.62,0,0,0-.36-6.77,3,3,0,0,0-1.14-1.71q-1.38-.91-1.38-1.34a.92.92,0,0,1,.49-.75q1.45-1,4.92-1h.45a1.94,1.94,0,0,1,1.9,1.35q.56,1.35.91,1.35a2.65,2.65,0,0,0,1.21-.66,15.8,15.8,0,0,1,2.06-1.31,5.53,5.53,0,0,1,2.68-.66A3.12,3.12,0,0,1,225,631a2.61,2.61,0,0,1,.79,2,2.56,2.56,0,0,1-.63,1.83,1.84,1.84,0,0,1-1.31.61,4.46,4.46,0,0,1-1.85-.57,4.52,4.52,0,0,0-1.92-.57,3,3,0,0,0-1.69.64,4.91,4.91,0,0,0-1.56,2.3,17.26,17.26,0,0,0-.64,5.65q0,4,.56,5.16a6.29,6.29,0,0,0,1.75,2.12Q219.62,651.07,219.62,651.68Z"/><path d="M230,633q-1.22-.59-1.22-1.1a.93.93,0,0,1,.49-.82,10.86,10.86,0,0,1,5.41-1h.68a1.26,1.26,0,0,1,1.43,1.17q.09.63.09,8.52t.33,9a2.83,2.83,0,0,0,1.57,1.78q1.24.62,1.24,1.25,0,.89-5.81.89l-.7,0h-2.86q-1.71,0-1.71-.84t1-1.36a3.81,3.81,0,0,0,1.44-1.45,11.14,11.14,0,0,0,.45-4.05l0-.75v-.73l0-1.1v-.73l0-.73q0-5.55-.36-6.48A3,3,0,0,0,230,633Zm7.45-10.45a2.66,2.66,0,0,1-.88,1.91,2.52,2.52,0,0,1-1.75.88,1.32,1.32,0,0,1-.3,0l-.52,0a3.18,3.18,0,0,1-2.1-.77,2.48,2.48,0,0,1-.93-2v-.42a2.6,2.6,0,0,1,1-2.05,3.34,3.34,0,0,1,2.24-.83h.12l.8.09a2.22,2.22,0,0,1,1.51.79,2.27,2.27,0,0,1,.79,1.58l0,.21Z"/><path d="M252.2,653.13h-1.29q-6.87,0-6.87-1.05,0-.61,1.16-1.34a3.39,3.39,0,0,0,1.52-2,39.43,39.43,0,0,0,.36-7.23q0-6-.34-6.77a3.3,3.3,0,0,0-1.25-1.44q-.91-.62-.91-1.12a4,4,0,0,1,1-1.8,7.68,7.68,0,0,0,1.46-3.13,14.82,14.82,0,0,1,3-6.61,8.7,8.7,0,0,1,6.77-2.65,6.67,6.67,0,0,1,3.38.74,2.18,2.18,0,0,1,1.27,1.91,2.23,2.23,0,0,1-.62,1.73,1.93,1.93,0,0,1-1.31.56,5.7,5.7,0,0,1-2.25-.84,5.66,5.66,0,0,0-2.36-.84q-1.29,0-2,1.61a8.82,8.82,0,0,0-.69,3.53,4.14,4.14,0,0,0,.8,2.81,10.92,10.92,0,0,0,2.09,1.23q1.8.93,1.8,1.63,0,.54-1.85,1.09a4.37,4.37,0,0,0-2.3,1.21q-.75,1.1-.75,7.11t.43,7.23a4.52,4.52,0,0,0,1.7,2.13q1.27.91,1.27,1.41Q255.45,653.13,252.2,653.13Z"/><path d="M289.13,652.64h-.7l-.7,0h-3.49q-8.32,0-9-.12-1.22-.21-1.22-1,0-.35,1.28-1.24a4.13,4.13,0,0,0,1.66-2.57q.39-1.68.39-12.32t-.27-11.57a2.2,2.2,0,0,0-1.37-1.39q-1.73-.75-1.73-1.59t2.63-.84H278l.68,0,2.11,0q5.67,0,5.67.84,0,.28-1.66,1.9a5.82,5.82,0,0,0-1.35,3.13,94.64,94.64,0,0,0-.41,11.8q0,9.59.29,10.48a2,2,0,0,0,1.37,1.24,10.1,10.1,0,0,0,2.58.21,13.88,13.88,0,0,0,6.21-1.08A8,8,0,0,0,296,646q1.36-1.9,2.12-1.9t.76,1v.61q0,5.16-1.27,6.3Q297,652.64,289.13,652.64Z"/><path d="M303.27,633q-1.22-.59-1.22-1.1a.93.93,0,0,1,.49-.82,10.86,10.86,0,0,1,5.41-1h.68a1.26,1.26,0,0,1,1.43,1.17q.09.63.09,8.52t.33,9a2.83,2.83,0,0,0,1.57,1.78q1.24.62,1.24,1.25,0,.89-5.81.89l-.7,0h-2.86q-1.71,0-1.71-.84t1-1.36A3.81,3.81,0,0,0,304.7,649a11.14,11.14,0,0,0,.45-4.05l0-.75v-.73l0-1.1v-.73l0-.73q0-5.55-.36-6.48A3,3,0,0,0,303.27,633Zm7.45-10.45a2.66,2.66,0,0,1-.88,1.91,2.52,2.52,0,0,1-1.75.88,1.32,1.32,0,0,1-.3,0l-.52,0a3.18,3.18,0,0,1-2.1-.77,2.48,2.48,0,0,1-.93-2v-.42a2.6,2.6,0,0,1,1-2.05,3.34,3.34,0,0,1,2.24-.83h.12l.8.09a2.22,2.22,0,0,1,1.51.79,2.27,2.27,0,0,1,.79,1.58l0,.21Z"/><path d="M318.59,649.8q0-.26.27-2.37a41.15,41.15,0,0,0,.27-5.11v-6.75l0-1.15v-4.69l0-1.15v-1.15l0-.56q0-.59,0-1.95,0-2.79-1.49-3.49t-1.49-1.36q0-.49.68-.82a12.42,12.42,0,0,1,5.18-.82,1.79,1.79,0,0,1,1.8,1.59,44.09,44.09,0,0,1,.23,6.35q0,5.44.87,5.44a8.93,8.93,0,0,0,2.39-.75,10.2,10.2,0,0,1,3.87-.75,8.1,8.1,0,0,1,6.41,3,11.4,11.4,0,0,1,2.54,7.71v.61a12.42,12.42,0,0,1-.82,4.45,10.15,10.15,0,0,1-5.46,5.93,10.37,10.37,0,0,1-4.24.91H329a13.43,13.43,0,0,1-2.79-.45,16.08,16.08,0,0,0-3.73-.45l-1.92.16Q318.59,652.17,318.59,649.8Zm10.92-17.18h-.68a4.75,4.75,0,0,0-2.43.69,5.27,5.27,0,0,0-1.83,1.7q-.64,1-.64,5.77v3.73q0,3.47,1.05,4.79a4.39,4.39,0,0,0,3.63,1.32h.49a4.6,4.6,0,0,0,4-2.36,9.64,9.64,0,0,0,1.52-5.36l0-.54v-1.66a10.41,10.41,0,0,0-1.5-5.77A4.34,4.34,0,0,0,329.52,632.62Z"/><path d="M356.09,651.68q0,.91-4.24.91h-2.48l-1,0-1.48,0q-2.48,0-2.48-.89,0-.63,1.11-1.35a3.52,3.52,0,0,0,1.5-1.85,31.57,31.57,0,0,0,.39-6.71,34.62,34.62,0,0,0-.36-6.77,3,3,0,0,0-1.14-1.71q-1.38-.91-1.38-1.34a.92.92,0,0,1,.49-.75q1.45-1,4.92-1h.45a1.94,1.94,0,0,1,1.9,1.35q.56,1.35.91,1.35a2.65,2.65,0,0,0,1.21-.66,15.8,15.8,0,0,1,2.06-1.31,5.53,5.53,0,0,1,2.68-.66,3.12,3.12,0,0,1,2.26.76,2.61,2.61,0,0,1,.79,2,2.56,2.56,0,0,1-.63,1.83,1.84,1.84,0,0,1-1.31.61,4.46,4.46,0,0,1-1.85-.57,4.52,4.52,0,0,0-1.92-.57,3,3,0,0,0-1.69.64,4.91,4.91,0,0,0-1.56,2.3,17.26,17.26,0,0,0-.64,5.65q0,4,.56,5.16a6.29,6.29,0,0,0,1.75,2.12Q356.09,651.07,356.09,651.68Z"/><path d="M370.06,643.57a5.77,5.77,0,0,0,2,4.48,7.37,7.37,0,0,0,5.11,1.8,6.7,6.7,0,0,0,2.26-.36q1-.36,2.23-.88a5.85,5.85,0,0,1,1.51-.52q.94,0,.94,1,0,1.36-3.47,2.91a11.67,11.67,0,0,1-4.83,1h-.52a10.39,10.39,0,0,1-7.31-2.67,9.69,9.69,0,0,1-2.44-3.71,13.47,13.47,0,0,1-.87-4.86l0-.54v-.54a10.26,10.26,0,0,1,1-4.43,12.51,12.51,0,0,1,2.51-3.59,10.24,10.24,0,0,1,7.29-3q6.38,0,8.48,5a7.54,7.54,0,0,1,.66,2.88V638a2.12,2.12,0,0,1-1.34,2.17,26.36,26.36,0,0,1-6.3.9q-5,.35-5.39.47A1.9,1.9,0,0,0,370.06,643.57Zm9.75-6.21v-.73a4.59,4.59,0,0,0-1.24-3.13,3.92,3.92,0,0,0-3-1.39h-.45l-.45,0a4,4,0,0,0-3.11,1.88,6.39,6.39,0,0,0-1.46,4v.3q0,.75.89.75l.38.07.54,0H372l.16,0,4.52-.26.84-.09Q379.81,638.81,379.81,637.36Z"/><path d="M414.38,620q8.51,0,10.95,5.2a8.31,8.31,0,0,1,.66,3.52,8.71,8.71,0,0,1-3.54,6.87q-2,1.64-2,2.74a30.17,30.17,0,0,0,2.32,4.25,53.48,53.48,0,0,0,3.39,5.26,6.43,6.43,0,0,0,2.66,2q1.59.64,1.59,1.21,0,1.66-3.63,1.66a5.44,5.44,0,0,1-4-1.29,35.52,35.52,0,0,1-3.66-5.79q-2.74-4.9-3.09-5.34a4.52,4.52,0,0,0-3.77-1.57,1.47,1.47,0,0,0-1.48,1,14.43,14.43,0,0,0-.4,4.35,14,14,0,0,0,.46,4.48,7,7,0,0,0,1.39,2.1,4.5,4.5,0,0,1,.94,1.16q0,.8-3,.8l-.8,0-.77,0q-.52,0-1.59,0-5.51,0-5.51-.94a1.54,1.54,0,0,1,.77-1.41,10.73,10.73,0,0,0,2.11-1.48q.54-1,.54-5.41l0-1.64,0-1.64v-1.64l0-2.44q0-9.54-.46-11.16a3.78,3.78,0,0,0-1.64-2.33q-1.18-.71-1.18-1.25,0-.94,3.75-.94l.8,0,1.62,0,4.83-.14Zm-4.22,5.81v7.85q0,1.71.39,2.05a2.71,2.71,0,0,0,1.65.34h1a7.68,7.68,0,0,0,5.39-1.75,5.93,5.93,0,0,0,1.9-4.58v-1a5.92,5.92,0,0,0-1.86-4.61,6.94,6.94,0,0,0-4.86-1.7h-1.45q-1.48,0-1.82.48A6.76,6.76,0,0,0,410.17,625.78Z"/><path d="M438.48,643.57a5.77,5.77,0,0,0,2,4.48,7.37,7.37,0,0,0,5.11,1.8,6.7,6.7,0,0,0,2.26-.36q1-.36,2.23-.88a5.85,5.85,0,0,1,1.51-.52q.94,0,.94,1,0,1.36-3.47,2.91a11.67,11.67,0,0,1-4.83,1h-.52a10.39,10.39,0,0,1-7.31-2.67,9.69,9.69,0,0,1-2.44-3.71,13.47,13.47,0,0,1-.87-4.86l0-.54v-.54a10.26,10.26,0,0,1,1-4.43,12.51,12.51,0,0,1,2.51-3.59,10.24,10.24,0,0,1,7.29-3q6.38,0,8.48,5a7.54,7.54,0,0,1,.66,2.88V638a2.12,2.12,0,0,1-1.34,2.17,26.36,26.36,0,0,1-6.3.9q-5,.35-5.39.47A1.9,1.9,0,0,0,438.48,643.57Zm9.75-6.21v-.73A4.59,4.59,0,0,0,447,633.5a3.92,3.92,0,0,0-3-1.39h-.45l-.45,0a4,4,0,0,0-3.11,1.88,6.39,6.39,0,0,0-1.46,4v.3q0,.75.89.75l.38.07.54,0h.14l.16,0,4.52-.26.84-.09Q448.23,638.81,448.23,637.36Z"/><path d="M479.49,630.93q0,1.34-1.69,1.7T476.12,634l.07.49.09.56.12.61a15.47,15.47,0,0,1,.12,2.18,6.18,6.18,0,0,1-.8,2.91q-2.23,4.15-8.58,4.55a11.94,11.94,0,0,0-2.6.35,1.63,1.63,0,0,0-1.22,1.57q0,1.1,1.8,1.55.26.07,4.66.45a18.31,18.31,0,0,1,5.88,1.1q3.12,1.55,3.12,4.48a7.35,7.35,0,0,1-3.43,6.26,15.31,15.31,0,0,1-9,2.41,12.89,12.89,0,0,1-6.52-1.5,5.7,5.7,0,0,1-1.93-1.77,4,4,0,0,1-.74-2.26,5,5,0,0,1,1.24-3.47,20.39,20.39,0,0,0,2-2.34,5.88,5.88,0,0,0-.87-1.24,3.67,3.67,0,0,1-.87-2.3,4.23,4.23,0,0,1,1.14-2.59,7.87,7.87,0,0,0,1.14-1.56,18.69,18.69,0,0,0-1.41-2.4,8,8,0,0,1-1.41-4.25,7.29,7.29,0,0,1,.87-3.59q2.46-4.48,9.16-4.48h.68l3.26.21,1.2,0,1.24,0,2.48-.16Q479.49,629.86,479.49,630.93ZM465.08,652a3.8,3.8,0,0,0-2.79,1.15,3.91,3.91,0,0,0-1.15,2.88v.19a3.68,3.68,0,0,0,1.57,3.14,7.13,7.13,0,0,0,4.29,1.15h.61a8.55,8.55,0,0,0,5.27-1.5,4.34,4.34,0,0,0,2-3.52l0-.19a2.53,2.53,0,0,0-1.1-2.14,4.28,4.28,0,0,0-2.6-.81,12.38,12.38,0,0,0-1.36-.12l-.8-.07h-.4l-1.41-.09-1-.07Zm2.09-20.84h-.61a3.23,3.23,0,0,0-2.41,1.43A5.09,5.09,0,0,0,463,636l0,.38,0,.59v.61l0,.19a6.71,6.71,0,0,0,1.05,3.94,3.59,3.59,0,0,0,3.14,1.5h.16a3.6,3.6,0,0,0,2.77-1.27,4.8,4.8,0,0,0,1.15-3.35v-.91a7.69,7.69,0,0,1-.07-.91,6.26,6.26,0,0,0-1.23-3.87A3.45,3.45,0,0,0,467.17,631.19Z"/><path d="M506.7,650q1,.81,1,1.15a.86.86,0,0,1-.35.64q-1,.91-4.31.91a3.23,3.23,0,0,1-1.68-.36,3,3,0,0,1-1.05-1.32q-.46-1-.76-1a4.24,4.24,0,0,0-1.36.77,9.75,9.75,0,0,1-5.65,2.13h-.77a5.88,5.88,0,0,1-5.6-3.28q-.89-1.71-.9-8.38a59,59,0,0,0-.22-7.34q-.21-.67-1.49-1.27t-1.28-.93a1.08,1.08,0,0,1,.82-1.12,15.57,15.57,0,0,1,4.66-.59,2,2,0,0,1,2.09,1.34q.59,1.71.59,8.17t.56,7.84a3.49,3.49,0,0,0,3.49,2.37,5.6,5.6,0,0,0,2.61-.68,5.18,5.18,0,0,0,2-1.83q.73-1.15.73-6.32a36,36,0,0,0-.34-6.5,4.77,4.77,0,0,0-1-2.1,2.13,2.13,0,0,1-.7-1.21q0-1,5.51-1a1.75,1.75,0,0,1,1.5.5,3.43,3.43,0,0,1,.35,1.84l-.07,1.38L505,640.1a47,47,0,0,0,.35,7.61A4,4,0,0,0,506.7,650Z"/><path d="M511.46,651.77q0-.49,1.07-1.27a3.93,3.93,0,0,0,1.44-2.43q.38-1.65.38-12.55t-.25-12.35a2.94,2.94,0,0,0-1.21-2.09q-1.55-1-1.55-1.24v-.28q0-.4.68-.7a14.37,14.37,0,0,1,5.63-.91h.47q1.2,0,1.38,1.62,0,.21,0,3.54v5l0,1v1.48l0,1V639q0,6.94.22,8.59a3.85,3.85,0,0,0,1,2.4l1,.61q.89.54.89,1.1,0,.82-2.91.82l-1,0h-1l-3.84.07h-.49Q511.46,652.61,511.46,651.77Z"/><path d="M527.21,634.17q0-1.73,2.75-3.11a12.66,12.66,0,0,1,5.71-1.37h.19a12.28,12.28,0,0,1,4.5.68q3.42,1.36,3.91,5.77,0,.45,0,5.89a36,36,0,0,0,.29,6.39,2.26,2.26,0,0,0,1.59,1.38q1.3.45,1.3.84a1.4,1.4,0,0,1-.84,1.29,7.07,7.07,0,0,1-3.32.89,3.43,3.43,0,0,1-2.43-.75,13,13,0,0,0-1.52-1.34q-.09,0-2.65,1.18a10.93,10.93,0,0,1-4.48,1.18,6.22,6.22,0,0,1-4.52-1.59,5.19,5.19,0,0,1-1.64-3.87v-.59a5.57,5.57,0,0,1,2.11-4.29q2.11-1.85,7.59-2.88a8.92,8.92,0,0,0,2.51-.7,3,3,0,0,0,1-2.67,4.19,4.19,0,0,0-1.08-3.09,3.9,3.9,0,0,0-2.88-1.08,4.61,4.61,0,0,0-3.48,2.1q-1.68,2.1-3.06,2.1Q527.21,636.54,527.21,634.17Zm11.39,7.57h-.4a9,9,0,0,0-5.12,1.37,4,4,0,0,0-2.05,3.41V647a3.4,3.4,0,0,0,.74,2.14,2.31,2.31,0,0,0,1.91.95l.28,0h.7a4.82,4.82,0,0,0,4-2q.68-.87.68-3.56v-.42l0-.56V643Q539.35,641.74,538.6,641.74Z"/><path d="M563,651.68q0,.91-4.24.91h-2.48l-1,0-1.48,0q-2.48,0-2.48-.89,0-.63,1.11-1.35a3.52,3.52,0,0,0,1.5-1.85,31.57,31.57,0,0,0,.39-6.71,34.62,34.62,0,0,0-.36-6.77,3,3,0,0,0-1.14-1.71q-1.38-.91-1.38-1.34a.92.92,0,0,1,.49-.75q1.45-1,4.92-1h.45a1.94,1.94,0,0,1,1.9,1.35q.56,1.35.91,1.35a2.65,2.65,0,0,0,1.21-.66,15.8,15.8,0,0,1,2.06-1.31,5.53,5.53,0,0,1,2.68-.66,3.12,3.12,0,0,1,2.26.76,2.61,2.61,0,0,1,.79,2,2.56,2.56,0,0,1-.63,1.83,1.84,1.84,0,0,1-1.31.61,4.46,4.46,0,0,1-1.85-.57,4.52,4.52,0,0,0-1.92-.57,3,3,0,0,0-1.69.64,4.91,4.91,0,0,0-1.56,2.3,17.26,17.26,0,0,0-.64,5.65q0,4,.56,5.16a6.29,6.29,0,0,0,1.75,2.12Q563,651.07,563,651.68Z"/><path d="M16,550h.68q1.73,0,3.89,3.7a41.42,41.42,0,0,1,2.25,5.34q1.5,4.05,2.58,6.73t2.36,6.36q1.28,3.69,1.85,4.9a6.45,6.45,0,0,0,2.05,2.31q1.48,1.1,1.48,1.91t-1,1.07a47.69,47.69,0,0,1-8.13.4q-3,0-3-1.27a6.89,6.89,0,0,1,.47-1.61A6.22,6.22,0,0,0,22,578a8.23,8.23,0,0,0-1.38-4.85q-.56-.8-3.54-.8-5.46,0-6.18.35a3.94,3.94,0,0,0-1.45,1.78,5.83,5.83,0,0,0-.74,2.65,6.15,6.15,0,0,0,.67,2.63,5.63,5.63,0,0,1,.67,2.2q0,1-2.11,1a30.43,30.43,0,0,1-6.7-.47,1.41,1.41,0,0,1-1.08-1.52,14.49,14.49,0,0,1,2.13-2,7.31,7.31,0,0,0,1.88-2.7q5.06-12.07,6.43-17.5a32.35,32.35,0,0,1,2.33-7.05A3.32,3.32,0,0,1,16,550ZM11.4,568.43v.23q0,.28,2.18.28h2.7q3.21,0,3.21-.37,0-1-2-6.19t-2.05-5.18s-.72,1.73-2.05,5.19A32.93,32.93,0,0,0,11.4,568.43Z"/><path d="M50.47,561.1q0-1.1,5.3-1.1Q59,560,59,561.33q0,.89-1.38,2.14a9.15,9.15,0,0,0-2.09,2.66l-3,7.36a70.88,70.88,0,0,1-3.8,8.39A2.74,2.74,0,0,1,46.34,583a2.81,2.81,0,0,1-2.46-1.27,64.28,64.28,0,0,1-3.63-8.11q-2.77-6.84-3.4-8a8.49,8.49,0,0,0-2.1-2.43q-1.46-1.23-1.46-1.84v-.45q0-.89,6.23-.89l1.15,0a8.91,8.91,0,0,1,3,.3,1,1,0,0,1,.61,1,2.58,2.58,0,0,1-.35,1.29,2.88,2.88,0,0,0-.35,1.44q0,3,3.12,10,.66,1.45.91,1.45t.89-1.5q2.91-6.89,2.91-9.52a4,4,0,0,0-.49-1.71A3.85,3.85,0,0,1,50.47,561.1Z"/><path d="M67.74,573.75a5,5,0,0,0,2.2,4.05,6.55,6.55,0,0,0,4.17,1.29,13.52,13.52,0,0,0,3.41-.66,18.27,18.27,0,0,1,2.61-.66q1.05,0,1.05,1.15,0,1.36-2.8,2.75a12.86,12.86,0,0,1-5.8,1.39H71.45a10.53,10.53,0,0,1-3.87-.77A9.54,9.54,0,0,1,62,577.06a12.26,12.26,0,0,1-1.12-4.9v-1.08a13,13,0,0,1,.82-4.57,10.31,10.31,0,0,1,5.46-6,11.64,11.64,0,0,1,4.92-1.08h.54a9.27,9.27,0,0,1,6.45,2.37,8.47,8.47,0,0,1,2.12,3,9.38,9.38,0,0,1,.74,3.62,2.36,2.36,0,0,1-1.8,2.43q-2.53.82-9.37.82a4.43,4.43,0,0,0-2.44.46A1.83,1.83,0,0,0,67.74,573.75Zm4.57-11.16h-.68a3.81,3.81,0,0,0-2.82,1.54,5.37,5.37,0,0,0-1.35,3.67v.38q0,.87,1,.87l.23,0h1.66l.12,0,3.91-.23a3,3,0,0,1,.47-.07q1.2,0,1.2-1.24v-.77a4.25,4.25,0,0,0-1.12-2.86A3.35,3.35,0,0,0,72.31,562.6Z"/><path d="M101.38,560.25a3.32,3.32,0,0,1,2.61.82,3,3,0,0,1,.69,2,3.53,3.53,0,0,1-.62,2.05,1.74,1.74,0,0,1-1.41.9,5.86,5.86,0,0,1-2.17-.61,5.84,5.84,0,0,0-2.13-.61,2.75,2.75,0,0,0-1.69.8,4.19,4.19,0,0,0-1.3,2.27,21.23,21.23,0,0,0-.36,4.63,11.54,11.54,0,0,0,.45,4.08A11.17,11.17,0,0,0,97.27,579a4.18,4.18,0,0,1,1.38,2.46q0,1.13-5.44,1.13h-2l-.49,0-1,0-.49,0-1,0q-2.46,0-2.46-1.05A3,3,0,0,1,87,579.29a4.74,4.74,0,0,0,1.5-1.95,33.87,33.87,0,0,0,.27-6,31.48,31.48,0,0,0-.32-6.09,3.16,3.16,0,0,0-1.52-1.72q-1.21-.71-1.21-1.49,0-1.08,1.62-1.52a17.11,17.11,0,0,1,4.41-.66,5.34,5.34,0,0,1,2.65.45,2.73,2.73,0,0,1,.64,1.2q.36,1,.86,1a2.46,2.46,0,0,0,.89-.42A8.71,8.71,0,0,1,101.38,560.25Z"/><path d="M114.67,582.68h-2.23a21.32,21.32,0,0,1-3.74-.18q-.62-.18-.62-1a3.2,3.2,0,0,1,1.17-2,5.27,5.27,0,0,0,1.48-2.36,64.61,64.61,0,0,0,0-12,2.72,2.72,0,0,0-1.61-1.54q-1.35-.64-1.35-1.55t1.24-1.32a19.55,19.55,0,0,1,6.21-.94h.35a1.38,1.38,0,0,1,1.57,1.15q.12.66.12,7.86a57.86,57.86,0,0,0,.32,8.44,6.23,6.23,0,0,0,1.63,2.61q1.31,1.38,1.31,1.73v.28Q120.57,582.68,114.67,582.68Zm-4.45-30.49a2.94,2.94,0,0,1,1.07-2.3,3.43,3.43,0,0,1,2.31-.94h.75a3.09,3.09,0,0,0,.59.07,2.58,2.58,0,0,1,2,1,3,3,0,0,1,.87,1.92v.61a2,2,0,0,0,0,.35,2.6,2.6,0,0,1-1.1,1.92,3.67,3.67,0,0,1-2.44.94h-.73a3.32,3.32,0,0,1-2.26-.83,2.49,2.49,0,0,1-.95-1.91l0-.23Z"/><path d="M146.66,580.43v.35q0,.8-1.76,1.49a11.38,11.38,0,0,1-4.17.69,3.2,3.2,0,0,1-2.55-1.34q-.59-.75-.91-.75a2.26,2.26,0,0,0-1.12.54,10,10,0,0,1-5.77,1.83l0,0a7.22,7.22,0,0,1-4.87-1.57,5.56,5.56,0,0,1-1.85-4.41q0-6.09,9.38-7.66a17.5,17.5,0,0,0,2.7-.54,2.41,2.41,0,0,0,1.36-2.51,3.78,3.78,0,0,0-.88-2.8,2.85,2.85,0,0,0-2.05-.86,4.23,4.23,0,0,0-3.35,2,4.33,4.33,0,0,1-3.49,2,2.3,2.3,0,0,1-1.77-.64,2,2,0,0,1-.6-1.32,3.68,3.68,0,0,1,2.16-3.28,15.27,15.27,0,0,1,7.59-2h1.22a9,9,0,0,1,3.86.86,6.24,6.24,0,0,1,2.85,2.61q1,1.76,1,7.85t.39,7a2.51,2.51,0,0,0,1.55,1.36Q146.66,579.75,146.66,580.43ZM137.14,573q0-1.05-.66-1.05h-.61a5,5,0,0,1-.89.12,5.33,5.33,0,0,0-3.59,1.24,3.65,3.65,0,0,0-1.45,2.81v.54a3,3,0,0,0,.75,2.06,2.33,2.33,0,0,0,1.83.87h.75a3.89,3.89,0,0,0,2.65-1,2.63,2.63,0,0,0,1.1-1.87,4.12,4.12,0,0,0,.09-.61l0-.37v-1l0-.37v-1A2,2,0,0,1,137.14,573Z"/><path d="M173.52,549.61q6.26,0,8.41,1.1,1.62.82,1.62,4.22t-1.15,3.4q-.94,0-3.07-2a19.41,19.41,0,0,0-3.23-2.59,5.91,5.91,0,0,0-2.87-.61,4.32,4.32,0,0,0-3,1.15,3.59,3.59,0,0,0-1.25,2.74,4.75,4.75,0,0,0,2.34,3.82,38.42,38.42,0,0,0,5.41,2.74,20.4,20.4,0,0,1,6,3.73,8.16,8.16,0,0,1,2.55,5.86q0,6.8-6.73,9.16a12.17,12.17,0,0,1-4.08.7h-.84a31.42,31.42,0,0,1-5.72-.59,12.73,12.73,0,0,1-4-1.15q-1.52-1.05-1.52-4.9v-.8q0-2.48,1.34-2.48.94,0,3,2.39a14.73,14.73,0,0,0,3.43,3.19,7.12,7.12,0,0,0,3.56.8,5.47,5.47,0,0,0,3.64-1.24,3.53,3.53,0,0,0,1.48-2.7,5,5,0,0,0-1.31-3.59,17.82,17.82,0,0,0-5.23-3.21,34.77,34.77,0,0,1-5.41-2.91q-4.12-3-4.12-7.31a9.67,9.67,0,0,1,.19-1.85q.77-4,5.18-6.09a10.51,10.51,0,0,1,4.5-1Z"/><path d="M195.62,573.75a5,5,0,0,0,2.2,4.05A6.55,6.55,0,0,0,202,579.1a13.52,13.52,0,0,0,3.41-.66,18.27,18.27,0,0,1,2.61-.66q1.05,0,1.05,1.15,0,1.36-2.8,2.75a12.86,12.86,0,0,1-5.8,1.39h-1.15a10.53,10.53,0,0,1-3.87-.77,9.54,9.54,0,0,1-5.53-5.25,12.26,12.26,0,0,1-1.12-4.9v-1.08a13,13,0,0,1,.82-4.57,10.31,10.31,0,0,1,5.46-6,11.64,11.64,0,0,1,4.92-1.08h.54a9.27,9.27,0,0,1,6.45,2.37,8.47,8.47,0,0,1,2.12,3,9.38,9.38,0,0,1,.74,3.62,2.36,2.36,0,0,1-1.8,2.43q-2.53.82-9.37.82a4.43,4.43,0,0,0-2.44.46A1.83,1.83,0,0,0,195.62,573.75Zm4.57-11.16h-.68a3.81,3.81,0,0,0-2.82,1.54,5.37,5.37,0,0,0-1.35,3.67v.38q0,.87,1,.87l.23,0h1.66l.12,0,3.91-.23a3,3,0,0,1,.47-.07q1.2,0,1.2-1.24v-.77a4.25,4.25,0,0,0-1.12-2.86A3.35,3.35,0,0,0,200.19,562.6Z"/><path d="M229.25,560.25a3.32,3.32,0,0,1,2.61.82,3,3,0,0,1,.69,2,3.53,3.53,0,0,1-.62,2.05,1.74,1.74,0,0,1-1.41.9,5.86,5.86,0,0,1-2.17-.61,5.84,5.84,0,0,0-2.13-.61,2.75,2.75,0,0,0-1.69.8,4.19,4.19,0,0,0-1.3,2.27,21.23,21.23,0,0,0-.36,4.63,11.54,11.54,0,0,0,.45,4.08,11.17,11.17,0,0,0,1.83,2.43,4.18,4.18,0,0,1,1.38,2.46q0,1.13-5.44,1.13h-2l-.49,0-1,0-.49,0-1,0q-2.46,0-2.46-1.05a3,3,0,0,1,1.23-2.13,4.74,4.74,0,0,0,1.5-1.95,33.87,33.87,0,0,0,.27-6,31.48,31.48,0,0,0-.32-6.09,3.16,3.16,0,0,0-1.52-1.72q-1.21-.71-1.21-1.49,0-1.08,1.62-1.52a17.11,17.11,0,0,1,4.41-.66,5.34,5.34,0,0,1,2.65.45,2.73,2.73,0,0,1,.64,1.2q.36,1,.86,1a2.46,2.46,0,0,0,.89-.42A8.71,8.71,0,0,1,229.25,560.25Z"/><path d="M242.54,582.68h-2.23a21.32,21.32,0,0,1-3.74-.18q-.62-.18-.62-1a3.2,3.2,0,0,1,1.17-2,5.27,5.27,0,0,0,1.48-2.36,64.61,64.61,0,0,0,0-12,2.72,2.72,0,0,0-1.61-1.54q-1.35-.64-1.35-1.55t1.24-1.32a19.55,19.55,0,0,1,6.21-.94h.35a1.38,1.38,0,0,1,1.57,1.15q.12.66.12,7.86a57.86,57.86,0,0,0,.32,8.44,6.23,6.23,0,0,0,1.63,2.61q1.31,1.38,1.31,1.73v.28Q248.45,582.68,242.54,582.68Zm-4.45-30.49a2.94,2.94,0,0,1,1.07-2.3,3.43,3.43,0,0,1,2.31-.94h.75a3.09,3.09,0,0,0,.59.07,2.58,2.58,0,0,1,2,1,3,3,0,0,1,.87,1.92v.61a2,2,0,0,0,0,.35,2.6,2.6,0,0,1-1.1,1.92,3.67,3.67,0,0,1-2.44.94h-.73a3.32,3.32,0,0,1-2.26-.83,2.49,2.49,0,0,1-.95-1.91l0-.23Z"/><path d="M264.83,547.83h.66a8.61,8.61,0,0,1,3.7.75,1.8,1.8,0,0,1,1.13,1.77,3.39,3.39,0,0,1-.62,2.09,2,2,0,0,1-1.66.83,8.1,8.1,0,0,1-2.45-.46,13.51,13.51,0,0,0-1.55-.46,2.1,2.1,0,0,0-1.77,1,4.74,4.74,0,0,0-.71,2.73,5,5,0,0,0,.54,2.58,17.93,17.93,0,0,0,2.37,1.5q1.59.94,1.59,2.09,0,.82-1.93,1.58t-2.19,1.35q-.56,1.31-.56,6,0,1.27,0,1.88l0,.61,0,1.22a8,8,0,0,0,.54,3.38,10.33,10.33,0,0,0,1.49,1.54,3.44,3.44,0,0,1,1.37,2.18q0,.9-1.27,1.16a19.4,19.4,0,0,1-3.63.26h-1.29a41.26,41.26,0,0,1-5.37-.28,1.05,1.05,0,0,1-1-1.15q0-.45,1-1.59a6.13,6.13,0,0,0,1.42-2.92A37.33,37.33,0,0,0,255,571a26.62,26.62,0,0,0-.33-5.71,3.36,3.36,0,0,0-1.36-1.64,1.91,1.91,0,0,1-1-1.48,7.61,7.61,0,0,1,1.09-1.93,9.07,9.07,0,0,0,1.37-2.94q1.45-6.52,6.3-8.67A9.32,9.32,0,0,1,264.83,547.83Z"/><path d="M296.38,551.44a6.78,6.78,0,0,1-1.44,1.93,7.11,7.11,0,0,0-1.71,2.75,101.17,101.17,0,0,0-.27,10.75q0,9.62.27,10.63a1.93,1.93,0,0,0,1.14,1.37,8.52,8.52,0,0,0,3,.36,8.31,8.31,0,0,0,3.69-.77,12.13,12.13,0,0,0,3.41-2.77q1.83-2,3.14-2,1,0,1,1.27v.61a15.51,15.51,0,0,1-.56,3.9,7.38,7.38,0,0,1-.89,2.45q-.73.68-3.52.68H291q-6.16,0-6.82-.12a1.2,1.2,0,0,1-1.12-1.27q0-.56,1.24-1.8a6.59,6.59,0,0,0,1.71-3.23q.19-.8.19-10.5t-.28-10.64a3.89,3.89,0,0,0-1.8-1.9,2.66,2.66,0,0,1-1.52-2.16q0-1,4.57-1h6.21a6.77,6.77,0,0,1,2.4.27A1.12,1.12,0,0,1,296.38,551.44Z"/><path d="M318.45,582.68h-2.23a21.32,21.32,0,0,1-3.74-.18q-.62-.18-.62-1a3.2,3.2,0,0,1,1.17-2,5.27,5.27,0,0,0,1.48-2.36,64.61,64.61,0,0,0,0-12,2.72,2.72,0,0,0-1.61-1.54q-1.35-.64-1.35-1.55t1.24-1.32a19.55,19.55,0,0,1,6.21-.94h.35a1.38,1.38,0,0,1,1.57,1.15q.12.66.12,7.86a57.86,57.86,0,0,0,.32,8.44,6.23,6.23,0,0,0,1.63,2.61q1.31,1.38,1.31,1.73v.28Q324.36,582.68,318.45,582.68ZM314,552.19a2.94,2.94,0,0,1,1.07-2.3,3.43,3.43,0,0,1,2.31-.94h.75a3.09,3.09,0,0,0,.59.07,2.58,2.58,0,0,1,2,1,3,3,0,0,1,.87,1.92v.61a2,2,0,0,0,0,.35,2.6,2.6,0,0,1-1.1,1.92,3.67,3.67,0,0,1-2.44.94h-.73a3.32,3.32,0,0,1-2.26-.83A2.49,2.49,0,0,1,314,553l0-.23Z"/><path d="M331.74,582.4a3.11,3.11,0,0,1-2.26-.6,2.05,2.05,0,0,1-.55-1.44,30.53,30.53,0,0,1,.45-3.64,29.51,29.51,0,0,0,.45-3.86l0-.56V570l0-1.15V564.8q0-9.07-.23-10.38a3.22,3.22,0,0,0-1.15-2q-1.57-1.27-1.57-1.69,0-1,1.85-1.48a17.89,17.89,0,0,1,4.38-.73h.54a1.87,1.87,0,0,1,2.09,1.38,34.46,34.46,0,0,1,.23,5.46q0,4.52.12,5,.19.82,1.22.82L338,561a14.74,14.74,0,0,1,4.76-1,8.11,8.11,0,0,1,6.73,3.15,12,12,0,0,1,2.48,7.63v.59a11.79,11.79,0,0,1-1,4.69,10.75,10.75,0,0,1-6,6.12,11.69,11.69,0,0,1-4.36.89H340a11.69,11.69,0,0,1-2.16-.3,14.35,14.35,0,0,0-3-.3l-.52,0q-.8-.07-1.05-.07l-.54,0Q332.09,582.4,331.74,582.4Zm4.17-6.61a4.64,4.64,0,0,0,.95,3.11,3.25,3.25,0,0,0,2.61,1.11h1.08q1.85,0,3.22-2.19a10,10,0,0,0,1.37-5.4v-1.57a10.15,10.15,0,0,0-1.42-5.7,4.12,4.12,0,0,0-3.48-2.13h-.4a3.36,3.36,0,0,0-3.21,1.58q-.89,1.58-.89,6.62v.47l0,.23v1.15l0,.23v.47l.09,1.57Q335.92,575.58,335.92,575.79Z"/><path d="M371.54,560.25a3.32,3.32,0,0,1,2.61.82,3,3,0,0,1,.69,2,3.53,3.53,0,0,1-.62,2.05,1.74,1.74,0,0,1-1.41.9,5.86,5.86,0,0,1-2.17-.61,5.84,5.84,0,0,0-2.13-.61,2.75,2.75,0,0,0-1.69.8,4.19,4.19,0,0,0-1.3,2.27,21.23,21.23,0,0,0-.36,4.63,11.54,11.54,0,0,0,.45,4.08,11.17,11.17,0,0,0,1.83,2.43,4.18,4.18,0,0,1,1.38,2.46q0,1.13-5.44,1.13h-2l-.49,0-1,0-.49,0-1,0q-2.46,0-2.46-1.05a3,3,0,0,1,1.23-2.13,4.74,4.74,0,0,0,1.5-1.95,33.87,33.87,0,0,0,.27-6,31.48,31.48,0,0,0-.32-6.09,3.16,3.16,0,0,0-1.52-1.72q-1.21-.71-1.21-1.49,0-1.08,1.62-1.52a17.11,17.11,0,0,1,4.41-.66,5.34,5.34,0,0,1,2.65.45,2.73,2.73,0,0,1,.64,1.2q.36,1,.86,1a2.46,2.46,0,0,0,.89-.42A8.71,8.71,0,0,1,371.54,560.25Z"/><path d="M384.29,573.75a5,5,0,0,0,2.2,4.05,6.55,6.55,0,0,0,4.17,1.29,13.52,13.52,0,0,0,3.41-.66,18.27,18.27,0,0,1,2.61-.66q1.05,0,1.05,1.15,0,1.36-2.8,2.75a12.86,12.86,0,0,1-5.8,1.39H388a10.53,10.53,0,0,1-3.87-.77,9.54,9.54,0,0,1-5.53-5.25,12.26,12.26,0,0,1-1.12-4.9v-1.08a13,13,0,0,1,.82-4.57,10.31,10.31,0,0,1,5.46-6,11.64,11.64,0,0,1,4.92-1.08h.54a9.27,9.27,0,0,1,6.45,2.37,8.47,8.47,0,0,1,2.12,3,9.38,9.38,0,0,1,.74,3.62,2.36,2.36,0,0,1-1.8,2.43q-2.53.82-9.37.82a4.43,4.43,0,0,0-2.44.46A1.83,1.83,0,0,0,384.29,573.75Zm4.57-11.16h-.68a3.81,3.81,0,0,0-2.82,1.54A5.37,5.37,0,0,0,384,567.8v.38q0,.87,1,.87l.23,0h1.66l.12,0,3.91-.23a3,3,0,0,1,.47-.07q1.2,0,1.2-1.24v-.77a4.25,4.25,0,0,0-1.12-2.86A3.35,3.35,0,0,0,388.86,562.6Z"/><path d="M426.15,550.13h2.53q5.81,0,8.77,2.11a6.62,6.62,0,0,1,3,5.67,7.68,7.68,0,0,1-.94,3.75,7.13,7.13,0,0,1-2.26,2.59,5.83,5.83,0,0,0-1.32,1,8.36,8.36,0,0,0,1.82,1,9.12,9.12,0,0,1,2.89,2.18,6.75,6.75,0,0,1,1.71,4.43v.61q0,7-8.37,8.84a30.79,30.79,0,0,1-6.28.49h-1.24l-.63,0-1.24,0-1.24,0-1.24,0-3-.07a25.49,25.49,0,0,1-3-.09q-1.22-.23-1.22-1.15,0-.66,1.55-1.95a4.42,4.42,0,0,0,1.37-2.67,90.46,90.46,0,0,0,.34-10.7q0-8.89-.32-10.21a4.29,4.29,0,0,0-1.62-2.34q-1.3-1-1.3-1.84a1.1,1.1,0,0,1,.93-1.09,24.45,24.45,0,0,1,5-.28l2.44-.09Q425.56,550.13,426.15,550.13Zm-1.29,26.93,0,1q0,1.38,2.51,1.38l.21,0,.19,0,.84,0h1.05a5.67,5.67,0,0,0,3.95-1.48,5.14,5.14,0,0,0,1.63-4v-.89A5.53,5.53,0,0,0,433.6,569a7,7,0,0,0-5.16-1.69H427q-1.78,0-2,.41a36.41,36.41,0,0,0-.18,5.36l0,.4v.59l0,.19v.4l0,.8v.19l0,.19v.4l0,.19v.42Zm0-14.34,0,.82q0,.73,1,.73H427l.19,0,1.27,0,.38,0a4.84,4.84,0,0,0,3.3-1.35,4.39,4.39,0,0,0,1.5-3.41l0-.37v-.75a4.48,4.48,0,0,0-1.51-3.49,6.6,6.6,0,0,0-4.54-1.36h-.91q-1.55,0-1.8.75a39.7,39.7,0,0,0-.09,4.13v4.22Z"/><path d="M457.13,559.39h1.17a11.09,11.09,0,0,1,10.05,7.08,12.88,12.88,0,0,1,.8,4.45v.42a12.24,12.24,0,0,1-1,4.78,11.08,11.08,0,0,1-2.65,3.89,11.53,11.53,0,0,1-8,3.14l-.7,0a11.4,11.4,0,0,1-4.42-.9,9.93,9.93,0,0,1-3.55-2.4,11.78,11.78,0,0,1-3-8.23v-.4l0-.4a12.63,12.63,0,0,1,.82-4.31,10.67,10.67,0,0,1,5.67-6A11.08,11.08,0,0,1,457.13,559.39Zm0,3.12h-.45a3.76,3.76,0,0,0-3.29,2.27,10.93,10.93,0,0,0-1.28,5.44v1.31a11.51,11.51,0,0,0,1.48,6Q455,580,457.11,580h.45a3.87,3.87,0,0,0,3.15-1.84,8.13,8.13,0,0,0,1.35-4.91l0-.49,0-1v-.26l0-.26v-.49q0-.52,0-.75a9.33,9.33,0,0,0-1.48-5.32A4.19,4.19,0,0,0,457.11,562.5Z"/><path d="M472.44,550.08q0-.84,1.22-1.22a21.68,21.68,0,0,1,6.33-1q1.78,0,2,1.55,0,.38,0,12.56t.41,14.4a6.58,6.58,0,0,0,1.11,3,24.45,24.45,0,0,1,1.78,2.11q0,1.13-6.28,1.13h-.47l-.49,0a28.68,28.68,0,0,1-4.49-.19.85.85,0,0,1-.74-.88,4.19,4.19,0,0,1,1.15-2.11,6.78,6.78,0,0,0,1.45-3,113,113,0,0,0,.3-11.71q0-10.12-.33-11.24a3.65,3.65,0,0,0-1.65-2Q472.44,550.65,472.44,550.08Z"/><path d="M503.33,560.16q1.1,0,1.1-2.53,0-4.12-1.78-5.7-1.34-1.15-1.34-1.52,0-.75,2.2-1.45a13.3,13.3,0,0,1,4-.7,4.54,4.54,0,0,1,2.36.4,2.57,2.57,0,0,1,.75,1.73q.2,1.34.2,13t.26,13.17a5.08,5.08,0,0,0,1,2.38,9.34,9.34,0,0,0,.89.68q.84.61.84,1v.4a1.07,1.07,0,0,1-.47.75q-1.41,1.17-6.07,1.17a2.24,2.24,0,0,1-1.87-.84,6.52,6.52,0,0,0-.7-.84,4.59,4.59,0,0,0-1.52.59,9.84,9.84,0,0,1-4.64,1.36h-.68a7.89,7.89,0,0,1-3.4-.8,9.4,9.4,0,0,1-4.92-5.62,12.41,12.41,0,0,1-.73-4.15v-.75a13.33,13.33,0,0,1,1-5.06q2.74-6.82,10-6.82,1.8,0,2.13,0l.49,0Zm-3.4,19.52h.4a3.49,3.49,0,0,0,3.16-1.62q.7-1.1.7-4.95v-3.26q0-4.05-.83-5.54t-3.22-1.49h-.21A4.3,4.3,0,0,0,496.3,565a9.61,9.61,0,0,0-1.48,5.45V572a9.48,9.48,0,0,0,1.15,4.92Q497.61,579.68,499.93,579.68Z"/></g></g></svg>